<?xml version="1.0" standalone="no"?>
<!DOCTYPE svg PUBLIC "-//W3C//DTD SVG 1.1//EN" "http://www.w3.org/Graphics/SVG/1.1/DTD/svg11.dtd" >
<svg xmlns="http://www.w3.org/2000/svg">
<metadata></metadata>
<defs>
<font id="typograph_prosemibold" horiz-adv-x="1290" >
<font-face units-per-em="2048" ascent="1536" descent="-512" />
<missing-glyph horiz-adv-x="714" />
<glyph horiz-adv-x="2048" />
<glyph horiz-adv-x="2048" />
<glyph unicode="&#xd;" horiz-adv-x="1024" />
<glyph unicode=" "  horiz-adv-x="714" />
<glyph unicode="&#x09;" horiz-adv-x="714" />
<glyph unicode="&#xa0;" horiz-adv-x="714" />
<glyph unicode="!" horiz-adv-x="675" d="M164 150q0 76 52 128t126 52q76 0 128 -52t52 -128q0 -74 -52 -126.5t-128 -52.5q-74 0 -126 52.5t-52 126.5zM219 496v1087h246v-1087h-246z" />
<glyph unicode="&#x22;" horiz-adv-x="866" d="M115 1079v504h245v-504h-245zM506 1079v504h246v-504h-246z" />
<glyph unicode="#" horiz-adv-x="1433" d="M150 434v246h212v223h-212v246h212v215h246v-215h226v215h245v-215h213v-246h-213v-223h213v-246h-213v-215h-245v215h-226v-215h-246v215h-212zM608 680h226v223h-226v-223z" />
<glyph unicode="$" horiz-adv-x="1476" d="M166 301l219 111q14 -29 47 -58.5t78 -53.5t98.5 -39t110.5 -15h4h4q45 -4 109.5 8t126.5 47q123 72 133 188q6 76 -39 123q-41 47 -124 72t-190 25q-29 0 -84 4t-120 20q-162 41 -248 133q-111 117 -101 287v2q10 172 123 285q98 98 250 133l62 12v111h245v-121l36 -8 l36 -8q102 -33 178 -88.5t117 -129.5l-215 -120q-20 35 -63.5 62.5t-99.5 42.5t-119.5 18.5t-121.5 -11.5q-174 -41 -182 -192q-2 -45 9.5 -68.5t23.5 -36.5q20 -23 54 -38t71 -25t76 -14.5t73 -4.5q162 0 290 -44t206 -130q117 -129 100 -309q-10 -123 -75.5 -221 t-182.5 -164q-98 -53 -211 -76v-119h-245v117q-59 8 -117.5 26.5t-112.5 47.5q-78 41 -136 97.5t-93 121.5z" />
<glyph unicode="%" horiz-adv-x="2457" d="M139 1147q0 96 36 182t101 152q68 68 154 103.5t180 35.5q195 0 334 -139q66 -66 101.5 -152t35.5 -182q0 -94 -35.5 -180t-101.5 -152q-68 -68 -153 -103.5t-181 -35.5q-94 0 -180 36t-154 103q-66 66 -101.5 152t-35.5 180zM385 1147q0 -47 17.5 -88t48 -72t71.5 -48 t88 -17t88 17t72 48t48.5 72t17.5 88t-17.5 88t-48.5 71.5t-72 49t-88 18.5t-88 -18.5t-71.5 -49t-48 -71.5t-17.5 -88zM526 115l1196 1507l193 -152l-1196 -1507zM1378 440q0 96 35 182.5t103 151.5q66 68 151.5 103.5t181.5 35.5q94 0 180.5 -35.5t153.5 -103.5 q66 -66 101.5 -151.5t35.5 -182.5q0 -94 -35.5 -180t-101.5 -151q-68 -68 -154 -104t-180 -36q-96 0 -182 36t-151 104q-68 66 -103 151.5t-35 179.5zM1624 440q0 -47 17.5 -88t48 -71.5t71.5 -48t88 -17.5t88 17.5t72 48t48.5 71.5t17.5 88t-17.5 88t-48.5 72t-72 49.5 t-88 18.5t-88 -18.5t-71.5 -49.5t-48 -72t-17.5 -88z" />
<glyph unicode="&#x26;" horiz-adv-x="1564" d="M195 522q0 111 42 212.5t119 178.5q39 39 80 66l-24 39q-59 94 -60 207q0 82 31 153.5t85 124.5t126 85t154 32t153.5 -32t124.5 -85t85 -124.5t32 -153.5q0 -162 -109 -277q-55 -57 -126.5 -88t-151.5 -31h-8q-63 0 -120 -24.5t-98 -65.5t-65.5 -97t-24.5 -120 q0 -63 24.5 -119.5t65.5 -97.5t97.5 -65.5t120.5 -24.5q63 0 119.5 24.5t97.5 65.5t65.5 97.5t24.5 119.5h245q0 -152 -73 -276l178 -213l-188 -156l-158 189q-137 -96 -311 -97q-111 0 -212.5 42t-179.5 120t-119.5 179.5t-41.5 211.5zM598 1225q0 -43 23 -78l49 -76 q18 2 37.5 3t40.5 1h10q59 0 99 43t40 107q0 61 -44 105t-105 44t-105.5 -44t-44.5 -105z" />
<glyph unicode="'" horiz-adv-x="520" d="M154 1079v504h245v-504h-245z" />
<glyph unicode="(" horiz-adv-x="1212" d="M119 715q0 205 80 393q39 92 92 172t125 150q70 72 149.5 125t171.5 92q186 80 393 79v-245q-158 0 -297 -60.5t-243.5 -165t-164.5 -244t-60 -296.5q0 -158 60 -297t164.5 -243.5t244 -165t296.5 -60.5v-246q-207 0 -393 80q-92 39 -172 92t-149 125q-72 70 -125 149.5 t-92 172.5q-80 186 -80 393z" />
<glyph unicode=")" horiz-adv-x="1212" d="M102 -53q160 0 299.5 60.5t244 164.5t164.5 243.5t60 299.5t-60 299t-164.5 243.5t-244 165t-299.5 60.5v246q207 0 396 -80q180 -78 321 -217t219 -322q78 -190 78 -395t-78 -396q-78 -182 -219 -321q-70 -72 -149.5 -125t-171.5 -92q-189 -80 -396 -80v246z" />
<glyph unicode="*" horiz-adv-x="1222" d="M197 1036l192 121l-192 121l129 209l174 -109v205h245v-205l175 109l129 -209l-193 -121l193 -121l-129 -209l-175 109v-205h-245v205l-174 -109z" />
<glyph unicode="+" horiz-adv-x="1331" d="M131 752v245h410v406h245v-406h406v-245h-406v-408h-245v408h-410z" />
<glyph unicode="," horiz-adv-x="770" d="M131 -248l262 494l217 -115l-262 -493z" />
<glyph unicode="-" horiz-adv-x="1439" d="M147 512v246h1162v-246h-1162z" />
<glyph unicode="." horiz-adv-x="604" d="M127 150q0 76 52 128t126 52q76 0 128 -52t52 -128q0 -74 -52 -126.5t-128 -52.5q-74 0 -126 52.5t-52 126.5z" />
<glyph unicode="/" horiz-adv-x="1247" d="M70 72l897 1562l213 -123l-897 -1562z" />
<glyph unicode="0" horiz-adv-x="1591" d="M145 801q0 162 47.5 308t139.5 263q88 115 211 184q133 70 272 70q137 0 270 -70q121 -70 213 -184q90 -117 138.5 -263t48.5 -308q0 -160 -48 -307.5t-139 -264.5q-92 -117 -213 -182q-131 -72 -270 -72q-141 0 -272 72q-123 66 -211 182q-92 117 -139.5 264.5 t-47.5 307.5zM391 801q0 -121 34 -228.5t99 -191.5q59 -78 135 -119t156 -41t154.5 41t134.5 119q66 84 100.5 191.5t34.5 228.5t-35 228.5t-100 191.5q-59 78 -134 118.5t-155 40.5t-155.5 -41t-135.5 -118q-66 -84 -99.5 -191.5t-33.5 -228.5z" />
<glyph unicode="1" horiz-adv-x="735" d="M154 1335v246h417v-1581h-245v1335h-172z" />
<glyph unicode="2" horiz-adv-x="1419" d="M129 -2l186 205q178 195 288 316.5t172.5 190t88 96.5t31.5 34q4 4 6 7t6 7q12 12 29.5 33.5t34 50.5t29 63.5t12.5 75.5q0 59 -22.5 112.5t-62.5 93.5t-93.5 62.5t-112.5 22.5q-100 0 -178 -60.5t-105 -156.5q-8 -33 -8 -74h-246q0 66 17 137q25 88 74 162t118.5 126 t152.5 82t175 30q109 0 206 -40t173 -118q78 -76 117.5 -173t39.5 -206v-2q0 -135 -69 -256q-29 -47 -55.5 -79.5t-42.5 -51.5q-4 -2 -5.5 -4t-3.5 -4l-2 -4l-2 -2q-6 -6 -44 -48t-94 -102.5t-122.5 -134.5t-132.5 -145h555v-246h-1110z" />
<glyph unicode="3" horiz-adv-x="1480" d="M172 367l234 77q35 -104 132 -163.5t234 -59.5q68 0 127 25.5t104.5 70.5t71 104.5t25.5 127.5t-25.5 128t-71 105t-104.5 71t-127 26q-37 0 -75 -4.5t-72 -14.5l-279 -76l379 553h-463v246h930l-322 -467q179 -31 308 -160q82 -82 125 -186t43 -221t-43 -220.5 t-125 -185.5t-185.5 -125t-220.5 -43q-109 0 -206 27t-175 80q-160 106 -219 285z" />
<glyph unicode="4" horiz-adv-x="1593" d="M66 250l1177 1419v-1173h223v-246h-223v-252h-246v252h-931zM590 496h407v493z" />
<glyph unicode="5" horiz-adv-x="1458" d="M156 334l227 96q41 -98 128 -155.5t194 -57.5q72 0 135 27.5t111 75t76 112t28 135.5q0 72 -28 135.5t-76 111.5t-111.5 76t-134.5 28q-55 0 -108.5 -17.5t-88.5 -34.5l-223 -118v835h872v-246h-627v-202q90 29 175 28q121 0 228 -45t193 -129q86 -86 130 -193.5 t44 -228.5t-44 -228.5t-130 -193.5t-193.5 -130t-227.5 -44q-90 0 -174.5 26t-156 73t-128 113.5t-90.5 150.5z" />
<glyph unicode="6" horiz-adv-x="1361" d="M125 522q0 139 61 256l459 864l217 -114l-239 -453q14 2 28.5 2h28.5q113 0 215 -43q102 -45 176 -119q78 -78 121 -176q43 -104 43 -217q0 -111 -42 -212t-120 -181q-78 -78 -179 -120t-214 -42q-111 0 -212 42t-181 120q-78 80 -120 181.5t-42 211.5zM371 522 q0 -63 24.5 -119.5t66.5 -98.5t98.5 -66.5t119.5 -24.5t119.5 24.5t98.5 66.5t66.5 98.5t24.5 119.5t-24.5 119.5t-66.5 98.5t-98.5 66.5t-119.5 24.5q-88 0 -157.5 -40.5t-110.5 -112.5l-9 -14q-33 -70 -32 -142z" />
<glyph unicode="7" horiz-adv-x="1466" d="M147 1335v246h1270l-938 -1622l-213 123l725 1253h-844z" />
<glyph unicode="8" horiz-adv-x="1376" d="M145 518q0 111 41 211t119 178q20 18 41 34.5t43 33.5q-86 104 -86 246q0 82 31 153.5t84 124.5t124.5 84t151.5 31q82 0 154 -31t125 -84t83.5 -124.5t30.5 -153.5q0 -72 -22.5 -133.5t-63.5 -112.5q23 -16 43.5 -33t38.5 -35q78 -78 120 -178t42 -211t-42 -211 t-120 -178t-178 -120t-211 -42t-211 42t-178 120t-119 178.5t-41 210.5zM391 518q0 -63 23.5 -118.5t64.5 -97.5t96.5 -65.5t118.5 -23.5t118.5 23.5t96.5 65.5t65.5 97.5t24.5 118.5t-24.5 118.5t-65.5 96.5t-96 64.5t-119 23.5q-63 0 -118.5 -23.5t-96.5 -64.5t-64.5 -96 t-23.5 -119zM549 1221q0 -61 43 -104.5t102 -43.5q61 0 104.5 43t43.5 105q0 59 -43.5 103t-104.5 44q-59 0 -102 -44t-43 -103z" />
<glyph unicode="9" horiz-adv-x="1359" d="M139 1071q0 111 41 209t119 176t176 119t209 41t209 -41t176 -119t119 -176t41 -209q0 -147 -72 -272l-440 -848l-217 115l239 462q-14 -2 -27.5 -2h-27.5q-111 0 -209 41t-176 119t-119 176.5t-41 208.5zM385 1071q0 -61 23.5 -116.5t63.5 -95.5t95.5 -63.5t116.5 -23.5 q82 0 147.5 37t106.5 102l14 27v-2q31 61 31 135q0 61 -23.5 115.5t-64.5 95.5t-95.5 64.5t-115.5 23.5t-116.5 -23.5t-95.5 -64.5t-63.5 -95t-23.5 -116z" />
<glyph unicode=":" horiz-adv-x="763" d="M209 412q0 76 52 128t126 52q76 0 128 -52t52 -128q0 -74 -52 -126.5t-128 -52.5q-74 0 -126 52.5t-52 126.5zM209 1053q0 76 52 128t126 52q76 0 128 -52t52 -128q0 -74 -52 -126.5t-128 -52.5q-74 0 -126 52.5t-52 126.5z" />
<glyph unicode=";" horiz-adv-x="811" d="M219 188l168 412l227 -94l-168 -412zM238 1042q0 76 52 128.5t126 52.5q76 0 128 -52.5t52 -128.5q0 -74 -52 -126t-128 -52q-74 0 -126 52.5t-52 125.5z" />
<glyph unicode="&#x3c;" horiz-adv-x="997" d="M59 664l510 507l174 -174l-335 -333l335 -336l-174 -174z" />
<glyph unicode="=" horiz-adv-x="1384" d="M186 387v246h1016v-246h-1016zM186 879v245h1016v-245h-1016z" />
<glyph unicode="&#x3e;" horiz-adv-x="993" d="M221 328l334 336l-334 333l172 174l510 -507l-510 -510z" />
<glyph unicode="?" horiz-adv-x="1277" d="M115 1307q33 72 83 129t115 98q139 88 299 88q111 0 210.5 -42t176.5 -120q78 -78 120 -177t42 -210t-42 -211t-120 -178t-177 -120t-210 -42q-23 0 -32 2v-131h-246v461l168 -66q57 -20 110 -20q61 0 116.5 23.5t97.5 65.5t65.5 97.5t23.5 118.5q0 61 -23.5 116.5 t-65.5 97.5t-97 65.5t-117 23.5q-90 0 -163.5 -47t-112.5 -127zM281 145q0 76 52 128.5t126 52.5q76 0 128 -52.5t52 -128.5q0 -74 -52 -126t-128 -52q-74 0 -126 52.5t-52 125.5z" />
<glyph unicode="@" horiz-adv-x="1816" d="M72 432q0 170 65 326q33 74 77 140.5t103 125.5q57 57 124 101t141 77q156 66 325 66q166 0 326 -66q74 -33 140.5 -77t123.5 -101q59 -59 103 -125.5t77 -140.5q66 -156 66 -326q0 -102 -31 -192t-86 -150q-57 -59 -131 -88q-82 -29 -156 -14q-61 12 -110 51t-78 98 q-29 -23 -57.5 -42t-63.5 -32q-78 -33 -156 -32q-84 0 -156.5 31.5t-126.5 86t-86 127t-32 156.5q0 168 117 285q55 57 129 87t155 30q82 0 156 -31q53 -23 92 -51v26h246v-528q6 -14 11 -17.5t10 -3.5q10 -2 25.5 4.5t31.5 22.5v2q18 20 34.5 66.5t16.5 107.5 q0 123 -46 230.5t-126 187.5t-187.5 126t-230.5 46t-230.5 -46t-187 -126t-126 -187.5t-46.5 -230.5t46.5 -230.5t126 -187.5t187 -126t230.5 -46q98 0 197 35l80 -233q-135 -47 -277 -47q-170 0 -325 65q-74 33 -140.5 77t-124.5 103q-59 57 -103 124t-77 140 q-66 160 -65 326zM719 432q0 -63 44.5 -109.5t110.5 -46.5q33 0 63 12.5t53.5 34t36.5 50t13 59.5t-13 59.5t-36.5 50t-53.5 34t-63 12.5q-66 0 -110.5 -45t-44.5 -111z" />
<glyph unicode="A" horiz-adv-x="1677" d="M68 51l761 1614l766 -1614l-221 -104l-211 442h-665l-209 -442zM614 635h433l-218 457z" />
<glyph unicode="B" horiz-adv-x="1576" d="M188 0v1581h617h6q154 0 268 -55q102 -49 160 -137q68 -102 68 -248q0 -162 -93 -273q12 -8 24.5 -15t25.5 -17q84 -63 127 -154q45 -88 45 -201q0 -104 -40 -196t-118 -158q-72 -61 -165.5 -94t-199.5 -33h-725zM434 246h479q47 0 96.5 12t89.5 40t65.5 73t25.5 110 q0 74 -35 118t-86 68.5t-109.5 32t-105.5 7.5h-420v-461zM434 952h418q6 0 42 5.5t77 27.5q47 23 68.5 60.5t21.5 95.5q0 80 -28.5 113.5t-61.5 50.5q-23 10 -62 20t-98 10h-6h-4h-367v-383z" />
<glyph unicode="C" horiz-adv-x="1638" d="M182 1114q61 150 176 260q113 113 263 178q76 33 155.5 48.5t163.5 15.5q170 0 322 -64q72 -33 137 -75.5t123 -100.5l-172 -174q-84 82 -188.5 125t-221.5 43q-119 0 -224.5 -45t-183 -124t-124 -184.5t-46.5 -223.5q0 -119 46.5 -224.5t124 -183.5t183 -124t224.5 -46 q117 0 221.5 43t188.5 125l172 -172q-115 -115 -260 -176q-156 -66 -322 -66t-319 66q-147 61 -263 176q-115 115 -176 262q-65 152 -65 315q0 171 65 326z" />
<glyph unicode="D" horiz-adv-x="1654" d="M178 0v1583h551q168 0 317.5 -58.5t262.5 -168.5q111 -111 170 -254.5t59 -302.5q0 -164 -56.5 -307.5t-164.5 -253.5q-109 -113 -258 -175q-156 -63 -330 -63h-551zM424 246h305q125 0 228.5 41t178 113.5t115.5 174t41 224.5q0 117 -42 215t-117.5 170.5t-178 112.5 t-225.5 40h-305v-1091z" />
<glyph unicode="E" horiz-adv-x="1304" d="M197 0v1583h948v-246h-703v-389h680v-246h-680v-456h703v-246h-948z" />
<glyph unicode="F" horiz-adv-x="1302" d="M207 0v1583h973v-246h-727v-456h700v-246h-700v-635h-246z" />
<glyph unicode="G" horiz-adv-x="1875" d="M111 793q0 168 65 323q31 74 76 139.5t102 124.5q113 113 264 179q152 63 322 63q217 0 403 -102q90 -49 165 -119t130 -156l-206 -135q-82 127 -211 196.5t-281 69.5q-121 0 -227.5 -46t-185 -125t-125 -185.5t-46.5 -226.5q0 -121 46.5 -227.5t125 -186.5t185 -126 t227.5 -46q88 0 170 24.5t151.5 70.5t124 108.5t89.5 140.5h-586v246h885q0 -18 -1 -43t-6 -47l-8 -54q-23 -143 -95.5 -270t-182.5 -223q-115 -96 -253 -147.5t-288 -51.5q-166 0 -322 66q-152 63 -264 178q-117 117 -178 264q-65 154 -65 319v5z" />
<glyph unicode="H" horiz-adv-x="1751" d="M227 0v1583h246v-590h850v590h246v-1583h-246v748h-850v-748h-246z" />
<glyph unicode="I" horiz-adv-x="675" d="M225 0v1583h246v-1583h-246z" />
<glyph unicode="J" horiz-adv-x="1433" d="M147 195l189 159l4 -4q16 -20 38.5 -43.5t56.5 -44t80 -34t110 -13.5q246 0 327 145q37 63 44.5 128t7.5 98v18v979h245v-987v-4v-12q0 -20 -2 -57.5t-10 -83.5t-24.5 -98t-47.5 -103q-27 -47 -69.5 -94.5t-107 -86.5t-154.5 -63.5t-209 -24.5q-106 0 -185.5 24.5 t-135.5 60.5t-93 74t-57 62z" />
<glyph unicode="K" horiz-adv-x="1779" d="M190 0v1583h246v-723l965 774l153 -192l-692 -555l805 -762l-168 -180l-831 786l-232 -186v-545h-246z" />
<glyph unicode="L" horiz-adv-x="1308" d="M188 0v1583h246v-1337h725v-246h-971z" />
<glyph unicode="M" horiz-adv-x="2158" d="M45 25l440 1615l586 -1169l584 1171l444 -1619l-237 -64l-275 999l-516 -1036l-518 1034l-270 -995z" />
<glyph unicode="N" horiz-adv-x="1863" d="M223 0v1657l1188 -1157v1083h246v-1665l-1188 1157v-1075h-246z" />
<glyph unicode="O" horiz-adv-x="1878" d="M113 793q0 168 65 323q61 147 178 264t265 179q154 65 318 65h5q168 0 324 -65q147 -61 264 -179q117 -117 178 -264q66 -156 66 -323q0 -168 -66 -324q-61 -147 -178 -264t-264 -178q-156 -66 -324 -66t-323 66q-147 61 -265 178q-117 117 -178 264q-65 154 -65 319v5z M358 793q0 -121 46.5 -227.5t126 -186.5t186 -126t227.5 -46t227.5 46t186.5 126t126 186.5t46 227.5t-46 227t-126 186t-186.5 126t-227.5 46t-227.5 -46t-186 -126t-126 -186.5t-46.5 -226.5z" />
<glyph unicode="P" horiz-adv-x="1488" d="M197 0v1583h524q139 0 251.5 -37t192.5 -105.5t123 -165.5t43 -216t-41 -225q-43 -102 -121 -181q-82 -80 -194.5 -122t-241.5 -44q-4 0 -8 1t-8 1h-275v-489h-245zM442 735h279q12 -1 23 -1q74 0 134 22q70 26 119 73q88 88 88 230q0 133 -92 205q-47 35 -116.5 54 t-155.5 19h-279v-602z" />
<glyph unicode="Q" horiz-adv-x="1916" d="M121 793q0 166 65 325q33 74 77 140.5t102 123.5q117 115 266 179q154 65 318 65h5q168 0 324 -65q150 -66 264 -179q59 -57 103.5 -123.5t76.5 -140.5q66 -160 66 -325q0 -168 -66 -324q-51 -119 -139 -223l143 -160l-180 -164l-151 164q-59 -37 -117 -59 q-150 -66 -324 -66t-323 66q-150 61 -266 178q-57 57 -101.5 123.5t-77.5 140.5q-65 154 -65 319v5zM367 793q0 -121 46 -227.5t125.5 -186.5t187 -126t228.5 -46q74 0 142.5 17.5t130.5 47.5l-250 277l180 164l258 -283q59 76 93 167t34 196q0 121 -46 228t-126 187 t-187.5 126t-228.5 46t-228.5 -46t-187 -126t-125.5 -187.5t-46 -227.5z" />
<glyph unicode="R" horiz-adv-x="1488" d="M188 0v1583h525q262 0 426 -127q92 -70 138 -171t46 -226q0 -119 -41 -225q-43 -102 -121 -181q-82 -80 -186 -118l358 -426l-188 -160l-453 540h-258v-489h-246zM434 735h279q12 -1 23 -1q74 0 134 22q70 26 119 73q88 88 88 230q0 135 -90 205q-47 35 -116.5 54 t-157.5 19h-279v-602z" />
<glyph unicode="S" horiz-adv-x="1501" d="M145 276l220 113q16 -31 51 -62.5t82 -57t103 -42t118 -16.5h4h4q10 -1 21 -1q40 0 94 12q68 14 133 48q135 76 143 203q1 9 1 18q0 69 -42 113q-45 49 -133 77t-199 28q-33 0 -90 4t-123 20q-164 41 -258 137q-54 59 -80 134q-23 65 -23 140q0 11 1 23q10 178 127 295 q49 51 114.5 86t143.5 54q77 19 158 19q19 1 39 -1q100 -6 196 -35q104 -35 183 -91t122 -134l-213 -121q-20 35 -63 63.5t-102 47.5q-63 20 -132 23q-12 1 -24 1q-56 0 -109 -12q-186 -43 -194 -209q-1 -11 -1 -21q0 -32 10 -52q13 -26 26 -40q47 -47 131 -66.5t161 -19.5 q166 0 298.5 -47t213.5 -135q109 -116 109 -276q0 -21 -2 -43q-12 -137 -92 -244q-68 -92 -176 -154q-78 -43 -169 -66.5t-177 -23.5h-37q-84 2 -168 23.5t-162 62.5q-80 43 -141.5 101.5t-96.5 123.5z" />
<glyph unicode="T" horiz-adv-x="1415" d="M80 1337v246h1247v-246h-502v-1337h-245v1337h-500z" />
<glyph unicode="U" horiz-adv-x="1843" d="M213 707v876h246v-876q0 -20 1 -54.5t6 -74t17.5 -83.5t34.5 -85q102 -195 404 -195q301 0 403 195q23 41 35 85t17 83.5t6 73.5t1 55v876h246v-876q0 -25 -1 -70t-9 -100.5t-26.5 -118t-51.5 -123.5q-29 -55 -78 -113.5t-122.5 -105.5t-177 -77t-242.5 -30t-243 30 t-177.5 77t-122.5 105.5t-78 113.5q-33 61 -51.5 123.5t-26.5 118t-9 100.5t-1 70z" />
<glyph unicode="V" horiz-adv-x="1660" d="M25 1513l219 111l592 -1163l589 1163l220 -111l-807 -1593z" />
<glyph unicode="W" horiz-adv-x="2560" d="M78 1524l227 94l447 -1086l524 1117l522 -1117l447 1086l227 -94l-657 -1602l-539 1147l-539 -1147z" />
<glyph unicode="X" horiz-adv-x="1556" d="M61 94l560 723l-519 670l195 151l479 -620l477 620l195 -151l-516 -670l559 -723l-195 -151l-520 673l-520 -673z" />
<glyph unicode="Y" horiz-adv-x="1761" d="M92 1499l197 148l592 -791l594 791l196 -148l-667 -889v-610h-246v610z" />
<glyph unicode="Z" horiz-adv-x="1644" d="M117 0l938 1335h-793v246h1268l-940 -1335h833v-246h-1306z" />
<glyph unicode="[" horiz-adv-x="784" d="M184 -283v1995h488v-246h-242v-1503h244v-246h-490z" />
<glyph unicode="\" horiz-adv-x="1249" d="M66 1518l213 122l905 -1574l-213 -123z" />
<glyph unicode="]" horiz-adv-x="774" d="M102 -37h244v1503h-242v246h488v-1995h-490v246z" />
<glyph unicode="^" horiz-adv-x="1159" d="M78 1255l493 496l492 -496l-174 -172l-318 320l-319 -320z" />
<glyph unicode="_" horiz-adv-x="1452" d="M141 0v246h1162v-246h-1162z" />
<glyph unicode="`" horiz-adv-x="561" d="M66 1552l225 103l168 -371l-226 -102z" />
<glyph unicode="a" horiz-adv-x="1380" d="M82 489q0 109 40 205.5t116 173.5q76 76 173 116t203 40q109 0 205 -40t174 -116q6 -8 19 -20v135h245v-983h-245v133q-4 -4 -9.5 -10t-9.5 -10q-78 -76 -174 -116t-205 -40q-106 0 -203.5 40t-172.5 116q-76 76 -116 173t-40 203zM328 489q0 -59 22.5 -111t61.5 -91 t91 -61.5t111 -22.5t112.5 22.5t92.5 61.5t61.5 91t22.5 111t-22.5 112.5t-61.5 92.5t-92 61.5t-113 22.5q-59 0 -111 -22.5t-91 -61.5t-61.5 -92t-22.5 -113z" />
<glyph unicode="b" horiz-adv-x="1363" d="M164 0v1622h246v-741q74 70 166 105.5t192 35.5q106 0 202.5 -40t172.5 -116t115.5 -172t39.5 -202t-39.5 -202.5t-115.5 -170.5q-76 -76 -172.5 -116t-202.5 -40q-100 0 -192.5 36t-165.5 105v-104h-246zM485 492q0 -59 22.5 -110.5t60.5 -89.5t89.5 -60.5t110.5 -22.5 t111.5 22.5t90.5 60.5t60.5 89t22.5 111q0 59 -22.5 111t-60.5 90t-90.5 60.5t-111.5 22.5t-110.5 -22.5t-89.5 -60.5t-60.5 -90t-22.5 -111z" />
<glyph unicode="c" horiz-adv-x="1122" d="M111 492q0 106 39.5 202.5t113.5 171.5q76 76 172 115t203 39q106 0 202.5 -39t172.5 -115l-174 -174q-82 82 -201 82q-59 0 -110.5 -22.5t-89.5 -60.5t-60.5 -90t-22.5 -109q0 -59 22.5 -110.5t60.5 -89.5t89.5 -60.5t110.5 -22.5q119 0 201 82l174 -174 q-76 -76 -172.5 -115t-202.5 -39t-202.5 39t-172.5 115q-74 76 -113.5 172t-39.5 203z" />
<glyph unicode="d" horiz-adv-x="1366" d="M109 489q0 109 39.5 205.5t115.5 171.5q76 76 172 116t203 40q94 0 180 -30.5t158 -90.5v721h246v-1622h-246v80q-72 -59 -158 -90t-180 -31q-106 0 -202.5 40t-172.5 116t-115.5 172t-39.5 202zM354 489q0 -59 22.5 -110t61.5 -90t90.5 -61.5t110.5 -22.5t111.5 22.5 t91.5 61.5t61.5 90t22.5 110t-22.5 111.5t-61.5 91.5t-91.5 61.5t-111.5 22.5t-110.5 -22.5t-90.5 -61.5t-61.5 -91t-22.5 -112z" />
<glyph unicode="e" d="M109 489q0 111 39.5 207.5t117.5 173.5q76 78 173.5 118t205.5 40q111 0 209 -42t172 -115.5t116 -172t42 -209.5v-112h-830q35 -88 114 -143.5t177 -55.5q86 0 157.5 42t115.5 114l194 -113q-72 -121 -192 -194q-128 -74 -275 -74q-109 0 -206 40t-173 118 q-78 76 -117.5 173t-39.5 205zM354 602h584q-35 88 -114 144.5t-179 56.5q-98 0 -177 -56.5t-114 -144.5z" />
<glyph unicode="f" horiz-adv-x="1003" d="M59 844v246h146q0 31 3 81t19.5 110t50 126t93.5 127q197 197 587 197v-246q-289 0 -413 -125q-35 -35 -53.5 -73t-27.5 -74.5t-11 -69.5t-2 -53h241v-246h-241v-842h-246v842h-146z" />
<glyph unicode="g" horiz-adv-x="1370" d="M104 489q0 109 40 205.5t116 171.5q76 76 172 116t203 40q104 0 197.5 -37t166.5 -106v104h246v-874q0 -18 -2 -36t-4 -32q-2 -2 -2 -8v-2q-4 -23 -9 -43.5t-9 -40.5l-2 -4l-3 -4q0 -6 -2 -11q-2 -10 -8 -24v-2q-43 -131 -143 -221l-4 -5l-2 -2q-4 -4 -9.5 -9t-13.5 -11 q-16 -10 -31.5 -21.5t-33.5 -21.5q-27 -16 -72 -37q-111 -43 -248 -51h-39h-50.5t-53.5 4h-4l-43 8q-63 10 -112.5 32.5t-84.5 43.5l-2 2l-4 2q-4 4 -7 6t-7 4l139 203q2 -2 4 -3t4 -3h2q33 -18 58.5 -29.5t52.5 -15.5l30 -6q31 -2 55.5 -3t47.5 1q49 4 91 11t79 23 q10 4 21.5 9.5t21.5 11.5q18 12 35 24q4 4 8 7.5t8 7.5q51 49 76 119q0 4 1 5t1 5l6 18q4 16 7 31.5t5 30.5q2 2 2 10q2 4 2 10t2 10q-76 -70 -168 -106.5t-196 -36.5q-106 0 -202.5 40t-172.5 116t-116 172t-40 202zM350 489q0 -59 22.5 -110t61.5 -90t90.5 -61.5 t110.5 -22.5t111.5 22.5t91.5 61.5t61.5 90t22.5 110t-22.5 111.5t-61.5 91.5t-91.5 61.5t-111.5 22.5t-110.5 -22.5t-90.5 -61.5t-61.5 -91t-22.5 -112z" />
<glyph unicode="h" horiz-adv-x="1363" d="M164 0v1622h246v-696q74 51 158.5 77.5t170.5 26.5h2q106 0 202.5 -40t174.5 -116q76 -78 116 -174t40 -202v-498h-246v498q0 59 -22.5 111.5t-61.5 91t-91 61t-112 22.5h-2q-63 0 -121.5 -24.5t-103.5 -64.5t-72.5 -91t-27.5 -106v-498h-4h-242h-4z" />
<glyph unicode="i" horiz-adv-x="575" d="M111 1294q0 37 13 69t37.5 55.5t56.5 37.5t69 14t68.5 -14t55 -37.5t38 -55.5t14.5 -69t-14.5 -68.5t-38 -56t-55 -38t-68.5 -13.5q-74 0 -125 51.5t-51 124.5zM164 0v983h246v-983h-246z" />
<glyph unicode="j" horiz-adv-x="985" d="M29 -233h278q55 0 106.5 27.5t91.5 73.5t64.5 104.5t24.5 121.5v889h246v-889q0 -104 -40 -206.5t-112 -184.5q-35 -41 -77 -73.5t-89 -57.5q-102 -51 -215 -51h-278v246zM539 1294q0 37 13 69t37.5 55.5t56.5 37.5t69 14t68.5 -14t55 -37.5t38 -55.5t14.5 -69 t-14.5 -68.5t-38 -56t-55 -38t-68.5 -13.5q-74 0 -125 51.5t-51 124.5z" />
<glyph unicode="k" horiz-adv-x="1245" d="M164 0v1622h246v-1010l559 430l149 -196l-368 -283l419 -436l-176 -172l-440 457l-143 -111v-301h-246z" />
<glyph unicode="l" horiz-adv-x="577" d="M166 0v1622h246v-1622h-246z" />
<glyph unicode="m" horiz-adv-x="1992" d="M164 0v1024h225v-70q119 78 260 78q98 0 185.5 -37t156.5 -108l19 -19l18 19q68 72 156 108.5t186 36.5t185 -36.5t157 -108.5q70 -70 105.5 -159t35.5 -187v-541h-245v541q0 51 -18.5 95t-51.5 78t-76 53t-92 19t-92 -19t-76 -53t-51 -78t-18 -95v-541h-246v541 q0 51 -18.5 95t-51.5 78t-76 53t-92 19t-92 -19t-75.5 -53t-51 -78t-18.5 -95v-541h-23h-223h-2z" />
<glyph unicode="n" horiz-adv-x="1359" d="M164 0v494v510h225v-76q139 98 307 98h2q106 0 202.5 -40t174.5 -116q76 -78 116 -174t40 -202v-494h-246v494q0 59 -22.5 111t-61.5 91t-91 61.5t-112 22.5h-2q-59 0 -111.5 -22.5t-91 -61.5t-61 -91t-22.5 -111v-494h-21h-225z" />
<glyph unicode="o" d="M109 492q0 109 39.5 206t117.5 172q76 78 173.5 118t205.5 40q109 0 206 -40t173 -118q78 -76 118 -173t40 -205q0 -109 -40 -206.5t-118 -172.5q-76 -78 -173 -118t-206 -40t-206 40t-173 118q-78 76 -117.5 173t-39.5 206zM354 492q0 -59 22.5 -112.5t62.5 -93.5 t93.5 -62.5t112.5 -22.5t112.5 22.5t93.5 62.5t62.5 93t22.5 113q0 59 -22.5 112t-62.5 93t-93.5 62.5t-112.5 22.5t-112.5 -22.5t-93.5 -62.5t-62.5 -93t-22.5 -112z" />
<glyph unicode="p" horiz-adv-x="1404" d="M164 -465v1448h246v-86q72 61 160.5 94t187.5 33q109 0 206 -40t175 -118q76 -78 116.5 -175t40.5 -206t-41 -206t-116 -175q-78 -78 -175.5 -117.5t-205.5 -39.5q-98 0 -187.5 32.5t-160.5 94.5v-539h-246zM465 485q0 -61 22.5 -114.5t62.5 -93t93.5 -62t114.5 -22.5 t114.5 22.5t93.5 62t62.5 93t22.5 114.5t-22.5 114.5t-62.5 93.5t-93.5 62.5t-114.5 22.5t-114.5 -22.5t-93.5 -62.5t-62.5 -93t-22.5 -115z" />
<glyph unicode="q" horiz-adv-x="1423" d="M109 489q0 111 39.5 209.5t117.5 173.5q78 78 176.5 119t206.5 41q102 0 194.5 -35.5t168.5 -103.5v90h245v-1448h-245v551q-76 -66 -168 -101.5t-195 -35.5q-109 0 -207 40t-176 117q-78 78 -117.5 176.5t-39.5 206.5zM354 489q0 -61 23.5 -114t63.5 -93t93.5 -63.5 t114.5 -23.5t115.5 23.5t94.5 63.5t63.5 93t23.5 114t-23.5 115.5t-63.5 94.5t-94 63.5t-116 23.5q-61 0 -114.5 -23.5t-93.5 -63.5t-63.5 -94t-23.5 -116z" />
<glyph unicode="r" horiz-adv-x="1024" d="M164 0v1004h246v-62q0 2 2 2q133 84 319 84q70 0 146.5 -22.5t130.5 -57.5l-136 -205q-20 14 -63 26.5t-78 12.5q-68 0 -116 -14t-79.5 -35.5t-50 -47.5t-30.5 -48q-16 -35 -24.5 -71t-12.5 -67.5t-5 -59t-1 -42.5v-397h-2h-244h-2z" />
<glyph unicode="s" horiz-adv-x="1075" d="M111 168l217 111q4 -4 17 -16.5t46 -29.5q55 -28 117 -28h4h4l4 -2q14 0 36 2t45.5 9t46 17.5t38.5 24.5q16 16 21.5 28.5t5.5 22.5q2 20 -2 28.5t-9 12.5q-16 16 -58 29.5t-120 13.5q-25 0 -65.5 3t-86.5 15.5t-94.5 35t-84.5 63.5q-74 78 -74 188v17q6 113 78.5 190.5 t195.5 106.5q59 14 121 14h16q70 -2 136 -20q78 -23 135 -63t88 -93l-215 -121q-2 4 -18.5 16.5t-55.5 22.5q-44 13 -87 13q-32 0 -64 -7q-59 -14 -71.5 -37.5t-12.5 -36.5q0 -10 2 -14l4 -8q16 -16 60 -27.5t93 -11.5q102 0 187 -23q109 -31 170 -98q78 -80 78 -196 q0 -14 -1 -29q-10 -127 -110 -219q-70 -59 -159 -87t-161 -28q-16 0 -22 2q-53 0 -112.5 14.5t-114 41t-99.5 65.5t-69 88z" />
<glyph unicode="t" horiz-adv-x="819" d="M86 846v246h166v530h246v-530h241v-246h-241v-844h-246v844h-166z" />
<glyph unicode="u" horiz-adv-x="1380" d="M164 465v518h246v-518q0 -162 73 -225q66 -53 205 -54h2q94 0 149.5 27t84 68t38 90t9.5 94v518h246v-518q0 -127 -41 -232q-41 -104 -121 -172q-68 -59 -161 -89.5t-204 -30.5h-2q-231 0 -362 112q-162 137 -162 412z" />
<glyph unicode="v" horiz-adv-x="1148" d="M37 911l217 115l326 -608l325 608l215 -115l-540 -1013z" />
<glyph unicode="w" horiz-adv-x="1835" d="M61 909l222 107l272 -559l360 608l363 -608l272 559l222 -107l-474 -968l-383 643l-383 -643z" />
<glyph unicode="x" horiz-adv-x="1112" d="M76 106l323 398l-295 362l191 156l262 -324l260 324l193 -156l-295 -362l321 -398l-190 -155l-289 358l-289 -358z" />
<glyph unicode="y" horiz-adv-x="1359" d="M78 901l219 113l385 -746l412 748l215 -117l-770 -1401l-215 119l215 391z" />
<glyph unicode="z" horiz-adv-x="1282" d="M61 0l615 737h-445v246h969l-614 -737h497v-246h-1022z" />
<glyph unicode="{" horiz-adv-x="774" d="M63 588v246h119q10 0 20.5 11t10.5 29v512q0 59 22.5 111.5t61.5 91.5t90 61.5t111 22.5h161v-246h-161q-16 0 -27.5 -12t-11.5 -29v-512q0 -47 -13.5 -88t-35.5 -75q23 -35 36 -76t13 -88v-506q0 -16 11 -28.5t28 -12.5h161v-246h-161q-59 0 -110.5 22.5t-90.5 61.5 t-61.5 91.5t-22.5 111.5v506q0 18 -10 29.5t-21 11.5h-119z" />
<glyph unicode="|" horiz-adv-x="608" d="M180 -291v2003h246v-2003h-246z" />
<glyph unicode="}" horiz-adv-x="811" d="M131 0h162q16 0 27.5 12.5t11.5 28.5v506q0 90 51 164q-51 74 -51 163v512q0 16 -11.5 28.5t-27.5 12.5h-162v246h162q59 0 111.5 -22.5t90 -61.5t60.5 -91t23 -112v-512q0 -18 11 -29t21 -11h119v-246h-119q-10 0 -21 -11.5t-11 -29.5v-506q0 -59 -23 -111.5 t-60.5 -91.5t-90 -61.5t-111.5 -22.5h-162v246z" />
<glyph unicode="~" horiz-adv-x="1007" d="M70 1102q16 16 37.5 40.5t35.5 41.5q41 45 97.5 67.5t117.5 24.5h2q61 0 119 -23.5t101 -66.5l24 -25q10 -12 22.5 -15t20.5 -3q6 0 18.5 3t24.5 15q14 14 30.5 32.5t29.5 33.5l188 -156q-6 -10 -28.5 -35.5t-45.5 -48.5q-45 -43 -100.5 -66.5t-116.5 -23.5 q-63 0 -118.5 23.5t-98.5 66.5l-24 25q-18 18 -46 18q-8 0 -19 -3t-22 -13q-8 -8 -24 -27.5t-37 -44.5z" />
<glyph unicode="&#xa1;" horiz-adv-x="675" d="M168 1432q0 74 52 126t128 52q74 0 126 -52.5t52 -125.5q0 -76 -52 -128.5t-126 -52.5q-76 0 -128 52.5t-52 128.5zM225 -2v1087h246v-1087h-246z" />
<glyph unicode="&#xa2;" horiz-adv-x="1122" d="M84 793q0 111 42 211t120 178q55 57 122.5 94t143.5 53v254h246v-252q154 -35 268 -149l-174 -172q-88 88 -215 88q-63 0 -119.5 -24.5t-97.5 -65.5t-65.5 -96.5t-24.5 -118.5t24.5 -120t65.5 -97.5t97 -65.5t120 -25q61 0 116.5 23.5t98.5 66.5l174 -174 q-117 -113 -268 -147v-254h-246v254q-154 35 -266 147q-78 78 -120 179.5t-42 212.5z" />
<glyph unicode="&#xa3;" horiz-adv-x="1308" d="M129 113q0 86 61 176q23 31 61 68.5t97 66.5q57 27 115 29q20 55 12 102h-164h-63v246h63h15q-49 68 -88 147.5t-39 184.5v4q0 98 36.5 185t104.5 155q68 70 155 105.5t185 35.5h8q96 0 183 -36t157 -105q68 -68 104.5 -155t36.5 -185h-245q0 49 -18.5 92t-51.5 74.5 t-75 50t-91 18.5h-8q-49 0 -91 -18.5t-75 -50t-51.5 -74.5t-18.5 -92v-4q0 -61 35 -119t82 -121q37 -47 68 -92h270h41v-246h-41h-176q2 -45 -4 -96q-6 -43 -21 -76q12 -10 24.5 -19.5t25.5 -19.5l131 -117q29 -25 62.5 -27.5t49.5 17.5l185 -164q-45 -51 -103.5 -75.5 t-124.5 -24.5q-61 0 -121.5 22.5t-111.5 69.5l-129 115q-55 47 -88 47t-43 -4q-35 -16 -56.5 -47t-23.5 -45v2h-246z" />
<glyph unicode="&#xa4;" horiz-adv-x="1415" d="M137 330l142 143q-33 57 -50.5 119.5t-17.5 130.5q0 139 72 254l-142 141l174 174l142 -141q57 33 119.5 50.5t130.5 17.5q66 0 129 -17.5t120 -50.5l142 141l174 -174l-142 -141q72 -115 72 -254q0 -68 -17.5 -130.5t-49.5 -119.5l141 -143l-172 -172l-143 141 q-115 -72 -254 -72t-254 72l-144 -141zM457 723q0 -51 19.5 -97t53 -80t80 -53.5t97.5 -19.5t97 19.5t80 53.5t53 80t19 97t-19 97t-53 80t-80 53.5t-97 19.5t-97.5 -19.5t-80 -53.5t-53 -80t-19.5 -97z" />
<glyph unicode="&#xa5;" horiz-adv-x="1699" d="M80 1481l196 147l572 -770l573 770l197 -147l-332 -447h180v-246h-362l-76 -100h438v-246h-495v-442h-246v442h-487v246h430l-74 100h-356v246h174z" />
<glyph unicode="&#xa8;" horiz-adv-x="1705" d="M393 1378q0 76 52.5 128.5t125.5 52.5q76 0 128.5 -52.5t52.5 -128.5q0 -74 -52.5 -126t-128.5 -52q-74 0 -126 52.5t-52 125.5zM969 1378q0 76 52 128.5t126 52.5q76 0 128 -52.5t52 -128.5q0 -74 -52 -126t-128 -52q-74 0 -126 52.5t-52 125.5z" />
<glyph unicode="&#xa9;" horiz-adv-x="858" d="M80 1255q0 74 27.5 137.5t74.5 111.5t111.5 76t136.5 28q74 0 137.5 -28t111.5 -76t75.5 -111.5t27.5 -137.5q0 -72 -27.5 -136t-75.5 -111t-111.5 -75t-137.5 -28q-72 0 -136.5 28t-111.5 75t-74.5 111.5t-27.5 135.5zM182 1255q0 -51 19.5 -96t53.5 -78.5t79 -53 t96 -19.5t97 19.5t80 53t53.5 78.5t19.5 96t-19.5 97.5t-53.5 80t-80 53t-97 19.5t-96 -19.5t-79 -53t-53.5 -79.5t-19.5 -98zM215 1255q0 45 17.5 86t47 71t69.5 47.5t87 17.5q88 0 156 -64l-74 -74q-31 35 -82 35q-49 0 -84 -34.5t-35 -84.5q0 -47 35 -81.5t84 -34.5 q51 0 82 35l74 -74q-68 -64 -156 -64q-47 0 -87 17.5t-69.5 47t-47 69.5t-17.5 85z" />
<glyph unicode="&#xad;" horiz-adv-x="1439" d="M147 512v246h1162v-246h-1162z" />
<glyph unicode="&#xae;" horiz-adv-x="868" d="M90 1255q0 72 27.5 135.5t75 111.5t110.5 76t135 28t135.5 -28t111.5 -76t75.5 -111.5t27.5 -135.5t-27.5 -135t-75.5 -110t-111.5 -75t-135.5 -28t-135 28t-110.5 75t-75 110.5t-27.5 134.5zM193 1255q0 -51 19 -95t53 -77.5t78 -53t95 -19.5t96.5 19.5t79 53t53 77.5 t19.5 95t-19.5 96.5t-53 79t-79 53t-96.5 19.5t-95 -19.5t-78 -53t-53 -78.5t-19 -97zM299 1067v385h135q61 0 111 -33q55 -42 55 -112t-51 -115q-8 -8 -21 -16l60 -78l-82 -62l-88 115h-17v-84h-102zM401 1253h33q14 0 39 9.5t25 44.5q0 29 -23.5 36t-40.5 7h-33v-97z" />
<glyph unicode="&#xb0;" horiz-adv-x="417" d="M76 1477q0 57 40 97t95 40q57 0 97 -40t40 -97q0 -55 -40 -95.5t-97 -40.5q-55 0 -95 40t-40 96zM178 1477q0 -33 33 -33q35 0 35 33q0 34 -35 34q-33 0 -33 -34z" />
<glyph unicode="&#xb4;" horiz-adv-x="567" d="M92 1284l168 371l225 -103l-168 -370z" />
<glyph unicode="&#xbf;" horiz-adv-x="1277" d="M113 518q0 111 42 211t119 178q78 78 177.5 120t210.5 42q23 0 32 -2v131h246v-461l-168 66q-57 20 -110 20q-61 0 -117 -24.5t-97.5 -65.5t-65.5 -96t-24 -119q0 -61 24 -116.5t65.5 -97.5t97 -65.5t117.5 -23.5q88 0 162.5 47t113.5 127l221 -106q-70 -141 -198 -226 q-139 -88 -299 -88q-111 0 -210.5 42t-177.5 120t-119.5 177.5t-41.5 209.5zM635 1444q0 76 52 128t126 52q76 0 128 -52t52 -128q0 -74 -52 -126t-128 -52q-74 0 -126 52t-52 126z" />
<glyph unicode="&#xc0;" horiz-adv-x="1677" d="M68 51l761 1614l766 -1614l-221 -104l-211 442h-665l-209 -442zM614 635h433l-218 457zM641 2089l225 103l168 -371l-226 -102z" />
<glyph unicode="&#xc1;" horiz-adv-x="1677" d="M68 51l761 1614l766 -1614l-221 -104l-211 442h-665l-209 -442zM614 635h433l-218 457zM719 1776l168 370l225 -102l-168 -371z" />
<glyph unicode="&#xc2;" horiz-adv-x="1677" d="M68 51l761 1614l766 -1614l-221 -104l-211 442h-665l-209 -442zM412 1776l168 370l225 -102l-168 -371zM614 635h433l-218 457zM862 2044l225 102l168 -370l-225 -103z" />
<glyph unicode="&#xc3;" horiz-adv-x="1677" d="M68 51l761 1614l766 -1614l-221 -104l-211 442h-665l-209 -442zM404 1893q16 16 37.5 40.5t35.5 41.5q41 45 97.5 67.5t117.5 24.5h2q61 0 118.5 -23.5t100.5 -66.5l25 -25q10 -12 22.5 -15t20.5 -3q6 0 18.5 3t24.5 15q14 14 30.5 32.5t28.5 33.5l189 -156 q-6 -10 -28.5 -35.5t-45.5 -48.5q-45 -43 -100.5 -66.5t-116.5 -23.5q-63 0 -118.5 23.5t-98.5 66.5l-25 25q-18 18 -45 18q-8 0 -19 -3t-22 -13q-8 -8 -24.5 -27.5t-36.5 -44.5zM614 635h433l-218 457z" />
<glyph unicode="&#xc4;" horiz-adv-x="1677" d="M68 51l221 -104l209 442h665l211 -442l221 104l-766 1614zM367 1849q0 76 52 128.5t126 52.5q76 0 128 -52.5t52 -128.5q0 -74 -52 -126t-128 -52q-74 0 -126 52.5t-52 125.5zM614 635l215 457l218 -457h-433zM942 1849q0 76 52.5 128.5t125.5 52.5q76 0 128 -52.5 t52 -128.5q0 -74 -52 -126t-128 -52q-74 0 -126 52.5t-52 125.5z" />
<glyph unicode="&#xc5;" horiz-adv-x="1677" d="M68 51l221 -104l209 442h665l211 -442l221 104l-766 1614zM614 635l215 457l218 -457h-433zM702 1894q0 57 40 97.5t96 40.5q57 0 97 -40t40 -98q0 -55 -40 -95t-97 -40q-55 0 -95.5 40t-40.5 95zM805 1894q0 -33 33 -32q35 0 34 32q1 35 -34 35q-33 0 -33 -35z" />
<glyph unicode="&#xc7;" horiz-adv-x="1638" d="M117 793q0 166 65 321q61 150 176 260q113 113 263 178q76 33 155.5 48.5t163.5 15.5q170 0 322 -64q72 -33 137 -75.5t123 -100.5l-172 -174q-84 82 -188.5 125t-221.5 43q-119 0 -224.5 -45t-183 -124t-124 -184.5t-46.5 -223.5q0 -119 46.5 -224.5t124 -183.5 t183 -124t224.5 -46q117 0 221.5 43t188.5 125l172 -172q-115 -115 -260 -176q-156 -66 -322 -66t-319 66q-147 61 -263 176q-115 115 -176 262q-66 154 -65 320zM545 -377l262 494l217 -115l-262 -494z" />
<glyph unicode="&#xc8;" horiz-adv-x="1304" d="M197 0v1583h948v-246h-703v-389h680v-246h-680v-456h703v-246h-948zM455 2015l225 103l168 -371l-226 -102z" />
<glyph unicode="&#xc9;" horiz-adv-x="1304" d="M197 0v1583h948v-246h-703v-389h680v-246h-680v-456h703v-246h-948zM454 1767l168 371l225 -103l-168 -370z" />
<glyph unicode="&#xca;" horiz-adv-x="1304" d="M197 0v1583h948v-246h-703v-389h680v-246h-680v-456h703v-246h-948zM248 1776l168 370l225 -102l-168 -371zM698 2044l226 102l168 -370l-226 -103z" />
<glyph unicode="&#xcb;" horiz-adv-x="1304" d="M186 1849q0 76 52.5 128.5t126.5 52.5q76 0 128 -52.5t52 -128.5q0 -74 -52.5 -126t-127.5 -52q-74 0 -126.5 52.5t-52.5 125.5zM197 0h948v246h-703v456h680v246h-680v389h703v246h-948v-1583zM762 1849q0 76 52 128.5t126 52.5q76 0 128 -52.5t52 -128.5 q0 -74 -52 -126t-128 -52q-74 0 -126 52.5t-52 125.5z" />
<glyph unicode="&#xcc;" horiz-adv-x="675" d="M142 2015l225 103l168 -371l-226 -102zM225 0v1583h246v-1583h-246z" />
<glyph unicode="&#xcd;" horiz-adv-x="675" d="M141 1747l168 371l225 -103l-168 -370zM225 0v1583h246v-1583h-246z" />
<glyph unicode="&#xce;" horiz-adv-x="675" d="M-92 1776l168 370l225 -102l-168 -371zM225 0v1583h246v-1583h-246zM358 2044l226 102l168 -370l-226 -103z" />
<glyph unicode="&#xcf;" horiz-adv-x="675" d="M-119 1849q0 76 52.5 128.5t125.5 52.5q76 0 128.5 -52.5t52.5 -128.5q0 -74 -52.5 -126t-128.5 -52q-74 0 -126 52.5t-52 125.5zM225 0v1583h246v-1583h-246zM457 1849q0 76 52 128.5t126 52.5q76 0 128 -52.5t52 -128.5q0 -74 -52 -126t-128 -52q-74 0 -126 52.5 t-52 125.5z" />
<glyph unicode="&#xd0;" horiz-adv-x="1773" d="M41 758v246h936v-246h-936zM297 0v1583h551q168 0 317.5 -58.5t261.5 -168.5q111 -111 170.5 -254.5t59.5 -302.5q0 -164 -56.5 -307.5t-164.5 -253.5q-109 -113 -258 -175q-156 -63 -330 -63h-551zM543 246h305q125 0 228.5 41t178 113.5t115.5 174t41 224.5 q0 117 -42 215t-117.5 170.5t-178 112.5t-225.5 40h-305v-1091z" />
<glyph unicode="&#xd1;" horiz-adv-x="1863" d="M223 0v1657l1188 -1157v1083h246v-1665l-1188 1157v-1075h-246zM498 1688q16 16 37.5 40.5t35.5 41.5q41 45 97.5 67.5t117.5 24.5h2q61 0 118.5 -23.5t100.5 -66.5l25 -25q10 -12 22.5 -15t20.5 -3q6 0 18.5 3t24.5 15q14 14 30.5 32.5t28.5 33.5l189 -156 q-6 -10 -28.5 -35.5t-45.5 -48.5q-45 -43 -100.5 -66.5t-116.5 -23.5q-63 0 -118.5 23.5t-98.5 66.5l-25 25q-18 18 -45 18q-8 0 -19 -3t-22 -13q-8 -8 -24.5 -27.5t-36.5 -44.5z" />
<glyph unicode="&#xd2;" horiz-adv-x="1878" d="M113 793q0 168 65 323q61 147 178 264t265 179q156 66 323 65q168 0 324 -65q147 -61 264 -179q117 -117 178 -264q66 -156 66 -323q0 -168 -66 -324q-61 -147 -178 -264t-264 -178q-156 -66 -324 -66t-323 66q-147 61 -265 178q-117 117 -178 264q-66 156 -65 324z M358 793q0 -121 46.5 -227.5t126 -186.5t186 -126t227.5 -46t227.5 46t186.5 126t126 186.5t46 227.5t-46 227t-126 186t-186.5 126t-227.5 46t-227.5 -46t-186 -126t-126 -186.5t-46.5 -226.5zM742 2015l225 103l168 -371l-226 -102z" />
<glyph unicode="&#xd3;" horiz-adv-x="1878" d="M113 793q0 168 65 323q61 147 178 264t265 179q156 66 323 65q168 0 324 -65q147 -61 264 -179q117 -117 178 -264q66 -156 66 -323q0 -168 -66 -324q-61 -147 -178 -264t-264 -178q-156 -66 -324 -66t-323 66q-147 61 -265 178q-117 117 -178 264q-66 156 -65 324z M358 793q0 -121 46.5 -227.5t126 -186.5t186 -126t227.5 -46t227.5 46t186.5 126t126 186.5t46 227.5t-46 227t-126 186t-186.5 126t-227.5 46t-227.5 -46t-186 -126t-126 -186.5t-46.5 -226.5zM741 1747l168 371l225 -103l-168 -370z" />
<glyph unicode="&#xd4;" horiz-adv-x="1878" d="M113 793q0 168 65 323q61 147 178 264t265 179q156 66 323 65q168 0 324 -65q147 -61 264 -179q117 -117 178 -264q66 -156 66 -323q0 -168 -66 -324q-61 -147 -178 -264t-264 -178q-156 -66 -324 -66t-323 66q-147 61 -265 178q-117 117 -178 264q-66 156 -65 324z M358 793q0 -121 46.5 -227.5t126 -186.5t186 -126t227.5 -46t227.5 46t186.5 126t126 186.5t46 227.5t-46 227t-126 186t-186.5 126t-227.5 46t-227.5 -46t-186 -126t-126 -186.5t-46.5 -226.5zM535 1776l167 370l226 -102l-168 -371zM985 2044l225 102l168 -370l-225 -103z " />
<glyph unicode="&#xd5;" horiz-adv-x="1878" d="M113 793q0 168 65 323q61 147 178 264t265 179q156 66 323 65q168 0 324 -65q147 -61 264 -179q117 -117 178 -264q66 -156 66 -323q0 -168 -66 -324q-61 -147 -178 -264t-264 -178q-156 -66 -324 -66t-323 66q-147 61 -265 178q-117 117 -178 264q-66 156 -65 324z M358 793q0 -121 46.5 -227.5t126 -186.5t186 -126t227.5 -46t227.5 46t186.5 126t126 186.5t46 227.5t-46 227t-126 186t-186.5 126t-227.5 46t-227.5 -46t-186 -126t-126 -186.5t-46.5 -226.5zM504 1872q16 16 37.5 40.5t35.5 41.5q41 45 97.5 67.5t117.5 24.5h2 q61 0 118.5 -23.5t100.5 -66.5l25 -25q10 -12 22.5 -15t20.5 -3q6 0 18.5 3t24.5 15q14 14 30.5 32.5t28.5 33.5l189 -156q-6 -10 -28.5 -35.5t-45.5 -48.5q-45 -43 -100.5 -66.5t-116.5 -23.5q-63 0 -118.5 23.5t-98.5 66.5l-25 25q-18 18 -45 18q-8 0 -19 -3t-22 -13 q-8 -8 -24.5 -27.5t-36.5 -44.5z" />
<glyph unicode="&#xd6;" horiz-adv-x="1878" d="M113 793q0 168 65 323q61 147 178 264t265 179q156 66 323 65q168 0 324 -65q147 -61 264 -179q117 -117 178 -264q66 -156 66 -323q0 -168 -66 -324q-61 -147 -178 -264t-264 -178q-156 -66 -324 -66t-323 66q-147 61 -265 178q-117 117 -178 264q-66 156 -65 324z M358 793q0 -121 46.5 -227.5t126 -186.5t186 -126t227.5 -46t227.5 46t186.5 126t126 186.5t46 227.5t-46 227t-126 186t-186.5 126t-227.5 46t-227.5 -46t-186 -126t-126 -186.5t-46.5 -226.5zM487 1849q0 76 52.5 128.5t126.5 52.5q76 0 128 -52.5t52 -128.5 q0 -74 -52.5 -126t-127.5 -52q-74 0 -126.5 52.5t-52.5 125.5zM1063 1849q0 76 52 128.5t126 52.5q76 0 128 -52.5t52 -128.5q0 -74 -52 -126t-128 -52q-74 0 -126 52.5t-52 125.5z" />
<glyph unicode="&#xd7;" horiz-adv-x="1417" d="M362 594l199 197l-199 198l175 174l198 -198l199 198l174 -174l-199 -198l199 -197l-174 -174l-199 198l-198 -198z" />
<glyph unicode="&#xd8;" horiz-adv-x="1878" d="M113 793q0 168 65 323q61 147 178 264t265 179q156 66 323 65q168 0 324 -65q147 -61 264 -179q117 -117 178 -264q66 -156 66 -323q0 -168 -66 -324q-61 -147 -178 -264t-264 -178q-156 -66 -324 -66t-323 66q-147 61 -265 178q-117 117 -178 264q-66 156 -65 324z M358 793q0 -121 46.5 -227.5t126 -186.5t186 -126t227.5 -46t227.5 46t186.5 126t126 186.5t46 227.5t-46 227t-126 186t-186.5 126t-227.5 46t-227.5 -46t-186 -126t-126 -186.5t-46.5 -226.5zM383 72l897 1562l213 -123l-897 -1562z" />
<glyph unicode="&#xd9;" horiz-adv-x="1843" d="M213 707v876h246v-876q0 -20 1 -54.5t6 -74t17.5 -83.5t34.5 -85q102 -195 404 -195q301 0 403 195q23 41 35 85t17 83.5t6 73.5t1 55v876h246v-876q0 -25 -1 -70t-9 -100.5t-26.5 -118t-51.5 -123.5q-29 -55 -78 -113.5t-122.5 -105.5t-177 -77t-242.5 -30t-243 30 t-177.5 77t-122.5 105.5t-78 113.5q-33 61 -51.5 123.5t-26.5 118t-9 100.5t-1 70zM725 2015l225 103l168 -371l-226 -102z" />
<glyph unicode="&#xda;" horiz-adv-x="1843" d="M213 707v876h246v-876q0 -20 1 -54.5t6 -74t17.5 -83.5t34.5 -85q102 -195 404 -195q301 0 403 195q23 41 35 85t17 83.5t6 73.5t1 55v876h246v-876q0 -25 -1 -70t-9 -100.5t-26.5 -118t-51.5 -123.5q-29 -55 -78 -113.5t-122.5 -105.5t-177 -77t-242.5 -30t-243 30 t-177.5 77t-122.5 105.5t-78 113.5q-33 61 -51.5 123.5t-26.5 118t-9 100.5t-1 70zM725 1747l168 371l225 -103l-168 -370z" />
<glyph unicode="&#xdb;" horiz-adv-x="1843" d="M213 707v876h246v-876q0 -20 1 -54.5t6 -74t17.5 -83.5t34.5 -85q102 -195 404 -195q301 0 403 195q23 41 35 85t17 83.5t6 73.5t1 55v876h246v-876q0 -25 -1 -70t-9 -100.5t-26.5 -118t-51.5 -123.5q-29 -55 -78 -113.5t-122.5 -105.5t-177 -77t-242.5 -30t-243 30 t-177.5 77t-122.5 105.5t-78 113.5q-33 61 -51.5 123.5t-26.5 118t-9 100.5t-1 70zM498 1776l168 370l225 -102l-168 -371zM948 2044l226 102l167 -370l-225 -103z" />
<glyph unicode="&#xdc;" horiz-adv-x="1843" d="M213 707v876h246v-876q0 -20 1 -54.5t6 -74t17.5 -83.5t34.5 -85q102 -195 404 -195q301 0 403 195q23 41 35 85t17 83.5t6 73.5t1 55v876h246v-876q0 -25 -1 -70t-9 -100.5t-26.5 -118t-51.5 -123.5q-29 -55 -78 -113.5t-122.5 -105.5t-177 -77t-242.5 -30t-243 30 t-177.5 77t-122.5 105.5t-78 113.5q-33 61 -51.5 123.5t-26.5 118t-9 100.5t-1 70zM449 1849q0 76 52 128.5t126 52.5q76 0 128 -52.5t52 -128.5q0 -74 -52.5 -126t-127.5 -52q-74 0 -126 52.5t-52 125.5zM1024 1849q0 76 52 128.5t126 52.5q76 0 128 -52.5t52 -128.5 q0 -74 -52 -126t-128 -52q-74 0 -126 52.5t-52 125.5z" />
<glyph unicode="&#xdd;" horiz-adv-x="1761" d="M92 1499l197 148l592 -791l594 791l196 -148l-667 -889v-610h-246v610zM684 1747l168 371l225 -103l-168 -370z" />
<glyph unicode="&#xdf;" horiz-adv-x="1425" d="M178 6v1200q0 242 113 379q115 133 297 137h4h39q88 0 164.5 -32.5t134 -90t90.5 -134t33 -165.5q0 -74 -24.5 -140t-67.5 -122q31 -18 59 -39.5t55 -48.5q86 -86 130 -193.5t44 -228.5t-44 -228t-130 -194q-86 -86 -194.5 -130t-227.5 -44h-35v246h35q72 0 135.5 27.5 t111.5 75t76 112t28 135.5q0 74 -28 137.5t-76 110.5t-111.5 75t-135.5 28h-88v245h33h33q37 0 68.5 14.5t56 38t38 55.5t13.5 68q0 74 -51 125.5t-125 51.5h-37q-76 0 -115 -50q-55 -66 -55 -221v-1200h-246z" />
<glyph unicode="&#xe0;" horiz-adv-x="1380" d="M82 489q0 109 40 205.5t116 173.5q76 76 173 116t203 40q109 0 205 -40t174 -116q6 -8 19 -20v135h245v-983h-245v133q-4 -4 -9.5 -10t-9.5 -10q-78 -76 -174 -116t-205 -40q-106 0 -203.5 40t-172.5 116q-76 76 -116 173t-40 203zM328 489q0 -59 22.5 -111t61.5 -91 t91 -61.5t111 -22.5t112.5 22.5t92.5 61.5t61.5 91t22.5 111t-22.5 112.5t-61.5 92.5t-92 61.5t-113 22.5q-59 0 -111 -22.5t-91 -61.5t-61.5 -92t-22.5 -113zM494 1552l225 103l168 -371l-226 -102z" />
<glyph unicode="&#xe1;" horiz-adv-x="1380" d="M82 489q0 109 40 205.5t116 173.5q76 76 173 116t203 40q109 0 205 -40t174 -116q6 -8 19 -20v135h245v-983h-245v133q-4 -4 -9.5 -10t-9.5 -10q-78 -76 -174 -116t-205 -40q-106 0 -203.5 40t-172.5 116q-76 76 -116 173t-40 203zM328 489q0 -59 22.5 -111t61.5 -91 t91 -61.5t111 -22.5t112.5 22.5t92.5 61.5t61.5 91t22.5 111t-22.5 112.5t-61.5 92.5t-92 61.5t-113 22.5q-59 0 -111 -22.5t-91 -61.5t-61.5 -92t-22.5 -113zM493 1284l168 371l225 -103l-168 -370z" />
<glyph unicode="&#xe2;" horiz-adv-x="1380" d="M82 489q0 109 40 205.5t116 173.5q76 76 173 116t203 40q109 0 205 -40t174 -116q6 -8 19 -20v135h245v-983h-245v133q-4 -4 -9.5 -10t-9.5 -10q-78 -76 -174 -116t-205 -40q-106 0 -203.5 40t-172.5 116q-76 76 -116 173t-40 203zM211 1305l168 370l225 -102l-168 -371z M328 489q0 -59 22.5 -111t61.5 -91t91 -61.5t111 -22.5t112.5 22.5t92.5 61.5t61.5 91t22.5 111t-22.5 112.5t-61.5 92.5t-92 61.5t-113 22.5q-59 0 -111 -22.5t-91 -61.5t-61.5 -92t-22.5 -113zM662 1573l225 102l168 -370l-226 -103z" />
<glyph unicode="&#xe3;" horiz-adv-x="1380" d="M82 489q0 109 40 205.5t116 173.5q76 76 173 116t203 40q109 0 205 -40t174 -116q6 -8 19 -20v135h245v-983h-245v133q-4 -4 -9.5 -10t-9.5 -10q-78 -76 -174 -116t-205 -40q-106 0 -203.5 40t-172.5 116q-76 76 -116 173t-40 203zM256 1389q16 16 37.5 40.5t35.5 41.5 q41 45 97.5 67.5t117.5 24.5h2q61 0 118.5 -23.5t100.5 -66.5l25 -25q10 -12 22.5 -15t20.5 -3q6 0 18.5 3t24.5 15q14 14 30.5 32.5t28.5 33.5l189 -156q-6 -10 -28.5 -35.5t-45.5 -48.5q-45 -43 -100.5 -66.5t-116.5 -23.5q-63 0 -118.5 23.5t-98.5 66.5l-25 25 q-18 18 -45 18q-8 0 -19 -3t-22 -13q-8 -8 -24.5 -27.5t-36.5 -44.5zM328 489q0 -59 22.5 -111t61.5 -91t91 -61.5t111 -22.5t112.5 22.5t92.5 61.5t61.5 91t22.5 111t-22.5 112.5t-61.5 92.5t-92 61.5t-113 22.5q-59 0 -111 -22.5t-91 -61.5t-61.5 -92t-22.5 -113z" />
<glyph unicode="&#xe4;" horiz-adv-x="1380" d="M82 489q0 -106 40 -203.5t116 -172.5q76 -76 173 -116t203 -40q109 0 205 40t174 116q4 4 9.5 10t9.5 10v-133h245v983h-245v-135q-12 12 -19 20q-78 76 -174 116t-205 40q-106 0 -203.5 -40t-172.5 -116q-76 -78 -116 -174t-40 -205zM201 1378q0 76 52 128.5t126 52.5 q76 0 128 -52.5t52 -128.5q0 -74 -52 -126t-128 -52q-74 0 -126 52.5t-52 125.5zM328 489q0 59 22.5 112.5t61.5 92.5t91 61.5t111 22.5t112.5 -22.5t92.5 -61.5t61.5 -92t22.5 -113q0 -59 -22.5 -111t-61.5 -91t-92.5 -61.5t-112.5 -22.5t-111 22.5t-91 61.5t-61.5 91 t-22.5 111zM776 1378q0 76 52.5 128.5t125.5 52.5q76 0 128.5 -52.5t52.5 -128.5q0 -74 -52.5 -126t-128.5 -52q-74 0 -126 52.5t-52 125.5z" />
<glyph unicode="&#xe5;" horiz-adv-x="1380" d="M82 489q0 -106 40 -203.5t116 -172.5q76 -76 173 -116t203 -40q109 0 205 40t174 116q4 4 9.5 10t9.5 10v-133h245v983h-245v-135q-12 12 -19 20q-78 76 -174 116t-205 40q-106 0 -203.5 -40t-172.5 -116q-76 -78 -116 -174t-40 -205zM328 489q0 59 22.5 112.5t61.5 92.5 t91 61.5t111 22.5t112.5 -22.5t92.5 -61.5t61.5 -92t22.5 -113q0 -59 -22.5 -111t-61.5 -91t-92.5 -61.5t-112.5 -22.5t-111 22.5t-91 61.5t-61.5 91t-22.5 111zM498 1413q0 57 40 97t95 40q57 0 97 -40t40 -97q0 -55 -40 -95t-97 -40q-55 0 -95 40t-40 95zM600 1413 q0 -33 33 -33q35 0 35 33q0 35 -35 35q-33 0 -33 -35z" />
<glyph unicode="&#xe7;" horiz-adv-x="1122" d="M111 492q0 106 39.5 202.5t113.5 171.5q76 76 172 115t203 39q106 0 202.5 -39t172.5 -115l-174 -174q-82 82 -201 82q-59 0 -110.5 -22.5t-89.5 -60.5t-60.5 -90t-22.5 -109q0 -59 22.5 -110.5t60.5 -89.5t89.5 -60.5t110.5 -22.5q119 0 201 82l174 -174 q-76 -76 -172.5 -115t-202.5 -39t-202.5 39t-172.5 115q-74 76 -113.5 172t-39.5 203zM266 -289l262 494l217 -115l-262 -493z" />
<glyph unicode="&#xe8;" d="M109 489q0 111 39.5 207.5t117.5 173.5q76 78 173.5 118t205.5 40q111 0 209 -42t172 -115.5t116 -172t42 -209.5v-112h-830q35 -88 114 -143.5t177 -55.5q86 0 157.5 42t115.5 114l194 -113q-72 -121 -192 -194q-128 -74 -275 -74q-109 0 -206 40t-173 118 q-78 76 -117.5 173t-39.5 205zM354 602h584q-35 88 -114 144.5t-179 56.5q-98 0 -177 -56.5t-114 -144.5zM449 1552l225 103l168 -371l-226 -102z" />
<glyph unicode="&#xe9;" d="M109 489q0 111 39.5 207.5t117.5 173.5q76 78 173.5 118t205.5 40q111 0 209 -42t172 -115.5t116 -172t42 -209.5v-112h-830q35 -88 114 -143.5t177 -55.5q86 0 157.5 42t115.5 114l194 -113q-72 -121 -192 -194q-128 -74 -275 -74q-109 0 -206 40t-173 118 q-78 76 -117.5 173t-39.5 205zM354 602h584q-35 88 -114 144.5t-179 56.5q-98 0 -177 -56.5t-114 -144.5zM448 1284l168 371l225 -103l-168 -370z" />
<glyph unicode="&#xea;" d="M109 489q0 111 39.5 207.5t117.5 173.5q76 78 173.5 118t205.5 40q111 0 209 -42t172 -115.5t116 -172t42 -209.5v-112h-830q35 -88 114 -143.5t177 -55.5q86 0 157.5 42t115.5 114l194 -113q-72 -121 -192 -194q-128 -74 -275 -74q-109 0 -206 40t-173 118 q-78 76 -117.5 173t-39.5 205zM211 1305l168 370l225 -102l-168 -371zM354 602h584q-35 88 -114 144.5t-179 56.5q-98 0 -177 -56.5t-114 -144.5zM662 1573l225 102l168 -370l-226 -103z" />
<glyph unicode="&#xeb;" d="M109 489q0 111 39.5 207.5t117.5 173.5q76 78 173.5 118t205.5 40q111 0 209 -42t172 -115.5t116 -172t42 -209.5v-112h-830q35 -88 114 -143.5t177 -55.5q86 0 157.5 42t115.5 114l194 -113q-72 -121 -192 -194q-128 -74 -275 -74q-109 0 -206 40t-173 118 q-78 76 -117.5 173t-39.5 205zM186 1378q0 76 52.5 128.5t126.5 52.5q76 0 128 -52.5t52 -128.5q0 -74 -52.5 -126t-127.5 -52q-74 0 -126.5 52.5t-52.5 125.5zM354 602h584q-35 88 -114 144.5t-179 56.5q-98 0 -177 -56.5t-114 -144.5zM762 1378q0 76 52 128.5t126 52.5 q76 0 128 -52.5t52 -128.5q0 -74 -52 -126t-128 -52q-74 0 -126 52.5t-52 125.5z" />
<glyph unicode="&#xec;" horiz-adv-x="575" d="M90 1552l225 103l168 -371l-225 -102zM164 0v983h246v-983h-246z" />
<glyph unicode="&#xed;" horiz-adv-x="575" d="M92 1284l168 371l225 -103l-168 -370zM164 0v983h246v-983h-246z" />
<glyph unicode="&#xee;" horiz-adv-x="675" d="M-72 1305l168 370l226 -102l-168 -371zM225 0v983h246v-983h-246zM379 1573l225 102l168 -370l-225 -103z" />
<glyph unicode="&#xef;" horiz-adv-x="733" d="M-106 1378q0 76 52 128.5t126 52.5q76 0 128 -52.5t52 -128.5q0 -74 -52.5 -126t-127.5 -52q-74 0 -126 52.5t-52 125.5zM225 0v983h246v-983h-246zM469 1378q0 76 52 128.5t126 52.5q76 0 128 -52.5t52 -128.5q0 -74 -52 -126t-128 -52q-74 0 -126 52.5t-52 125.5z" />
<glyph unicode="&#xf1;" horiz-adv-x="1359" d="M164 0v494v510h225v-76q139 98 307 98h2q106 0 202.5 -40t174.5 -116q76 -78 116 -174t40 -202v-494h-246v494q0 59 -22.5 111t-61.5 91t-91 61.5t-112 22.5h-2q-59 0 -111.5 -22.5t-91 -61.5t-61 -91t-22.5 -111v-494h-21h-225zM246 1409q16 16 37.5 40.5t35.5 41.5 q41 45 97.5 67.5t117.5 24.5h2q61 0 118.5 -23.5t100.5 -66.5l25 -25q10 -12 22.5 -15t20.5 -3q6 0 18.5 3t24.5 15q14 14 30.5 32.5t28.5 33.5l189 -156q-6 -10 -28.5 -35.5t-45.5 -48.5q-45 -43 -100.5 -66.5t-116.5 -23.5q-63 0 -118.5 23.5t-98.5 66.5l-25 25 q-18 18 -45 18q-8 0 -19 -3t-22 -13q-8 -8 -24.5 -27.5t-36.5 -44.5z" />
<glyph unicode="&#xf2;" d="M109 492q0 109 39.5 206t117.5 172q76 78 173.5 118t205.5 40q109 0 206 -40t173 -118q78 -76 118 -173t40 -205q0 -109 -40 -206.5t-118 -172.5q-76 -78 -173 -118t-206 -40t-206 40t-173 118q-78 76 -117.5 173t-39.5 206zM354 492q0 -59 22.5 -112.5t62.5 -93.5 t93.5 -62.5t112.5 -22.5t112.5 22.5t93.5 62.5t62.5 93t22.5 113q0 59 -22.5 112t-62.5 93t-93.5 62.5t-112.5 22.5t-112.5 -22.5t-93.5 -62.5t-62.5 -93t-22.5 -112zM449 1552l225 103l168 -371l-226 -102z" />
<glyph unicode="&#xf3;" d="M109 492q0 109 39.5 206t117.5 172q76 78 173.5 118t205.5 40q109 0 206 -40t173 -118q78 -76 118 -173t40 -205q0 -109 -40 -206.5t-118 -172.5q-76 -78 -173 -118t-206 -40t-206 40t-173 118q-78 76 -117.5 173t-39.5 206zM354 492q0 -59 22.5 -112.5t62.5 -93.5 t93.5 -62.5t112.5 -22.5t112.5 22.5t93.5 62.5t62.5 93t22.5 113q0 59 -22.5 112t-62.5 93t-93.5 62.5t-112.5 22.5t-112.5 -22.5t-93.5 -62.5t-62.5 -93t-22.5 -112zM448 1284l168 371l225 -103l-168 -370z" />
<glyph unicode="&#xf4;" d="M109 492q0 109 39.5 206t117.5 172q76 78 173.5 118t205.5 40q109 0 206 -40t173 -118q78 -76 118 -173t40 -205q0 -109 -40 -206.5t-118 -172.5q-76 -78 -173 -118t-206 -40t-206 40t-173 118q-78 76 -117.5 173t-39.5 206zM211 1305l168 370l225 -102l-168 -371z M354 492q0 -59 22.5 -112.5t62.5 -93.5t93.5 -62.5t112.5 -22.5t112.5 22.5t93.5 62.5t62.5 93t22.5 113q0 59 -22.5 112t-62.5 93t-93.5 62.5t-112.5 22.5t-112.5 -22.5t-93.5 -62.5t-62.5 -93t-22.5 -112zM662 1573l225 102l168 -370l-226 -103z" />
<glyph unicode="&#xf5;" d="M109 492q0 109 39.5 206t117.5 172q76 78 173.5 118t205.5 40q109 0 206 -40t173 -118q78 -76 118 -173t40 -205q0 -109 -40 -206.5t-118 -172.5q-76 -78 -173 -118t-206 -40t-206 40t-173 118q-78 76 -117.5 173t-39.5 206zM211 1401q16 16 37.5 40.5t35.5 41.5 q41 45 97.5 67.5t117.5 24.5h2q61 0 118.5 -23.5t100.5 -66.5l25 -25q10 -12 22.5 -15t20.5 -3q6 0 18.5 3t24.5 15q14 14 30.5 32.5t28.5 33.5l189 -156q-6 -10 -28.5 -35.5t-45.5 -48.5q-45 -43 -100.5 -66.5t-116.5 -23.5q-63 0 -118.5 23.5t-98.5 66.5l-25 25 q-18 18 -45 18q-8 0 -19 -3t-22 -13q-8 -8 -24.5 -27.5t-36.5 -44.5zM354 492q0 -59 22.5 -112.5t62.5 -93.5t93.5 -62.5t112.5 -22.5t112.5 22.5t93.5 62.5t62.5 93t22.5 113q0 59 -22.5 112t-62.5 93t-93.5 62.5t-112.5 22.5t-112.5 -22.5t-93.5 -62.5t-62.5 -93 t-22.5 -112z" />
<glyph unicode="&#xf6;" d="M109 492q0 109 39.5 206t117.5 172q76 78 173.5 118t205.5 40q109 0 206 -40t173 -118q78 -76 118 -173t40 -205q0 -109 -40 -206.5t-118 -172.5q-76 -78 -173 -118t-206 -40t-206 40t-173 118q-78 76 -117.5 173t-39.5 206zM172 1378q0 76 52 128.5t126 52.5 q76 0 128 -52.5t52 -128.5q0 -74 -52 -126t-128 -52q-74 0 -126 52.5t-52 125.5zM354 492q0 -59 22.5 -112.5t62.5 -93.5t93.5 -62.5t112.5 -22.5t112.5 22.5t93.5 62.5t62.5 93t22.5 113q0 59 -22.5 112t-62.5 93t-93.5 62.5t-112.5 22.5t-112.5 -22.5t-93.5 -62.5 t-62.5 -93t-22.5 -112zM748 1378q0 76 52 128.5t126 52.5q76 0 128 -52.5t52 -128.5q0 -74 -52.5 -126t-127.5 -52q-74 0 -126 52.5t-52 125.5z" />
<glyph unicode="&#xf7;" horiz-adv-x="1329" d="M160 737v246h1016v-246h-1016zM489 489q0 76 52.5 128.5t126.5 52.5q76 0 128 -52.5t52 -128.5q0 -74 -52.5 -126t-127.5 -52q-74 0 -126.5 52.5t-52.5 125.5zM489 1227q0 76 52.5 128t126.5 52q76 0 128 -52t52 -128q0 -74 -52.5 -126t-127.5 -52q-74 0 -126.5 52 t-52.5 126z" />
<glyph unicode="&#xf8;" d="M94 96l901 963l181 -168l-902 -963zM109 492q0 109 39.5 206t117.5 172q76 78 173.5 118t205.5 40q109 0 206 -40t173 -118q78 -76 118 -173t40 -205q0 -109 -40 -206.5t-118 -172.5q-76 -78 -173 -118t-206 -40t-206 40t-173 118q-78 76 -117.5 173t-39.5 206zM354 492 q0 -59 22.5 -112.5t62.5 -93.5t93.5 -62.5t112.5 -22.5t112.5 22.5t93.5 62.5t62.5 93t22.5 113q0 59 -22.5 112t-62.5 93t-93.5 62.5t-112.5 22.5t-112.5 -22.5t-93.5 -62.5t-62.5 -93t-22.5 -112z" />
<glyph unicode="&#xf9;" horiz-adv-x="1380" d="M164 465v518h246v-518q0 -162 73 -225q66 -53 205 -54h2q94 0 149.5 27t84 68t38 90t9.5 94v518h246v-518q0 -127 -41 -232q-41 -104 -121 -172q-68 -59 -161 -89.5t-204 -30.5h-2q-231 0 -362 112q-162 137 -162 412zM494 1552l225 103l168 -371l-226 -102z" />
<glyph unicode="&#xfa;" horiz-adv-x="1380" d="M164 465v518h246v-518q0 -162 73 -225q66 -53 205 -54h2q94 0 149.5 27t84 68t38 90t9.5 94v518h246v-518q0 -127 -41 -232q-41 -104 -121 -172q-68 -59 -161 -89.5t-204 -30.5h-2q-231 0 -362 112q-162 137 -162 412zM493 1284l168 371l225 -103l-168 -370z" />
<glyph unicode="&#xfb;" horiz-adv-x="1380" d="M164 465v518h246v-518q0 -162 73 -225q66 -53 205 -54h2q94 0 149.5 27t84 68t38 90t9.5 94v518h246v-518q0 -127 -41 -232q-41 -104 -121 -172q-68 -59 -161 -89.5t-204 -30.5h-2q-231 0 -362 112q-162 137 -162 412zM272 1305l168 370l226 -102l-168 -371zM723 1573 l225 102l168 -370l-225 -103z" />
<glyph unicode="&#xfc;" horiz-adv-x="1380" d="M164 465v518h246v-518q0 -162 73 -225q66 -53 205 -54h2q94 0 149.5 27t84 68t38 90t9.5 94v518h246v-518q0 -127 -41 -232q-41 -104 -121 -172q-68 -59 -161 -89.5t-204 -30.5h-2q-231 0 -362 112q-162 137 -162 412zM231 1378q0 76 52.5 128.5t126.5 52.5 q76 0 128 -52.5t52 -128.5q0 -74 -52.5 -126t-127.5 -52q-74 0 -126.5 52.5t-52.5 125.5zM807 1378q0 76 52 128.5t126 52.5q76 0 128 -52.5t52 -128.5q0 -74 -52 -126t-128 -52q-74 0 -126 52.5t-52 125.5z" />
<glyph unicode="&#xfd;" horiz-adv-x="1359" d="M78 901l219 113l385 -746l412 748l215 -117l-770 -1401l-215 119l215 391zM483 1284l168 371l225 -103l-168 -370z" />
<glyph unicode="&#xff;" horiz-adv-x="1359" d="M78 901l461 -893l-215 -391l215 -119l770 1401l-215 117l-412 -748l-385 746zM213 1378q0 76 52 128.5t126 52.5q76 0 128 -52.5t52 -128.5q0 -74 -52 -126t-128 -52q-74 0 -126 52.5t-52 125.5zM788 1378q0 76 52.5 128.5t126.5 52.5q76 0 128 -52.5t52 -128.5 q0 -74 -52.5 -126t-127.5 -52q-74 0 -126.5 52.5t-52.5 125.5z" />
<glyph unicode="&#x178;" horiz-adv-x="1761" d="M92 1499l666 -889v-610h246v610l667 889l-196 148l-594 -791l-592 791zM432 1872q0 76 52.5 128t125.5 52q76 0 128.5 -52t52.5 -128q0 -74 -52.5 -126t-128.5 -52q-74 0 -126 52t-52 126zM1008 1872q0 76 52 128t126 52q76 0 128 -52t52 -128q0 -74 -52 -126t-128 -52 q-74 0 -126 52t-52 126z" />
<glyph unicode="&#x2dc;" horiz-adv-x="1003" d="M66 1102q16 16 37.5 40.5t35.5 41.5q41 45 97.5 67.5t117.5 24.5h2q61 0 118.5 -23.5t100.5 -66.5l25 -25q10 -12 22.5 -15t20.5 -3q6 0 18.5 3t24.5 15q14 14 30.5 32.5t28.5 33.5l189 -156q-6 -10 -28.5 -35.5t-45.5 -48.5q-45 -43 -100.5 -66.5t-116.5 -23.5 q-63 0 -118.5 23.5t-98.5 66.5l-25 25q-18 18 -45 18q-8 0 -19 -3t-22 -13q-8 -8 -24.5 -27.5t-36.5 -44.5z" />
<glyph unicode="&#x2000;" horiz-adv-x="1096" />
<glyph unicode="&#x2001;" horiz-adv-x="2192" />
<glyph unicode="&#x2002;" horiz-adv-x="1096" />
<glyph unicode="&#x2003;" horiz-adv-x="2192" />
<glyph unicode="&#x2004;" horiz-adv-x="730" />
<glyph unicode="&#x2005;" horiz-adv-x="548" />
<glyph unicode="&#x2006;" horiz-adv-x="365" />
<glyph unicode="&#x2007;" horiz-adv-x="365" />
<glyph unicode="&#x2008;" horiz-adv-x="274" />
<glyph unicode="&#x2009;" horiz-adv-x="438" />
<glyph unicode="&#x200a;" horiz-adv-x="121" />
<glyph unicode="&#x2010;" horiz-adv-x="1439" d="M147 512v246h1162v-246h-1162z" />
<glyph unicode="&#x2011;" horiz-adv-x="1439" d="M147 512v246h1162v-246h-1162z" />
<glyph unicode="&#x2012;" horiz-adv-x="1439" d="M147 512v246h1162v-246h-1162z" />
<glyph unicode="&#x2013;" horiz-adv-x="1531" d="M184 532v246h1162v-246h-1162z" />
<glyph unicode="&#x2014;" horiz-adv-x="1742" d="M184 532v246h1370v-246h-1370z" />
<glyph unicode="&#x2018;" horiz-adv-x="616" d="M57 1057l262 493l218 -114l-263 -494z" />
<glyph unicode="&#x2019;" horiz-adv-x="598" d="M57 1139l262 493l218 -114l-263 -494z" />
<glyph unicode="&#x201a;" horiz-adv-x="716" d="M102 -248l263 494l217 -115l-263 -493z" />
<glyph unicode="&#x201c;" horiz-adv-x="1001" d="M57 1057l262 493l218 -114l-263 -494zM446 1057l263 493l217 -114l-262 -494z" />
<glyph unicode="&#x201d;" horiz-adv-x="1005" d="M57 1139l262 493l218 -114l-263 -494zM446 1139l263 493l217 -114l-262 -494z" />
<glyph unicode="&#x201e;" horiz-adv-x="1030" d="M41 -248l262 494l217 -115l-262 -493zM471 -248l262 494l217 -115l-262 -493z" />
<glyph unicode="&#x2022;" horiz-adv-x="727" d="M205 805q0 76 52 128t126 52q76 0 128 -52t52 -128q0 -74 -52 -126t-128 -52q-74 0 -126 52t-52 126z" />
<glyph unicode="&#x2026;" horiz-adv-x="1812" d="M164 150q0 76 52 128t126 52q76 0 128 -52t52 -128q0 -74 -52 -126.5t-128 -52.5q-74 0 -126 52.5t-52 126.5zM735 150q0 76 52.5 128t125.5 52q76 0 128.5 -52t52.5 -128q0 -74 -52.5 -126.5t-128.5 -52.5q-74 0 -126 52.5t-52 126.5zM1311 150q0 76 52 128t126 52 q76 0 128 -52t52 -128q0 -74 -52 -126.5t-128 -52.5q-74 0 -126 52.5t-52 126.5z" />
<glyph unicode="&#x202f;" horiz-adv-x="438" />
<glyph unicode="&#x205f;" horiz-adv-x="548" />
<glyph unicode="&#x20ac;" horiz-adv-x="1775" d="M70 514v246h215q-2 8 -2 16v17q0 20 2 30h-215v246h262q4 10 8 21.5t8 23.5q61 145 176 260t262 176q154 66 320 66t319 -66q147 -61 263 -176l-175 -172q-82 82 -186 125t-221 43q-166 0 -299 -83t-207 -218h754v-246h-824q-2 -10 -2 -30q0 -8 1 -16.5t1 -16.5h824v-246 h-752q74 -135 207 -217t297 -82q117 0 221.5 44t185.5 126l175 -174q-115 -115 -263 -176q-154 -66 -319 -66q-166 0 -320 66q-147 61 -262 176t-176 262q-10 23 -16 41h-262z" />
<glyph unicode="&#x2122;" horiz-adv-x="1347" d="M72 1479v102h456v-102h-178v-500h-102v500h-176zM481 997l150 611l246 -459l245 461l152 -615l-98 -24l-89 354l-210 -393l-209 393l-88 -352z" />
<glyph unicode="&#x25fc;" horiz-adv-x="1024" d="M0 0v1024h1024v-1024h-1024z" />
</font>
</defs>
</svg>
