<?xml version="1.0" standalone="no"?>
<!DOCTYPE svg PUBLIC "-//W3C//DTD SVG 1.1//EN" "http://www.w3.org/Graphics/SVG/1.1/DTD/svg11.dtd" >
<svg xmlns="http://www.w3.org/2000/svg">
<metadata></metadata>
<defs>
<font id="typograph_proextrabold" horiz-adv-x="1878" >
<font-face units-per-em="2048" ascent="1536" descent="-512" />
<missing-glyph horiz-adv-x="819" />
<glyph horiz-adv-x="2048" />
<glyph horiz-adv-x="2048" />
<glyph unicode="&#xd;" horiz-adv-x="819" />
<glyph unicode=" "  horiz-adv-x="819" />
<glyph unicode="&#x09;" horiz-adv-x="819" />
<glyph unicode="&#xa0;" horiz-adv-x="819" />
<glyph unicode="!" horiz-adv-x="718" d="M92 221q0 53 20.5 99.5t54.5 81t80 55t99 20.5t99.5 -20.5t81 -55t55 -81t20.5 -99.5t-20.5 -99t-55 -80t-81 -54.5t-99.5 -20.5t-99 20.5t-80 54.5t-54.5 80t-20.5 99zM172 598v985h348v-985h-348z" />
<glyph unicode="&#x22;" horiz-adv-x="1169" d="M160 1079v504h348v-504h-348zM612 1079v504h349v-504h-349z" />
<glyph unicode="#" horiz-adv-x="1705" d="M313 383v348h203v121h-203v348h203v205h348v-205h123v205h348v-205h203v-348h-203v-121h203v-348h-203v-205h-348v205h-123v-205h-348v205h-203zM864 731h123v121h-123v-121z" />
<glyph unicode="$" horiz-adv-x="1476" d="M88 291l303 172q12 -20 41 -44t70 -43.5t93 -32.5t112 -13h4l6 -2q41 -4 104.5 8t122.5 43q39 18 61.5 38.5t34 39t14.5 33t3 22.5q2 25 -3 38t-16 23q-33 33 -102 56q-90 29 -205 28q-35 0 -96.5 4.5t-132.5 20.5q-186 43 -289 152q-119 125 -109 307v2q12 180 138 301 q104 100 264 141q14 4 27.5 6t27.5 6v119h348v-129l25 -6q121 -33 211 -92t139 -139l-295 -185q-10 18 -47 40t-96 38q-63 16 -130 18.5t-124 -14.5q-49 -12 -77 -29.5t-41 -36t-17 -35t-4 -26.5q-2 -23 4 -33t10 -14q29 -31 101.5 -49t162.5 -18q186 0 331.5 -51.5 t233.5 -147.5q125 -137 107 -328q-12 -133 -89 -238.5t-212 -172.5q-43 -23 -92 -40.5t-101 -27.5v-129h-348v123q-55 10 -108.5 27.5t-102.5 41.5q-90 43 -156.5 100.5t-105.5 127.5z" />
<glyph unicode="%" horiz-adv-x="2545" d="M94 1124q0 102 38 192.5t110 162.5t162 109.5t190 37.5q102 0 192.5 -38t161.5 -109q72 -72 110 -162t38 -193q0 -100 -38 -190t-110 -162t-162 -109.5t-192 -37.5q-100 0 -190.5 37.5t-161.5 109.5q-72 72 -110 162t-38 190zM420 0h440l1239 1583h-442zM442 1124 q0 -63 44 -107t108 -44q63 0 108.5 44t45.5 107t-45.5 108.5t-108.5 45.5t-107.5 -45t-44.5 -109zM1417 465q0 100 38 190t110 162t162 110t192 38q100 0 190.5 -38t161.5 -110q72 -72 110 -162t38 -190q0 -102 -38 -192.5t-110 -161.5q-72 -72 -162 -110t-190 -38 q-102 0 -192.5 38t-161.5 110q-72 72 -110 161.5t-38 192.5zM1765 465q0 -63 45 -108.5t109 -45.5q63 0 107.5 45t44.5 109q0 61 -44.5 106t-107.5 45t-108.5 -45t-45.5 -106z" />
<glyph unicode="&#x26;" horiz-adv-x="1533" d="M127 537q0 119 45 223q23 53 53.5 98t69.5 84l18.5 18.5t18.5 16.5q-57 102 -58 215q0 88 34 166t92.5 136t136 92t165.5 34t166 -34t136.5 -92t92 -136t33.5 -166q0 -86 -29.5 -164t-88.5 -137q-59 -61 -136 -94t-165 -33h-9q-47 0 -88 -18.5t-71.5 -49t-49 -71.5 t-18.5 -88t18.5 -89t49 -73t71.5 -49.5t88 -18.5t89.5 18.5t73 49.5t48 72.5t17.5 89.5h348q0 -121 -45 -226q-2 -4 -4 -9t-4 -9l153 -168l-258 -236l-133 146q-31 -18 -59 -29q-111 -47 -226 -47q-117 0 -223 47q-104 43 -184 123q-39 41 -69.5 86t-53.5 96 q-45 104 -45 226zM623 1192q0 -23 12 -41l24 -41q10 2 21.5 2h21.5h9q35 0 53 24.5t18 55.5q0 33 -22.5 56.5t-57.5 23.5q-33 0 -56 -23.5t-23 -56.5z" />
<glyph unicode="'" horiz-adv-x="933" d="M369 1079v504h348v-504h-348z" />
<glyph unicode="(" horiz-adv-x="1249" d="M117 715q0 207 80 391q39 92 92 172t125 149q137 137 319 215q186 80 391 80v-348q-135 0 -255.5 -52t-210 -141t-141.5 -209t-52 -257t52 -257t141.5 -209t210 -141.5t255.5 -52.5v-348q-205 0 -391 80q-92 37 -171 91t-148 124q-72 70 -125 149.5t-92 170.5 q-80 186 -80 393z" />
<glyph unicode=")" horiz-adv-x="1249" d="M127 55q137 0 257 52.5t209 141.5t141 209t52 257t-52 257t-141 209t-209 141t-257 52v348q207 0 391 -80q184 -78 322 -215q137 -137 215 -321q80 -184 80 -391t-80 -393q-39 -90 -92.5 -170t-122.5 -150q-141 -141 -322 -215q-184 -80 -391 -80v348z" />
<glyph unicode="*" horiz-adv-x="1282" d="M184 1081l125 76l-125 76l185 297l96 -60v113h348v-113l96 60l185 -297l-125 -76l125 -76l-185 -297l-96 60v-113h-348v113l-96 -60z" />
<glyph unicode="+" horiz-adv-x="1363" d="M150 700v349h358v354h348v-354h354v-349h-354v-356h-348v356h-358z" />
<glyph unicode="," horiz-adv-x="647" d="M23 -242l282 514l305 -168l-282 -514z" />
<glyph unicode="-" horiz-adv-x="1380" d="M188 641v348h1016v-348h-1016z" />
<glyph unicode="." horiz-adv-x="688" d="M92 221q0 53 20.5 99.5t54.5 81t80 55t99 20.5t99.5 -20.5t81 -55t55 -81t20.5 -99.5t-20.5 -99t-55 -80t-81 -54.5t-99.5 -20.5t-99 20.5t-80 54.5t-54.5 80t-20.5 99z" />
<glyph unicode="/" horiz-adv-x="1382" d="M45 0l911 1583h402l-912 -1583h-401z" />
<glyph unicode="0" horiz-adv-x="1595" d="M106 793q0 162 48.5 310t140.5 267q92 121 219 189q135 74 285 73q150 0 284 -73q123 -68 220 -189q92 -119 140 -267.5t48 -309.5q0 -162 -48 -310.5t-140 -265.5q-94 -123 -220 -190q-68 -35 -139 -54.5t-145 -19.5q-76 0 -146.5 19.5t-138.5 54.5q-127 68 -219 190 q-92 117 -140.5 265.5t-48.5 310.5zM455 793q0 -102 29.5 -196.5t84.5 -166.5q49 -61 107.5 -95t122.5 -34q61 0 120.5 34t106.5 95q55 72 86 166t31 197q0 104 -31 197t-86 165q-47 63 -106.5 96t-120.5 33q-129 0 -230 -129q-55 -72 -84.5 -165t-29.5 -197z" />
<glyph unicode="1" horiz-adv-x="804" d="M131 1235v348h490v-1583h-349v1235h-141z" />
<glyph unicode="2" horiz-adv-x="1460" d="M47 0l277 293q248 264 384 408.5t160 170.5q4 4 5 6.5t6 6.5q10 10 24.5 27.5t27.5 39t22.5 47t9.5 56.5q0 45 -17.5 84t-46.5 67.5t-68.5 46t-85.5 17.5q-74 0 -132 -44t-76 -116q-6 -29 -7 -55h-348q0 72 19 143q25 92 77 170t123.5 133t159.5 86t184 31q117 0 222 -43 q100 -43 178 -121t121 -180q45 -102 45 -219v-2q0 -80 -21.5 -146.5t-50.5 -118t-57.5 -86t-44.5 -53.5l-7 -6l-4 -6l-4 -2q-4 -6 -28.5 -31.5t-61.5 -64.5t-83 -88.5t-95 -102.5h403v-348h-1210z" />
<glyph unicode="3" horiz-adv-x="1478" d="M109 371l329 110q29 -86 108 -132t193 -46q53 0 101.5 20.5t84.5 56.5t56 83t20 102q0 53 -20 101.5t-56 84t-84 56t-102 20.5q-23 0 -45 -4t-51 -12l-362 -88l286 512h-360v348h1024l-303 -438l49 -19q111 -47 194 -131q82 -82 129 -192q49 -115 50 -238 q0 -125 -50 -237q-45 -106 -129 -195q-88 -86 -194 -131q-117 -47 -238 -47q-227 0 -399 113q-170 113 -231 303z" />
<glyph unicode="4" horiz-adv-x="1585" d="M98 199v338l871 1048h370v-1038h213v-348h-213v-199h-348v199h-893zM559 547h432v520z" />
<glyph unicode="5" horiz-adv-x="1411" d="M111 332l321 137q31 -74 97.5 -118t146.5 -44q55 0 103 20.5t84 57.5t56.5 85t20.5 103t-20.5 103.5t-56.5 84.5t-84 56.5t-103 20.5q-27 0 -55.5 -8.5t-53 -18.5t-42 -20.5t-23.5 -12.5l-277 -145v950h893v-348h-545v-57q47 8 103 8q123 0 239 -47q113 -51 195 -133 q86 -86 131 -195q25 -57 36 -116.5t11 -121.5q0 -131 -47 -239q-45 -109 -131 -195q-84 -84 -195 -131q-114 -49 -239 -49q-92 0 -178 26.5t-160 76t-132.5 118t-94.5 152.5z" />
<glyph unicode="6" horiz-adv-x="1411" d="M121 543q0 133 55 250h-2l2 2l19 36l389 752h393l-236 -455q49 -4 97.5 -14t95.5 -31q53 -23 99 -54.5t87 -72.5q84 -84 125 -184q47 -113 47 -229q0 -117 -47 -228q-43 -104 -125 -186q-80 -80 -186 -127q-113 -45 -227 -45q-59 0 -117 11.5t-113 33.5q-100 45 -186 127 q-41 41 -72 87t-53 99q-23 53 -34 110.5t-11 117.5zM469 543q0 -49 18.5 -92t51 -76t76 -51.5t92.5 -18.5t92 18.5t75.5 51.5t51 76t18.5 92t-18.5 92t-51 75.5t-75.5 51t-92 18.5q-66 0 -120.5 -30.5t-84.5 -81.5l-15 -27q-18 -47 -18 -98z" />
<glyph unicode="7" horiz-adv-x="1501" d="M94 1235v348h1358l-913 -1583h-402l713 1235h-756z" />
<glyph unicode="8" horiz-adv-x="1388" d="M117 535q0 115 47 225q43 104 123 184q10 10 19 17.5t20 17.5q-59 96 -60 215q0 88 34 167t92.5 137t136 92t165.5 34t167 -34t137.5 -92t92 -137t33.5 -167q0 -59 -15 -113.5t-44 -101.5q10 -10 19.5 -17.5t19.5 -17.5q80 -80 123 -184q45 -104 45 -225t-45 -226 q-43 -102 -123 -182q-78 -78 -184 -125q-113 -45 -226 -45q-115 0 -223 45q-106 47 -184 125q-80 80 -123 182q-47 111 -47 226zM465 535q0 -47 18.5 -89.5t49 -73t72.5 -49t89 -18.5t89 18.5t73 49t49.5 72.5t18.5 90q0 47 -18.5 89t-49.5 72.5t-73 49t-89 18.5t-89 -18.5 t-72.5 -49t-49 -72.5t-18.5 -89zM582 1194q0 -47 32.5 -80t79.5 -33t81 33t34 80t-34 81t-81 34t-79.5 -34t-32.5 -81z" />
<glyph unicode="9" horiz-adv-x="1361" d="M94 1047q0 59 11.5 116.5t33.5 110.5q23 53 53.5 99t71.5 87t87 72t100 53q113 47 229 47q117 0 227 -47q104 -43 187 -125q82 -82 125 -186q47 -111 47 -227q0 -133 -56 -250l-2 -2q-6 -18 -18 -37l-391 -758h-393l239 461q-102 6 -194 45q-104 47 -187 125 q-78 82 -125 186q-45 109 -45 230zM442 1047q0 -49 18.5 -92.5t51.5 -76t76 -51t92 -18.5q66 0 119 30.5t84 82.5l14 26q20 51 21 99q0 49 -18.5 92t-51.5 75.5t-76 51t-92 18.5t-92 -18.5t-76 -51t-51.5 -75.5t-18.5 -92z" />
<glyph unicode=":" horiz-adv-x="868" d="M197 461q0 49 19.5 93t51 77t75.5 52t93 19t93 -19t77 -52t52.5 -77t19.5 -93t-19.5 -93t-52.5 -76t-77 -51.5t-93 -19.5t-93 19.5t-75.5 51.5t-51 76t-19.5 93zM197 1098q0 49 19.5 93t51 76.5t75.5 52t93 19.5t93 -19.5t77 -52t52.5 -76.5t19.5 -93t-19.5 -93 t-52.5 -76t-77 -51.5t-93 -19.5t-93 19.5t-75.5 51.5t-51 76t-19.5 93z" />
<glyph unicode=";" horiz-adv-x="835" d="M160 207l190 473l322 -131l-189 -473zM186 1104q0 49 19.5 93t51.5 77t76 52.5t93 19.5t93 -19.5t77 -52.5t52.5 -77t19.5 -93t-19.5 -93t-52.5 -76t-77 -51.5t-93 -19.5t-93 19.5t-76 51.5t-51.5 76t-19.5 93z" />
<glyph unicode="&#x3c;" horiz-adv-x="1048" d="M63 766l545 545l246 -246l-299 -299l299 -299l-246 -246z" />
<glyph unicode="=" horiz-adv-x="1357" d="M166 305v348h1016v-348h-1016zM166 764v348h1016v-348h-1016z" />
<glyph unicode="&#x3e;" horiz-adv-x="1103" d="M250 467l299 299l-299 299l246 246l544 -545l-544 -545z" />
<glyph unicode="?" horiz-adv-x="1282" d="M53 1335q37 68 93.5 122t127.5 95q143 78 314 78q117 0 221 -37t188 -108q86 -74 136 -170q51 -106 51 -217q0 -109 -51 -217q-51 -98 -136 -168q-78 -68 -178 -106t-211 -42v-98h-348v539l227 -76q53 -16 101 -17q49 0 94 14.5t79 40t54.5 59.5t20.5 71t-20.5 70.5 t-54.5 59t-79 40t-94 14.5q-76 0 -138.5 -31.5t-93.5 -85.5zM213 174q0 49 19.5 93t51 77t75.5 52.5t94 19.5q49 0 93 -19.5t76.5 -52.5t52 -77t19.5 -93t-19.5 -93t-52 -76t-76.5 -51.5t-93 -19.5t-93.5 19.5t-76 51.5t-51 76t-19.5 93z" />
<glyph unicode="@" horiz-adv-x="1705" d="M41 791q0 162 63 317q63 147 177 258q111 113 258 176q156 63 317 64q162 0 318 -64q147 -63 258 -176q57 -55 100 -120.5t74 -137.5q66 -154 65 -317q0 -98 -28.5 -185.5t-81.5 -142.5q-27 -29 -57.5 -50.5t-65.5 -33.5t-73 -16.5t-73 4.5q-115 23 -172 131l-12 -13 q-57 -57 -139 -90q-82 -35 -168 -35q-90 0 -168 34t-136.5 92.5t-92 137t-33.5 167.5q0 180 125 305q59 59 138 92t167 33q90 0 168 -33q70 -29 123 -76v39h204v-543q0 -4 2 -6q12 -29 35 -35q16 -4 38 5.5t38 29.5q23 23 40 73t17 116q0 125 -48 236.5t-131 194.5 t-194.5 131t-236.5 48q-127 0 -237.5 -48t-193.5 -131t-131 -195t-48 -236q0 -127 48 -238t131 -194t193.5 -131t237.5 -48q102 0 203 35l67 -192q-131 -47 -270 -48q-164 0 -317 66q-72 31 -137.5 74t-120.5 100q-113 111 -177 258q-63 156 -63 318zM575 791 q0 -47 17.5 -88t48.5 -72t72 -48.5t88 -17.5t90 18.5t75.5 49.5t52 71.5t19.5 86.5q0 45 -19.5 86t-52 71.5t-75.5 49t-90 18.5q-96 0 -161 -64.5t-65 -160.5z" />
<glyph unicode="A" horiz-adv-x="1789" d="M23 0l686 1583h362l688 -1583h-381l-145 338h-684l-148 -338h-378zM698 686h383l-192 438z" />
<glyph unicode="B" horiz-adv-x="1591" d="M184 0v1581h652h8q78 0 146.5 -14.5t125.5 -42.5q111 -53 172 -148q74 -111 74 -262q0 -135 -62 -235q88 -66 134.5 -162t46.5 -211q0 -111 -43 -207t-123 -166q-74 -66 -170 -99.5t-207 -33.5h-754zM532 348h406q12 0 44 4t65.5 19.5t59.5 47.5t26 87q0 43 -14.5 64.5 t-31.5 31.5q-68 51 -204 51h-351v-305zM532 1001h347q10 0 36.5 5.5t49.5 17.5t36 30.5t13 59.5q0 16 -3 36.5t-18.5 39t-50.5 31t-98 12.5h-6h-4h-302v-232z" />
<glyph unicode="C" horiz-adv-x="1595" d="M106 793q0 168 66 323q61 145 176 264q119 115 264 176q156 66 324 66q166 0 321 -66q150 -61 265 -176l-246 -247q-68 70 -155 105.5t-185 35.5q-100 0 -187 -38t-153 -103.5t-103.5 -152.5t-37.5 -187q0 -98 37.5 -186.5t103.5 -154t153 -103.5t187 -38q98 0 185 36 t155 106l246 -246q-115 -117 -265 -178q-155 -66 -321 -66q-168 0 -324 66q-74 31 -139 76t-125 102q-115 115 -176 262q-66 156 -66 324z" />
<glyph unicode="D" horiz-adv-x="1685" d="M184 0v1583h590q168 0 316.5 -58.5t261.5 -168.5q111 -111 170 -254.5t59 -304.5q0 -162 -56.5 -305.5t-164.5 -253.5q-53 -57 -118.5 -100.5t-139.5 -74.5q-156 -63 -328 -63h-590zM532 348h242q100 0 185 33t145.5 92t94.5 142t34 182q0 94 -34 175t-95.5 139 t-145.5 91t-184 33h-242v-887z" />
<glyph unicode="E" horiz-adv-x="1357" d="M180 0v1583h1012v-348h-664v-236h641v-348h-641v-303h664v-348h-1012z" />
<glyph unicode="F" horiz-adv-x="1325" d="M186 0v1583h1045v-348h-696v-303h669v-348h-669v-584h-349z" />
<glyph unicode="G" horiz-adv-x="1873" d="M106 793q0 168 66 323q31 76 76 141.5t102 122.5q57 59 124 103.5t140 75.5q148 65 319 65h5q106 0 208.5 -25.5t194.5 -78.5q90 -49 165 -119t130 -156l-290 -190q-68 104 -175.5 162.5t-232.5 58.5q-100 0 -188 -38t-154 -103.5t-103.5 -153.5t-37.5 -188t37.5 -188.5 t103.5 -154t154 -103.5t188 -38q123 0 225.5 53.5t167.5 145.5h-442v348h887q-2 -55 -3 -93t-6 -63q-4 -29 -8 -47q-25 -143 -96.5 -270t-183.5 -223q-113 -98 -252 -148.5t-289 -50.5q-174 0 -324 66q-74 31 -140 74.5t-124 103.5q-57 57 -102 122.5t-76 141.5 q-66 156 -66 324z" />
<glyph unicode="H" horiz-adv-x="1802" d="M178 0v1583h348v-539h748v539h348v-1583h-348v696h-748v-696h-348z" />
<glyph unicode="I" horiz-adv-x="698" d="M176 0v1583h348v-1583h-348z" />
<glyph unicode="J" horiz-adv-x="1374" d="M18 205l265 227l6 -6q14 -18 34.5 -38.5t49 -38t67.5 -29t95 -11.5q80 0 132 14.5t83.5 35t47 40t21.5 31.5q14 27 23.5 56.5t13.5 56t5 49t1 37.5v18v936h348v-946v-6v-8q0 -23 -2 -62t-11 -88t-26.5 -105.5t-50.5 -111.5q-29 -51 -76 -103.5t-117.5 -95.5t-166.5 -69.5 t-225 -26.5q-199 0 -347 92q-63 39 -103 80t-60 68z" />
<glyph unicode="K" horiz-adv-x="1914" d="M184 0v1583h348v-606l719 606h271h270l-801 -676l897 -907h-139h-350l-674 682l-193 -160v-522h-141h-207z" />
<glyph unicode="L" horiz-adv-x="1290" d="M184 0v1583h348v-1235h674v-348h-1022z" />
<glyph unicode="M" horiz-adv-x="2318" d="M31 0l397 1583h360l369 -1032l367 1032h215h147l404 -1583h-324h-37l-250 983l-348 -983h-348l-348 977l-244 -977h-162h-198z" />
<glyph unicode="N" horiz-adv-x="1904" d="M184 0v1583h385l803 -1046v1046h178h170v-1583h-323h-51l-814 1059v-1059h-112h-236z" />
<glyph unicode="O" d="M104 793q0 166 66 325q33 74 77 140.5t101 123.5q59 59 126 103.5t140 77.5q154 65 321 65h5q166 0 326 -65q74 -33 140.5 -77t123.5 -104q59 -57 103 -123.5t77 -140.5q66 -160 66 -325q0 -170 -66 -326q-33 -74 -77 -140.5t-103 -125.5q-57 -57 -124 -101.5t-140 -76.5 q-160 -66 -326 -66q-170 0 -326 66q-152 66 -266 178q-113 115 -178 266q-66 156 -66 326zM453 793q0 -100 38.5 -189.5t104.5 -155t155 -104.5t189 -39t189.5 39t155 104.5t104 154.5t38.5 190q0 100 -38.5 189t-104 154.5t-155 104.5t-189.5 39t-189 -39t-155 -104.5 t-104.5 -154.5t-38.5 -189z" />
<glyph unicode="P" horiz-adv-x="1462" d="M182 0v1583h584q131 0 242.5 -32.5t197.5 -98.5q100 -76 152 -184q53 -113 53 -246q0 -129 -45 -238q-45 -115 -129 -192q-86 -86 -205 -131t-256 -45h-14h-232v-416h-348zM530 764h236h2h14q135 0 211 76q70 68 70 182q0 70 -22.5 103.5t-45.5 50.5q-39 29 -98 44 t-131 15h-236v-471z" />
<glyph unicode="Q" horiz-adv-x="1904" d="M104 793q0 170 68 327q31 76 76 141.5t102 124.5q59 59 126 103.5t140 77.5q158 65 323 65h5q170 0 326 -65q154 -66 268 -181q57 -59 102.5 -124.5t75.5 -141.5q68 -158 68 -327q0 -172 -68 -326q-33 -80 -86 -156l203 -207l-250 -241l-207 211q-27 -16 -52.5 -29.5 t-53.5 -24.5q-154 -65 -321 -65h-5q-168 0 -328 65q-74 33 -140 77t-126 104q-117 117 -178 266q-68 154 -68 326zM453 793q0 -102 38.5 -191.5t105.5 -155t156 -104.5t191 -39q96 0 176 33l-270 276l250 242l280 -287q27 51 41.5 108.5t14.5 117.5q0 100 -39 190 t-105.5 156.5t-157 105.5t-190.5 39q-102 0 -191 -39t-156 -105.5t-105.5 -156.5t-38.5 -190z" />
<glyph unicode="R" horiz-adv-x="1486" d="M184 0v1583h584q135 0 246.5 -33.5t197.5 -99.5q47 -39 85 -85t63 -99q53 -113 53 -244q0 -125 -45 -238q-43 -109 -129 -192q-68 -68 -149 -107l340 -485h-152h-274l-291 416h-181v-416h-348zM532 764h236h2h14q135 0 211 76q70 70 70 182q0 213 -297 213h-236v-471z " />
<glyph unicode="S" horiz-adv-x="1527" d="M88 287l297 172q14 -25 48 -49.5t80 -45t101.5 -33t112.5 -12.5h4h6q11 -1 24 -1q39 0 90 10q67 12 132 43q113 51 123 137q2 25 -4 38t-17 23q-37 41 -112 62q-93 28 -213 28h-8q-35 0 -99.5 4.5t-140.5 20.5q-190 45 -299 154q-108 112 -108 271q0 16 1 32v2 q6 86 40 161.5t98 133.5q104 100 268 141q104 27 220 27t226 -29q127 -31 220.5 -90.5t146.5 -136.5l-291 -185q-12 18 -51 43t-109 41q-68 15 -142 17q-6 0 -11 1q-66 0 -121 -16q-53 -12 -83 -30.5t-45 -38t-19 -37t-4 -25.5q0 -23 5 -34t11 -17q31 -31 110.5 -50.5 t176.5 -19.5q197 0 347 -52t242 -150q59 -66 88 -147q22 -60 22 -127q0 -23 -3 -46q-12 -133 -92 -238.5t-219 -172.5q-86 -41 -185.5 -63.5t-193.5 -22.5h-29q-92 2 -189.5 23.5t-181.5 57.5q-92 43 -161.5 100.5t-108.5 125.5z" />
<glyph unicode="T" horiz-adv-x="1456" d="M84 1235v348h1288v-348h-471v-1235h-348v1235h-469z" />
<glyph unicode="U" horiz-adv-x="1798" d="M141 748v835h348v-835q0 -233 97.5 -337t314.5 -104t314.5 103.5t97.5 337.5v835h348v-835q0 -27 -1 -74t-10.5 -105.5t-28.5 -125t-54 -132.5q-82 -158 -240 -250q-176 -102 -426 -102t-426 102q-158 92 -239 250q-35 66 -54.5 132.5t-29 125t-10.5 105.5t-1 74z" />
<glyph unicode="V" horiz-adv-x="1832" d="M37 1583h381l497 -1110l498 1110h141h240l-709 -1583h-337z" />
<glyph unicode="W" horiz-adv-x="2562" d="M37 1583h369l350 -1018l370 1018h312l370 -1018l351 1018h366l-543 -1583h-215h-125l-360 993l-360 -993h-131h-209z" />
<glyph unicode="X" horiz-adv-x="1656" d="M29 0l583 819l-542 764h426l329 -463l330 463h309h117l-543 -764l584 -819h-311h-117l-369 518l-368 -518h-123h-305z" />
<glyph unicode="Y" horiz-adv-x="1816" d="M47 1583h424l440 -629l441 629h202h224l-693 -987v-596h-348v596z" />
<glyph unicode="Z" horiz-adv-x="1705" d="M37 0l940 1235h-723v348h1423l-938 -1235h781v-348h-1483z" />
<glyph unicode="[" horiz-adv-x="817" d="M182 -285v1997h539v-348h-191v-1301h193v-348h-541z" />
<glyph unicode="\" horiz-adv-x="1423" d="M35 1583h405l946 -1583h-405z" />
<glyph unicode="]" horiz-adv-x="823" d="M96 63h193v1301h-191v348h539v-1997h-541v348z" />
<glyph unicode="^" horiz-adv-x="1273" d="M106 1174l545 544l545 -544l-246 -246l-299 299l-299 -299z" />
<glyph unicode="_" horiz-adv-x="1705" d="M72 -51v348h1564v-348h-1564z" />
<glyph unicode="`" horiz-adv-x="657" d="M53 1526l312 155l229 -452l-311 -156z" />
<glyph unicode="a" horiz-adv-x="1789" d="M23 0l686 1583h362l688 -1583h-381l-145 338h-684l-148 -338h-378zM698 686h383l-192 438z" />
<glyph unicode="b" horiz-adv-x="1591" d="M184 0v1581h652h8q78 0 146.5 -14.5t125.5 -42.5q111 -53 172 -148q74 -111 74 -262q0 -135 -62 -235q88 -66 134.5 -162t46.5 -211q0 -111 -43 -207t-123 -166q-74 -66 -170 -99.5t-207 -33.5h-754zM532 348h406q12 0 44 4t65.5 19.5t59.5 47.5t26 87q0 43 -14.5 64.5 t-31.5 31.5q-68 51 -204 51h-351v-305zM532 1001h347q10 0 36.5 5.5t49.5 17.5t36 30.5t13 59.5q0 16 -3 36.5t-18.5 39t-50.5 31t-98 12.5h-6h-4h-302v-232z" />
<glyph unicode="c" horiz-adv-x="1595" d="M106 793q0 168 66 323q61 145 176 264q119 115 264 176q156 66 324 66q166 0 321 -66q150 -61 265 -176l-246 -247q-68 70 -155 105.5t-185 35.5q-100 0 -187 -38t-153 -103.5t-103.5 -152.5t-37.5 -187q0 -98 37.5 -186.5t103.5 -154t153 -103.5t187 -38q98 0 185 36 t155 106l246 -246q-115 -117 -265 -178q-155 -66 -321 -66q-168 0 -324 66q-74 31 -139 76t-125 102q-115 115 -176 262q-66 156 -66 324z" />
<glyph unicode="d" horiz-adv-x="1685" d="M184 0v1583h590q168 0 316.5 -58.5t261.5 -168.5q111 -111 170 -254.5t59 -304.5q0 -162 -56.5 -305.5t-164.5 -253.5q-53 -57 -118.5 -100.5t-139.5 -74.5q-156 -63 -328 -63h-590zM532 348h242q100 0 185 33t145.5 92t94.5 142t34 182q0 94 -34 175t-95.5 139 t-145.5 91t-184 33h-242v-887z" />
<glyph unicode="e" horiz-adv-x="1357" d="M180 0v1583h1012v-348h-664v-236h641v-348h-641v-303h664v-348h-1012z" />
<glyph unicode="f" horiz-adv-x="1325" d="M186 0v1583h1045v-348h-696v-303h669v-348h-669v-584h-349z" />
<glyph unicode="g" horiz-adv-x="1873" d="M106 793q0 168 66 323q31 76 76 141.5t102 122.5q57 59 124 103.5t140 75.5q148 65 319 65h5q106 0 208.5 -25.5t194.5 -78.5q90 -49 165 -119t130 -156l-290 -190q-68 104 -175.5 162.5t-232.5 58.5q-100 0 -188 -38t-154 -103.5t-103.5 -153.5t-37.5 -188t37.5 -188.5 t103.5 -154t154 -103.5t188 -38q123 0 225.5 53.5t167.5 145.5h-442v348h887q-2 -55 -3 -93t-6 -63q-4 -29 -8 -47q-25 -143 -96.5 -270t-183.5 -223q-113 -98 -252 -148.5t-289 -50.5q-174 0 -324 66q-74 31 -140 74.5t-124 103.5q-57 57 -102 122.5t-76 141.5 q-66 156 -66 324z" />
<glyph unicode="h" horiz-adv-x="1802" d="M178 0v1583h348v-539h748v539h348v-1583h-348v696h-748v-696h-348z" />
<glyph unicode="i" horiz-adv-x="698" d="M176 0v1583h348v-1583h-348z" />
<glyph unicode="j" horiz-adv-x="1374" d="M18 205l265 227l6 -6q14 -18 34.5 -38.5t49 -38t67.5 -29t95 -11.5q80 0 132 14.5t83.5 35t47 40t21.5 31.5q14 27 23.5 56.5t13.5 56t5 49t1 37.5v18v936h348v-946v-6v-8q0 -23 -2 -62t-11 -88t-26.5 -105.5t-50.5 -111.5q-29 -51 -76 -103.5t-117.5 -95.5t-166.5 -69.5 t-225 -26.5q-199 0 -347 92q-63 39 -103 80t-60 68z" />
<glyph unicode="k" horiz-adv-x="1914" d="M184 0v1583h348v-606l719 606h271h270l-801 -676l897 -907h-139h-350l-674 682l-193 -160v-522h-141h-207z" />
<glyph unicode="l" horiz-adv-x="1290" d="M184 0v1583h348v-1235h674v-348h-1022z" />
<glyph unicode="m" horiz-adv-x="2318" d="M31 0l397 1583h360l369 -1032l367 1032h215h147l404 -1583h-324h-37l-250 983l-348 -983h-348l-348 977l-244 -977h-162h-198z" />
<glyph unicode="n" horiz-adv-x="1904" d="M184 0v1583h385l803 -1046v1046h178h170v-1583h-323h-51l-814 1059v-1059h-112h-236z" />
<glyph unicode="o" d="M104 793q0 166 66 325q33 74 77 140.5t101 123.5q59 59 126 103.5t140 77.5q154 65 321 65h5q166 0 326 -65q74 -33 140.5 -77t123.5 -104q59 -57 103 -123.5t77 -140.5q66 -160 66 -325q0 -170 -66 -326q-33 -74 -77 -140.5t-103 -125.5q-57 -57 -124 -101.5t-140 -76.5 q-160 -66 -326 -66q-170 0 -326 66q-152 66 -266 178q-113 115 -178 266q-66 156 -66 326zM453 793q0 -100 38.5 -189.5t104.5 -155t155 -104.5t189 -39t189.5 39t155 104.5t104 154.5t38.5 190q0 100 -38.5 189t-104 154.5t-155 104.5t-189.5 39t-189 -39t-155 -104.5 t-104.5 -154.5t-38.5 -189z" />
<glyph unicode="p" horiz-adv-x="1462" d="M182 0v1583h584q131 0 242.5 -32.5t197.5 -98.5q100 -76 152 -184q53 -113 53 -246q0 -129 -45 -238q-45 -115 -129 -192q-86 -86 -205 -131t-256 -45h-14h-232v-416h-348zM530 764h236h2h14q135 0 211 76q70 68 70 182q0 70 -22.5 103.5t-45.5 50.5q-39 29 -98 44 t-131 15h-236v-471z" />
<glyph unicode="q" horiz-adv-x="1904" d="M104 793q0 170 68 327q31 76 76 141.5t102 124.5q59 59 126 103.5t140 77.5q158 65 323 65h5q170 0 326 -65q154 -66 268 -181q57 -59 102.5 -124.5t75.5 -141.5q68 -158 68 -327q0 -172 -68 -326q-33 -80 -86 -156l203 -207l-250 -241l-207 211q-27 -16 -52.5 -29.5 t-53.5 -24.5q-154 -65 -321 -65h-5q-168 0 -328 65q-74 33 -140 77t-126 104q-117 117 -178 266q-68 154 -68 326zM453 793q0 -102 38.5 -191.5t105.5 -155t156 -104.5t191 -39q96 0 176 33l-270 276l250 242l280 -287q27 51 41.5 108.5t14.5 117.5q0 100 -39 190 t-105.5 156.5t-157 105.5t-190.5 39q-102 0 -191 -39t-156 -105.5t-105.5 -156.5t-38.5 -190z" />
<glyph unicode="r" horiz-adv-x="1486" d="M184 0v1583h584q135 0 246.5 -33.5t197.5 -99.5q47 -39 85 -85t63 -99q53 -113 53 -244q0 -125 -45 -238q-43 -109 -129 -192q-68 -68 -149 -107l340 -485h-152h-274l-291 416h-181v-416h-348zM532 764h236h2h14q135 0 211 76q70 70 70 182q0 213 -297 213h-236v-471z " />
<glyph unicode="s" horiz-adv-x="1527" d="M88 287l297 172q14 -25 48 -49.5t80 -45t101.5 -33t112.5 -12.5h4h6q11 -1 24 -1q39 0 90 10q67 12 132 43q113 51 123 137q2 25 -4 38t-17 23q-37 41 -112 62q-93 28 -213 28h-8q-35 0 -99.5 4.5t-140.5 20.5q-190 45 -299 154q-108 112 -108 271q0 16 1 32v2 q6 86 40 161.5t98 133.5q104 100 268 141q104 27 220 27t226 -29q127 -31 220.5 -90.5t146.5 -136.5l-291 -185q-12 18 -51 43t-109 41q-68 15 -142 17q-6 0 -11 1q-66 0 -121 -16q-53 -12 -83 -30.5t-45 -38t-19 -37t-4 -25.5q0 -23 5 -34t11 -17q31 -31 110.5 -50.5 t176.5 -19.5q197 0 347 -52t242 -150q59 -66 88 -147q22 -60 22 -127q0 -23 -3 -46q-12 -133 -92 -238.5t-219 -172.5q-86 -41 -185.5 -63.5t-193.5 -22.5h-29q-92 2 -189.5 23.5t-181.5 57.5q-92 43 -161.5 100.5t-108.5 125.5z" />
<glyph unicode="t" horiz-adv-x="1456" d="M84 1235v348h1288v-348h-471v-1235h-348v1235h-469z" />
<glyph unicode="u" horiz-adv-x="1798" d="M141 748v835h348v-835q0 -233 97.5 -337t314.5 -104t314.5 103.5t97.5 337.5v835h348v-835q0 -27 -1 -74t-10.5 -105.5t-28.5 -125t-54 -132.5q-82 -158 -240 -250q-176 -102 -426 -102t-426 102q-158 92 -239 250q-35 66 -54.5 132.5t-29 125t-10.5 105.5t-1 74z" />
<glyph unicode="v" horiz-adv-x="1832" d="M37 1583h381l497 -1110l498 1110h141h240l-709 -1583h-337z" />
<glyph unicode="w" horiz-adv-x="2562" d="M37 1583h369l350 -1018l370 1018h312l370 -1018l351 1018h366l-543 -1583h-215h-125l-360 993l-360 -993h-131h-209z" />
<glyph unicode="x" horiz-adv-x="1656" d="M29 0l583 819l-542 764h426l329 -463l330 463h309h117l-543 -764l584 -819h-311h-117l-369 518l-368 -518h-123h-305z" />
<glyph unicode="y" horiz-adv-x="1816" d="M47 1583h424l440 -629l441 629h202h224l-693 -987v-596h-348v596z" />
<glyph unicode="z" horiz-adv-x="1705" d="M37 0l940 1235h-723v348h1423l-938 -1235h781v-348h-1483z" />
<glyph unicode="{" horiz-adv-x="933" d="M68 537v348h110q41 0 70 30q39 43 39 129v189q0 100 32 184q39 86 101 146q59 55 135 84.5t162 29.5h108v-348h-108q-31 0 -47.5 -12t-24.5 -27.5t-9 -32t-1 -24.5v-189q0 -201 -109 -339q53 -66 81 -143t28 -154v-209q0 -41 11 -58.5t16 -21.5q10 -10 22 -15.5t16 -5.5 h125v-348h-127q-66 0 -134 25.5t-124 72.5q-72 63 -110 146q-43 92 -43 205v209q0 16 -9.5 41.5t-31.5 48.5q-33 39 -68 39h-110z" />
<glyph unicode="|" horiz-adv-x="714" d="M184 -291v2003h348v-2003h-348z" />
<glyph unicode="}" horiz-adv-x="935" d="M121 98h125q4 0 15 5.5t24 15.5q4 4 15 21.5t11 58.5v209q0 78 28 154.5t81 142.5q-109 139 -109 339v189q0 8 -1 24.5t-9 32t-24.5 27.5t-47.5 12h-108v348h108q86 0 162 -29.5t135 -84.5q63 -61 99 -146q35 -88 34 -184v-189q0 -86 39 -129q25 -31 68 -30h113v-348 h-113q-33 0 -68 -39q-20 -23 -29.5 -48.5t-9.5 -41.5v-209q0 -113 -43 -205q-39 -82 -110 -146q-55 -47 -125 -72.5t-135 -25.5h-125v348z" />
<glyph unicode="~" horiz-adv-x="1335" d="M135 1149q23 23 50.5 46.5t43.5 37.5q57 47 128 70.5t144.5 23.5t144.5 -23.5t130 -68.5l31 -25q23 -16 57.5 -16t57.5 16q14 10 33.5 27.5t37.5 36.5l242 -250q-10 -10 -38 -35.5t-60 -50.5q-115 -92 -273 -92q-76 0 -146.5 23.5t-125.5 68.5l-31 25q-20 16 -56 17 t-54 -15q-10 -8 -31 -27.5t-47 -44.5z" />
<glyph unicode="&#xa1;" horiz-adv-x="718" d="M92 221q0 53 20.5 99.5t54.5 81t80 55t99 20.5t99.5 -20.5t81 -55t55 -81t20.5 -99.5t-20.5 -99t-55 -80t-81 -54.5t-99.5 -20.5t-99 20.5t-80 54.5t-54.5 80t-20.5 99zM172 598v985h348v-985h-348z" />
<glyph unicode="&#xa2;" horiz-adv-x="1595" d="M307 793q0 111 41 210t119 177q92 92 219 133v270h348v-274q113 -39 205 -129l-246 -248q-55 59 -139 59q-41 0 -78 -15t-63.5 -43t-42 -63.5t-15.5 -76.5q0 -84 57.5 -141.5t141.5 -57.5q82 0 139 57l246 -245q-88 -88 -205 -130v-276h-348v272q-123 37 -219 134 q-78 78 -119 177t-41 210z" />
<glyph unicode="&#xa3;" horiz-adv-x="1396" d="M23 68q0 135 79 251q74 106 195 168q80 37 166 43q2 10 2 31h-199h-80v246h80h39q-49 66 -89 146.5t-40 185.5v4q0 102 41 192t111.5 158t165 106.5t202.5 38.5h9q106 0 201 -38.5t166 -106.5t112 -158t41 -192h-348q0 31 -14.5 57.5t-38 46t-54.5 31.5t-65 12h-9 q-35 0 -65.5 -12t-54 -31.5t-38 -46t-14.5 -57.5v-4q0 -37 28 -78t77 -100q29 -35 57.5 -73t54.5 -81h275h53v-246h-53h-203q0 -35 -4 -66.5t-12 -64.5q8 -8 14 -12l2 -2l131 -109q37 -31 78 -24q53 10 92 61l270 -221q-61 -74 -140 -121t-167 -63q-16 -2 -34.5 -3.5 t-34.5 -1.5q-78 0 -150 26t-135 79l-131 108q-74 59 -146 25q-33 -16 -54 -46t-21 -58h-348z" />
<glyph unicode="&#xa4;" horiz-adv-x="1361" d="M74 367l151 153q-20 47 -31.5 98.5t-11.5 104.5q0 111 47 209l-151 151l246 246l153 -151q47 20 98.5 31.5t104.5 11.5t104.5 -11.5t98.5 -31.5l153 151l246 -246l-152 -151q47 -98 48 -209q0 -106 -45 -203l153 -153l-246 -246l-151 151q-100 -47 -209 -47 q-111 0 -209 47l-152 -151zM530 723q0 -61 44.5 -105.5t105.5 -44.5t105 44.5t44 105.5t-44 105t-105 44t-105.5 -44t-44.5 -105z" />
<glyph unicode="&#xa5;" horiz-adv-x="1816" d="M49 1583h426l438 -629l441 629h426l-428 -610h221v-246h-393l-72 -100h465v-246h-486v-381h-348v381h-477v246h457l-70 100h-387v246h215z" />
<glyph unicode="&#xa9;" horiz-adv-x="792" d="M47 1255q0 74 27.5 137.5t75 111.5t112 76t135.5 28q74 0 137.5 -28t111.5 -76t76 -111.5t28 -137.5q0 -72 -28 -136t-76 -111t-111.5 -75t-137.5 -28q-72 0 -136 28t-111.5 75t-75 111.5t-27.5 135.5zM150 1255q0 -51 19 -96t53 -78.5t79 -53t96 -19.5t97.5 19.5t80 53 t53 78.5t19.5 96t-19.5 97.5t-53 80t-80 53t-97.5 19.5t-96 -19.5t-79 -53t-53 -79.5t-19 -98zM182 1255q0 45 17.5 86t47 71t69.5 47.5t87 17.5q88 0 156 -64l-74 -74q-31 35 -82 35q-49 0 -83.5 -34.5t-34.5 -84.5q0 -47 34.5 -81.5t83.5 -34.5q51 0 82 35l74 -74 q-68 -64 -156 -64q-47 0 -87 17.5t-69.5 47t-47 69.5t-17.5 85z" />
<glyph unicode="&#xad;" horiz-adv-x="1380" d="M188 641v348h1016v-348h-1016z" />
<glyph unicode="&#xae;" horiz-adv-x="802" d="M49 1255q0 72 27.5 135.5t75 111.5t110.5 76t135 28t135.5 -28t111.5 -76t76 -111.5t28 -135.5t-28 -135t-76 -110t-111.5 -75t-135.5 -28t-135 28t-110.5 75t-75 110.5t-27.5 134.5zM152 1255q0 -51 19 -95t53 -77.5t78 -53t95 -19.5t96.5 19.5t79 53t53 77.5t19.5 95 t-19.5 96.5t-53 79t-78.5 53t-97 19.5q-51 0 -95 -19.5t-78 -53t-53 -78.5t-19 -97zM258 1067v385h135q61 0 111 -33q55 -42 55 -112t-51 -115q-8 -8 -21 -16l60 -78l-82 -62l-88 115h-17v-84h-102zM360 1253h33q14 0 39 9.5t25 44.5q0 29 -23.5 36t-40.5 7h-33v-97z" />
<glyph unicode="&#xb0;" horiz-adv-x="622" d="M51 1477q0 53 20.5 100t55.5 83t82 56.5t100 20.5t100.5 -20.5t83 -56.5t56 -83t20.5 -100t-20.5 -100.5t-56 -82t-83 -55t-100.5 -20.5t-100 20.5t-82 55t-55.5 81.5t-20.5 101zM221 1477q0 -37 25.5 -62.5t62.5 -25.5t63.5 25.5t26.5 62.5t-26.5 63.5t-63.5 26.5 t-62.5 -27t-25.5 -63z" />
<glyph unicode="&#xb4;" horiz-adv-x="706" d="M33 1155l282 514l306 -168l-283 -514z" />
<glyph unicode="&#xbf;" horiz-adv-x="1705" d="M301 1335q37 68 93.5 122t127.5 95q143 78 314 78q117 0 221 -37t188 -108q86 -74 136 -170q51 -106 51 -217q0 -109 -51 -217q-51 -98 -136 -168q-78 -68 -178 -106t-211 -42v-98h-348v539l227 -76q53 -16 101 -17q49 0 94 14.5t79 40t54.5 59.5t20.5 71t-20.5 70.5 t-54.5 59t-79 40t-94 14.5q-76 0 -138.5 -31.5t-93.5 -85.5zM461 174q0 49 19.5 93t51 77t75.5 52.5t94 19.5q49 0 93 -19.5t76.5 -52.5t52 -77t19.5 -93t-19.5 -93t-52 -76t-76.5 -51.5t-93 -19.5t-93.5 19.5t-76 51.5t-51 76t-19.5 93z" />
<glyph unicode="&#xc0;" horiz-adv-x="1789" d="M23 0l686 1583h362l688 -1583h-381l-145 338h-684l-148 -338h-378zM624 2050l312 155l229 -452l-311 -156zM698 686h383l-192 438z" />
<glyph unicode="&#xc1;" horiz-adv-x="1789" d="M23 0l686 1583h362l688 -1583h-381l-145 338h-684l-148 -338h-378zM600 1761l282 514l306 -168l-283 -514zM698 686h383l-192 438z" />
<glyph unicode="&#xc2;" horiz-adv-x="1789" d="M23 0h378l148 338h684l145 -338h381l-688 1583h-362zM238 1714l282 514l305 -168l-282 -514zM698 686l191 438l192 -438h-383zM942 2062l311 156l281 -528l-311 -156z" />
<glyph unicode="&#xc3;" horiz-adv-x="1789" d="M23 0h378l148 338h684l145 -338h381l-688 1583h-362zM356 1948q23 23 50.5 46t44.5 38q57 47 127.5 70.5t144.5 23.5t144.5 -23.5t129.5 -68.5l31 -25q23 -16 57.5 -16t57.5 16q14 10 33.5 27.5t37.5 36.5l242 -250q-10 -10 -37.5 -36t-60.5 -50q-115 -92 -273 -92 q-76 0 -146.5 23.5t-125.5 68.5l-31 24q-20 16 -56 17.5t-54 -15.5q-10 -8 -30.5 -27.5t-47.5 -43.5zM698 686l191 438l192 -438h-383z" />
<glyph unicode="&#xc4;" horiz-adv-x="1789" d="M23 0h378l148 338h684l145 -338h381l-688 1583h-362zM307 1894q0 53 20.5 99.5t54.5 81t80 55t99 20.5t99.5 -20.5t81 -55t55 -81t20.5 -99.5t-20.5 -99t-55 -80t-81 -54.5t-99.5 -20.5t-99 20.5t-80 54.5t-54.5 80t-20.5 99zM698 686l191 438l192 -438h-383zM995 1894 q0 53 20.5 99.5t54.5 81t80 55t99 20.5t99.5 -20.5t81 -55t55 -81t20.5 -99.5t-20.5 -99t-55 -80t-80.5 -54.5t-100 -20.5q-53 0 -99 20.5t-80 54.5t-54.5 80t-20.5 99z" />
<glyph unicode="&#xc7;" horiz-adv-x="1595" d="M106 793q0 168 66 323q61 145 176 264q119 115 264 176q156 66 324 66q166 0 321 -66q150 -61 265 -176l-246 -247q-68 70 -155 105.5t-185 35.5q-100 0 -187 -38t-153 -103.5t-103.5 -152.5t-37.5 -187q0 -98 37.5 -186.5t103.5 -154t153 -103.5t187 -38q98 0 185 36 t155 106l246 -246q-115 -117 -265 -178q-155 -66 -321 -66q-168 0 -324 66q-74 31 -139 76t-125 102q-115 115 -176 262q-66 156 -66 324zM473 -334l283 514l305 -168l-283 -514z" />
<glyph unicode="&#xc8;" horiz-adv-x="1357" d="M180 0v1583h1012v-348h-664v-236h641v-348h-641v-303h664v-348h-1012zM407 2071l312 155l229 -452l-311 -156z" />
<glyph unicode="&#xc9;" horiz-adv-x="1357" d="M180 0v1583h1012v-348h-664v-236h641v-348h-641v-303h664v-348h-1012zM385 1782l282 514l306 -168l-283 -514z" />
<glyph unicode="&#xca;" horiz-adv-x="1357" d="M25 1796l282 514l305 -168l-282 -514zM180 0h1012v348h-664v303h641v348h-641v236h664v348h-1012v-1583zM729 2144l311 156l281 -528l-311 -156z" />
<glyph unicode="&#xcb;" horiz-adv-x="1357" d="M61 1894q0 53 20.5 99.5t54.5 81t80 55t99 20.5t99.5 -20.5t81 -55t55 -81t20.5 -99.5t-20.5 -99t-55 -80t-80.5 -54.5t-100 -20.5q-53 0 -99 20.5t-80 54.5t-54.5 80t-20.5 99zM180 0h1012v348h-664v303h641v348h-641v236h664v348h-1012v-1583zM750 1894q0 53 20.5 99.5 t54 81t79.5 55t100 20.5q53 0 99 -20.5t81 -55t55.5 -81t20.5 -99.5t-20.5 -99t-55.5 -80t-81 -54.5t-99 -20.5t-99.5 20.5t-80 54.5t-54 80t-20.5 99z" />
<glyph unicode="&#xcc;" horiz-adv-x="698" d="M78 2091l312 155l229 -452l-311 -156zM176 0v1583h348v-1583h-348z" />
<glyph unicode="&#xcd;" horiz-adv-x="698" d="M56 1802l282 514l306 -168l-283 -514zM176 0v1583h348v-1583h-348z" />
<glyph unicode="&#xce;" horiz-adv-x="698" d="M-295 1714l283 514l305 -168l-283 -514zM176 0v1583h348v-1583h-348zM410 2062l311 156l280 -528l-311 -156z" />
<glyph unicode="&#xcf;" horiz-adv-x="698" d="M-236 1894q0 53 20.5 99.5t54.5 81t80 55t99 20.5t99.5 -20.5t81 -55t55 -81t20.5 -99.5t-20.5 -99t-55 -80t-80.5 -54.5t-100 -20.5q-53 0 -99 20.5t-80 54.5t-54.5 80t-20.5 99zM176 0v1583h348v-1583h-348zM453 1894q0 53 20.5 99.5t54 81t79.5 55t100 20.5 q53 0 99 -20.5t81 -55t55.5 -81t20.5 -99.5t-20.5 -99t-55.5 -80t-81 -54.5t-99 -20.5t-99.5 20.5t-80 54.5t-54 80t-20.5 99z" />
<glyph unicode="&#xd0;" horiz-adv-x="1785" d="M49 621v348h1016v-348h-1016zM285 0v1583h589q168 0 316.5 -58.5t261.5 -168.5q111 -111 170 -254.5t59 -304.5q0 -162 -56 -305.5t-165 -253.5q-53 -57 -118.5 -100.5t-139.5 -74.5q-156 -63 -328 -63h-589zM633 348h241q100 0 185.5 33t146 92t94 142t33.5 182 q0 94 -33.5 175t-95 139t-145.5 91t-185 33h-241v-887z" />
<glyph unicode="&#xd1;" horiz-adv-x="1904" d="M184 0v1583h385l803 -1046v1046h178h170v-1583h-323h-51l-814 1059v-1059h-112h-236zM401 1919q23 23 50.5 46.5t43.5 37.5q57 47 128 70.5t144.5 23.5t144.5 -23.5t130 -68.5l31 -25q23 -16 57.5 -16t57.5 16q14 10 33.5 27.5t37.5 36.5l242 -250q-10 -10 -38 -35.5 t-60 -50.5q-115 -92 -273 -92q-76 0 -146.5 23.5t-125.5 68.5l-31 25q-20 16 -56 17t-54 -15q-10 -8 -31 -27.5t-47 -44.5z" />
<glyph unicode="&#xd2;" d="M104 793q0 166 66 325q33 74 77 140.5t101 123.5q59 59 126 103.5t140 77.5q156 66 326 65q166 0 326 -65q74 -33 140.5 -77t123.5 -104q59 -57 103 -123.5t77 -140.5q66 -160 66 -325q0 -170 -66 -326q-33 -74 -77 -140.5t-103 -125.5q-57 -57 -124 -101.5t-140 -76.5 q-160 -66 -326 -66q-170 0 -326 66q-152 66 -266 178q-113 115 -178 266q-66 156 -66 326zM453 793q0 -100 38.5 -189.5t104.5 -155t155 -104.5t189 -39t189.5 39t155 104.5t104 154.5t38.5 190q0 100 -38.5 189t-104 154.5t-155 104.5t-189.5 39t-189 -39t-155 -104.5 t-104.5 -154.5t-38.5 -189zM667 2132l312 155l229 -452l-311 -156z" />
<glyph unicode="&#xd3;" d="M104 793q0 166 66 325q33 74 77 140.5t101 123.5q59 59 126 103.5t140 77.5q156 66 326 65q166 0 326 -65q74 -33 140.5 -77t123.5 -104q59 -57 103 -123.5t77 -140.5q66 -160 66 -325q0 -170 -66 -326q-33 -74 -77 -140.5t-103 -125.5q-57 -57 -124 -101.5t-140 -76.5 q-160 -66 -326 -66q-170 0 -326 66q-152 66 -266 178q-113 115 -178 266q-66 156 -66 326zM453 793q0 -100 38.5 -189.5t104.5 -155t155 -104.5t189 -39t189.5 39t155 104.5t104 154.5t38.5 190q0 100 -38.5 189t-104 154.5t-155 104.5t-189.5 39t-189 -39t-155 -104.5 t-104.5 -154.5t-38.5 -189zM645 1823l282 514l306 -168l-283 -514z" />
<glyph unicode="&#xd4;" d="M104 793q0 166 66 325q33 74 77 140.5t101 123.5q59 59 126 103.5t140 77.5q156 66 326 65q166 0 326 -65q74 -33 140.5 -77t123.5 -104q59 -57 103 -123.5t77 -140.5q66 -160 66 -325q0 -170 -66 -326q-33 -74 -77 -140.5t-103 -125.5q-57 -57 -124 -101.5t-140 -76.5 q-160 -66 -326 -66q-170 0 -326 66q-152 66 -266 178q-113 115 -178 266q-66 156 -66 326zM311 1796l283 514l305 -168l-283 -514zM453 793q0 -100 38.5 -189.5t104.5 -155t155 -104.5t189 -39t189.5 39t155 104.5t104 154.5t38.5 190q0 100 -38.5 189t-104 154.5 t-155 104.5t-189.5 39t-189 -39t-155 -104.5t-104.5 -154.5t-38.5 -189zM1016 2144l311 156l281 -528l-312 -156z" />
<glyph unicode="&#xd5;" d="M104 793q0 166 66 325q33 74 77 140.5t101 123.5q59 59 126 103.5t140 77.5q156 66 326 65q166 0 326 -65q74 -33 140.5 -77t123.5 -104q59 -57 103 -123.5t77 -140.5q66 -160 66 -325q0 -170 -66 -326q-33 -74 -77 -140.5t-103 -125.5q-57 -57 -124 -101.5t-140 -76.5 q-160 -66 -326 -66q-170 0 -326 66q-152 66 -266 178q-113 115 -178 266q-66 156 -66 326zM389 1960q23 23 50.5 46.5t43.5 37.5q57 47 128 70.5t144.5 23.5t144.5 -23.5t130 -68.5l31 -25q23 -16 57.5 -16t57.5 16q14 10 33.5 27.5t37.5 36.5l242 -250q-10 -10 -38 -35.5 t-60 -50.5q-115 -92 -273 -92q-76 0 -146.5 23.5t-125.5 68.5l-31 25q-20 16 -56 17t-54 -15q-10 -8 -31 -27.5t-47 -44.5zM453 793q0 -100 38.5 -189.5t104.5 -155t155 -104.5t189 -39t189.5 39t155 104.5t104 154.5t38.5 190q0 100 -38.5 189t-104 154.5t-155 104.5 t-189.5 39t-189 -39t-155 -104.5t-104.5 -154.5t-38.5 -189z" />
<glyph unicode="&#xd6;" d="M104 793q0 166 66 325q33 74 77 140.5t101 123.5q59 59 126 103.5t140 77.5q156 66 326 65q166 0 326 -65q74 -33 140.5 -77t123.5 -104q59 -57 103 -123.5t77 -140.5q66 -160 66 -325q0 -170 -66 -326q-33 -74 -77 -140.5t-103 -125.5q-57 -57 -124 -101.5t-140 -76.5 q-160 -66 -326 -66q-170 0 -326 66q-152 66 -266 178q-113 115 -178 266q-66 156 -66 326zM313 1894q0 53 20.5 99.5t54.5 81t80 55t99 20.5t99.5 -20.5t81 -55t55 -81t20.5 -99.5t-20.5 -99t-55 -80t-80.5 -54.5t-100 -20.5q-53 0 -99 20.5t-80 54.5t-54.5 80t-20.5 99z M453 793q0 -100 38.5 -189.5t104.5 -155t155 -104.5t189 -39t189.5 39t155 104.5t104 154.5t38.5 190q0 100 -38.5 189t-104 154.5t-155 104.5t-189.5 39t-189 -39t-155 -104.5t-104.5 -154.5t-38.5 -189zM1001 1894q0 53 20.5 99.5t54.5 81t80 55t99 20.5t99.5 -20.5 t81 -55t55 -81t20.5 -99.5t-20.5 -99t-55 -80t-80.5 -54.5t-100 -20.5q-53 0 -99 20.5t-80 54.5t-54.5 80t-20.5 99z" />
<glyph unicode="&#xd7;" horiz-adv-x="1148" d="M166 631l162 160l-162 161l246 248l163 -164l164 164l246 -248l-164 -161l164 -160l-246 -248l-164 164l-163 -164z" />
<glyph unicode="&#xd8;" d="M106 793q0 166 66 325q33 74 77 140.5t101 123.5q59 59 126 103.5t140 77.5q156 66 326 65q141 0 277 -47l2 2h401l-106 -184q10 -6 16 -17q59 -57 103 -123.5t77 -140.5q66 -160 66 -325q0 -170 -66 -326q-33 -74 -77 -140.5t-103 -125.5q-57 -57 -124 -101.5 t-140 -76.5q-160 -66 -326 -66q-137 0 -266 43h-367l90 156q-12 10 -24.5 22t-24.5 23q-113 115 -178 266q-66 156 -66 326zM455 793q0 -94 32.5 -177.5t92.5 -148.5l460 803q-25 4 -49 7t-49 3q-100 0 -189 -39t-155 -104.5t-104.5 -154.5t-38.5 -189zM889 307 q12 -2 25.5 -2h27.5q100 0 189.5 39t155 104.5t104.5 154.5t39 190q0 82 -25 155.5t-72 132.5z" />
<glyph unicode="&#xd9;" horiz-adv-x="1798" d="M141 748v835h348v-835q0 -233 97.5 -337t314.5 -104t314.5 103.5t97.5 337.5v835h348v-835q0 -27 -1 -74t-10.5 -105.5t-28.5 -125t-54 -132.5q-82 -158 -240 -250q-176 -102 -426 -102t-426 102q-158 92 -239 250q-35 66 -54.5 132.5t-29 125t-10.5 105.5t-1 74z M628 2050l312 155l229 -452l-311 -156z" />
<glyph unicode="&#xda;" horiz-adv-x="1798" d="M141 748v835h348v-835q0 -233 97.5 -337t314.5 -104t314.5 103.5t97.5 337.5v835h348v-835q0 -27 -1 -74t-10.5 -105.5t-28.5 -125t-54 -132.5q-82 -158 -240 -250q-176 -102 -426 -102t-426 102q-158 92 -239 250q-35 66 -54.5 132.5t-29 125t-10.5 105.5t-1 74z M604 1741l282 514l306 -168l-283 -514z" />
<glyph unicode="&#xdb;" horiz-adv-x="1798" d="M141 748v835h348v-835q0 -233 97.5 -337t314.5 -104t314.5 103.5t97.5 337.5v835h348v-835q0 -27 -1 -74t-10.5 -105.5t-28.5 -125t-54 -132.5q-82 -158 -240 -250q-176 -102 -426 -102t-426 102q-158 92 -239 250q-35 66 -54.5 132.5t-29 125t-10.5 105.5t-1 74z M250 1796l282 514l306 -168l-283 -514zM954 2144l312 156l280 -528l-311 -156z" />
<glyph unicode="&#xdc;" horiz-adv-x="1798" d="M141 748v835h348v-835q0 -233 97.5 -337t314.5 -104t314.5 103.5t97.5 337.5v835h348v-835q0 -27 -1 -74t-10.5 -105.5t-28.5 -125t-54 -132.5q-82 -158 -240 -250q-176 -102 -426 -102t-426 102q-158 92 -239 250q-35 66 -54.5 132.5t-29 125t-10.5 105.5t-1 74z M307 1894q0 53 20.5 99.5t54.5 81t80 55t99 20.5t99.5 -20.5t81 -55t55 -81t20.5 -99.5t-20.5 -99t-55 -80t-81 -54.5t-99.5 -20.5t-99 20.5t-80 54.5t-54.5 80t-20.5 99zM995 1894q0 53 20.5 99.5t54.5 81t80 55t99 20.5t99.5 -20.5t81 -55t55 -81t20.5 -99.5t-20.5 -99 t-55 -80t-80.5 -54.5t-100 -20.5q-53 0 -99 20.5t-80 54.5t-54.5 80t-20.5 99z" />
<glyph unicode="&#xdd;" horiz-adv-x="1816" d="M47 1583h424l440 -629l441 629h202h224l-693 -987v-596h-348v596zM615 1741l282 514l306 -168l-283 -514z" />
<glyph unicode="&#xe0;" horiz-adv-x="1789" d="M23 0l686 1583h362l688 -1583h-381l-145 338h-684l-148 -338h-378zM624 2058l312 155l229 -452l-311 -156zM698 686h383l-192 438z" />
<glyph unicode="&#xe1;" horiz-adv-x="1789" d="M23 0l686 1583h362l688 -1583h-381l-145 338h-684l-148 -338h-378zM600 1790l282 514l306 -168l-283 -514zM698 686h383l-192 438z" />
<glyph unicode="&#xe2;" horiz-adv-x="1789" d="M23 0h378l148 338h684l145 -338h381l-688 1583h-362zM250 1796l282 514l306 -168l-283 -514zM698 686l191 438l192 -438h-383zM954 2144l312 156l280 -528l-311 -156z" />
<glyph unicode="&#xe3;" horiz-adv-x="1789" d="M23 0l686 1583h362l688 -1583h-381l-145 338h-684l-148 -338h-378zM344 1927q23 23 50.5 46.5t43.5 37.5q57 47 128 70.5t144.5 23.5t144.5 -23.5t130 -68.5l31 -25q23 -16 57.5 -16t57.5 16q14 10 33.5 27.5t37.5 36.5l242 -250q-10 -10 -38 -35.5t-60 -50.5 q-115 -92 -273 -92q-76 0 -146.5 23.5t-125.5 68.5l-31 25q-20 16 -56 17t-54 -15q-10 -8 -31 -27.5t-47 -44.5zM698 686h383l-192 438z" />
<glyph unicode="&#xe4;" horiz-adv-x="1789" d="M23 0h378l148 338h684l145 -338h381l-688 1583h-362zM307 1894q0 53 20.5 99.5t54.5 81t80 55t99 20.5t99.5 -20.5t81 -55t55 -81t20.5 -99.5t-20.5 -99t-55 -80t-81 -54.5t-99.5 -20.5t-99 20.5t-80 54.5t-54.5 80t-20.5 99zM698 686l191 438l192 -438h-383zM995 1894 q0 53 20.5 99.5t54.5 81t80 55t99 20.5t99.5 -20.5t81 -55t55 -81t20.5 -99.5t-20.5 -99t-55 -80t-80.5 -54.5t-100 -20.5q-53 0 -99 20.5t-80 54.5t-54.5 80t-20.5 99z" />
<glyph unicode="&#xe7;" horiz-adv-x="1595" d="M106 793q0 168 66 323q61 145 176 264q119 115 264 176q156 66 324 66q166 0 321 -66q150 -61 265 -176l-246 -247q-68 70 -155 105.5t-185 35.5q-100 0 -187 -38t-153 -103.5t-103.5 -152.5t-37.5 -187q0 -98 37.5 -186.5t103.5 -154t153 -103.5t187 -38q98 0 185 36 t155 106l246 -246q-115 -117 -265 -178q-155 -66 -321 -66q-168 0 -324 66q-74 31 -139 76t-125 102q-115 115 -176 262q-66 156 -66 324zM473 -334l283 514l305 -168l-283 -514z" />
<glyph unicode="&#xe8;" horiz-adv-x="1357" d="M180 0v1583h1012v-348h-664v-236h641v-348h-641v-303h664v-348h-1012zM407 2091l312 155l229 -452l-311 -156z" />
<glyph unicode="&#xe9;" horiz-adv-x="1357" d="M180 0v1583h1012v-348h-664v-236h641v-348h-641v-303h664v-348h-1012zM385 1796l282 514l306 -168l-283 -514z" />
<glyph unicode="&#xea;" horiz-adv-x="1357" d="M31 1796l282 514l305 -168l-282 -514zM180 0h1012v348h-664v303h641v348h-641v236h664v348h-1012v-1583zM735 2144l312 156l280 -528l-311 -156z" />
<glyph unicode="&#xeb;" horiz-adv-x="1357" d="M82 1894q0 53 20.5 99.5t54 81t80 55t99.5 20.5t99 -20.5t81 -55t55.5 -81t20.5 -99.5t-20.5 -99t-55.5 -80t-81 -54.5t-99 -20.5t-99.5 20.5t-80 54.5t-54 80t-20.5 99zM180 0h1012v348h-664v303h641v348h-641v236h664v348h-1012v-1583zM770 1894q0 53 20.5 99.5 t54.5 81t80 55t99 20.5t99 -20.5t81 -55t55.5 -81t20.5 -99.5t-20.5 -99t-55.5 -80t-81 -54.5t-99 -20.5t-99 20.5t-80 54.5t-54.5 80t-20.5 99z" />
<glyph unicode="&#xec;" horiz-adv-x="698" d="M78 2081l312 155l229 -452l-311 -156zM176 0v1583h348v-1583h-348z" />
<glyph unicode="&#xed;" horiz-adv-x="698" d="M56 1800l282 514l306 -168l-283 -514zM176 0v1583h348v-1583h-348z" />
<glyph unicode="&#xee;" horiz-adv-x="698" d="M-299 1796l283 514l305 -168l-283 -514zM176 0v1583h348v-1583h-348zM406 2144l311 156l280 -528l-311 -156z" />
<glyph unicode="&#xef;" horiz-adv-x="716" d="M-258 1894q0 53 20.5 99.5t54 81t80 55t99.5 20.5t99 -20.5t81 -55t55.5 -81t20.5 -99.5t-20.5 -99t-55.5 -80t-81 -54.5t-99 -20.5t-99.5 20.5t-80 54.5t-54 80t-20.5 99zM182 0v1583h348v-1583h-348zM430 1894q0 53 20.5 99.5t54.5 81t80 55t99 20.5t99 -20.5t81 -55 t55.5 -81t20.5 -99.5t-20.5 -99t-55.5 -80t-81 -54.5t-99 -20.5t-99 20.5t-80 54.5t-54.5 80t-20.5 99z" />
<glyph unicode="&#xf1;" horiz-adv-x="1904" d="M184 0v1583h385l803 -1046v1046h178h170v-1583h-323h-51l-814 1059v-1059h-112h-236zM401 1880q23 23 50.5 46.5t43.5 37.5q57 47 128 70.5t144.5 23.5t144.5 -23.5t130 -68.5l31 -25q23 -16 57.5 -16t57.5 16q14 10 33.5 27.5t37.5 36.5l242 -250q-10 -10 -38 -35.5 t-60 -50.5q-115 -92 -273 -92q-76 0 -146.5 23.5t-125.5 68.5l-31 25q-20 16 -56 17t-54 -15q-10 -8 -31 -27.5t-47 -44.5z" />
<glyph unicode="&#xf2;" d="M104 793q0 166 66 325q33 74 77 140.5t101 123.5q59 59 126 103.5t140 77.5q156 66 326 65q166 0 326 -65q74 -33 140.5 -77t123.5 -104q59 -57 103 -123.5t77 -140.5q66 -160 66 -325q0 -170 -66 -326q-33 -74 -77 -140.5t-103 -125.5q-57 -57 -124 -101.5t-140 -76.5 q-160 -66 -326 -66q-170 0 -326 66q-152 66 -266 178q-113 115 -178 266q-66 156 -66 326zM453 793q0 -100 38.5 -189.5t104.5 -155t155 -104.5t189 -39t189.5 39t155 104.5t104 154.5t38.5 190q0 100 -38.5 189t-104 154.5t-155 104.5t-189.5 39t-189 -39t-155 -104.5 t-104.5 -154.5t-38.5 -189zM667 2112l312 155l229 -452l-311 -156z" />
<glyph unicode="&#xf3;" d="M104 793q0 166 66 325q33 74 77 140.5t101 123.5q59 59 126 103.5t140 77.5q156 66 326 65q166 0 326 -65q74 -33 140.5 -77t123.5 -104q59 -57 103 -123.5t77 -140.5q66 -160 66 -325q0 -170 -66 -326q-33 -74 -77 -140.5t-103 -125.5q-57 -57 -124 -101.5t-140 -76.5 q-160 -66 -326 -66q-170 0 -326 66q-152 66 -266 178q-113 115 -178 266q-66 156 -66 326zM453 793q0 -100 38.5 -189.5t104.5 -155t155 -104.5t189 -39t189.5 39t155 104.5t104 154.5t38.5 190q0 100 -38.5 189t-104 154.5t-155 104.5t-189.5 39t-189 -39t-155 -104.5 t-104.5 -154.5t-38.5 -189zM645 1843l282 514l306 -168l-283 -514z" />
<glyph unicode="&#xf4;" d="M104 793q0 166 66 325q33 74 77 140.5t101 123.5q59 59 126 103.5t140 77.5q156 66 326 65q166 0 326 -65q74 -33 140.5 -77t123.5 -104q59 -57 103 -123.5t77 -140.5q66 -160 66 -325q0 -170 -66 -326q-33 -74 -77 -140.5t-103 -125.5q-57 -57 -124 -101.5t-140 -76.5 q-160 -66 -326 -66q-170 0 -326 66q-152 66 -266 178q-113 115 -178 266q-66 156 -66 326zM311 1796l283 514l305 -168l-283 -514zM453 793q0 -100 38.5 -189.5t104.5 -155t155 -104.5t189 -39t189.5 39t155 104.5t104 154.5t38.5 190q0 100 -38.5 189t-104 154.5 t-155 104.5t-189.5 39t-189 -39t-155 -104.5t-104.5 -154.5t-38.5 -189zM1016 2144l311 156l281 -528l-312 -156z" />
<glyph unicode="&#xf5;" d="M104 793q0 166 66 325q33 74 77 140.5t101 123.5q59 59 126 103.5t140 77.5q156 66 326 65q166 0 326 -65q74 -33 140.5 -77t123.5 -104q59 -57 103 -123.5t77 -140.5q66 -160 66 -325q0 -170 -66 -326q-33 -74 -77 -140.5t-103 -125.5q-57 -57 -124 -101.5t-140 -76.5 q-160 -66 -326 -66q-170 0 -326 66q-152 66 -266 178q-113 115 -178 266q-66 156 -66 326zM389 1968q23 23 50.5 46.5t43.5 37.5q57 47 128 70.5t144.5 23.5t144.5 -23.5t130 -68.5l31 -25q23 -16 57.5 -16t57.5 16q14 10 33.5 27.5t37.5 36.5l242 -250q-10 -10 -38 -35.5 t-60 -50.5q-115 -92 -273 -92q-76 0 -146.5 23.5t-125.5 68.5l-31 25q-20 16 -56 17t-54 -15q-10 -8 -31 -27.5t-47 -44.5zM453 793q0 -100 38.5 -189.5t104.5 -155t155 -104.5t189 -39t189.5 39t155 104.5t104 154.5t38.5 190q0 100 -38.5 189t-104 154.5t-155 104.5 t-189.5 39t-189 -39t-155 -104.5t-104.5 -154.5t-38.5 -189z" />
<glyph unicode="&#xf6;" d="M104 793q0 166 66 325q33 74 77 140.5t101 123.5q59 59 126 103.5t140 77.5q156 66 326 65q166 0 326 -65q74 -33 140.5 -77t123.5 -104q59 -57 103 -123.5t77 -140.5q66 -160 66 -325q0 -170 -66 -326q-33 -74 -77 -140.5t-103 -125.5q-57 -57 -124 -101.5t-140 -76.5 q-160 -66 -326 -66q-170 0 -326 66q-152 66 -266 178q-113 115 -178 266q-66 156 -66 326zM336 1894q0 53 20.5 99.5t54 81t80 55t99.5 20.5t99 -20.5t81 -55t55.5 -81t20.5 -99.5t-20.5 -99t-55.5 -80t-81 -54.5t-99 -20.5t-99.5 20.5t-80 54.5t-54 80t-20.5 99zM453 793 q0 -100 38.5 -189.5t104.5 -155t155 -104.5t189 -39t189.5 39t155 104.5t104 154.5t38.5 190q0 100 -38.5 189t-104 154.5t-155 104.5t-189.5 39t-189 -39t-155 -104.5t-104.5 -154.5t-38.5 -189zM1024 1894q0 53 20.5 99.5t54.5 81t80 55t99 20.5t99 -20.5t81 -55t55.5 -81 t20.5 -99.5t-20.5 -99t-55.5 -80t-81 -54.5t-99 -20.5t-99 20.5t-80 54.5t-54.5 80t-20.5 99z" />
<glyph unicode="&#xf7;" horiz-adv-x="1255" d="M127 625v348h1016v-348h-1016zM393 360q0 49 19.5 93.5t51.5 77t76 52t93 19.5t93 -19.5t77 -52t52 -77t19 -93.5t-19 -93t-52 -75.5t-77 -51t-93 -19.5t-93 19.5t-76 51t-51.5 75.5t-19.5 93zM393 1241q0 49 19.5 93t51.5 77t76 52.5t93 19.5t93 -19.5t77 -52.5t52 -77 t19 -93t-19 -93t-52 -76t-77 -51.5t-93 -19.5t-93 19.5t-76 51.5t-51.5 76t-19.5 93z" />
<glyph unicode="&#xf8;" d="M106 793q0 166 66 325q33 74 77 140.5t101 123.5q59 59 126 103.5t140 77.5q156 66 326 65q141 0 277 -47l2 2h401l-106 -184q10 -6 16 -17q59 -57 103 -123.5t77 -140.5q66 -160 66 -325q0 -170 -66 -326q-33 -74 -77 -140.5t-103 -125.5q-57 -57 -124 -101.5 t-140 -76.5q-160 -66 -326 -66q-137 0 -266 43h-367l90 156q-12 10 -24.5 22t-24.5 23q-113 115 -178 266q-66 156 -66 326zM455 793q0 -94 32.5 -177.5t92.5 -148.5l460 803q-25 4 -49 7t-49 3q-100 0 -189 -39t-155 -104.5t-104.5 -154.5t-38.5 -189zM889 307 q12 -2 25.5 -2h27.5q100 0 189.5 39t155 104.5t104.5 154.5t39 190q0 82 -25 155.5t-72 132.5z" />
<glyph unicode="&#xf9;" horiz-adv-x="1798" d="M141 748v835h348v-835q0 -233 97.5 -337t314.5 -104t314.5 103.5t97.5 337.5v835h348v-835q0 -27 -1 -74t-10.5 -105.5t-28.5 -125t-54 -132.5q-82 -158 -240 -250q-176 -102 -426 -102t-426 102q-158 92 -239 250q-35 66 -54.5 132.5t-29 125t-10.5 105.5t-1 74z M628 1993l312 155l229 -452l-311 -156z" />
<glyph unicode="&#xfa;" horiz-adv-x="1798" d="M141 748v835h348v-835q0 -233 97.5 -337t314.5 -104t314.5 103.5t97.5 337.5v835h348v-835q0 -27 -1 -74t-10.5 -105.5t-28.5 -125t-54 -132.5q-82 -158 -240 -250q-176 -102 -426 -102t-426 102q-158 92 -239 250q-35 66 -54.5 132.5t-29 125t-10.5 105.5t-1 74z M604 1704l282 514l306 -168l-283 -514z" />
<glyph unicode="&#xfb;" horiz-adv-x="1798" d="M141 748v835h348v-835q0 -233 97.5 -337t314.5 -104t314.5 103.5t97.5 337.5v835h348v-835q0 -27 -1 -74t-10.5 -105.5t-28.5 -125t-54 -132.5q-82 -158 -240 -250q-176 -102 -426 -102t-426 102q-158 92 -239 250q-35 66 -54.5 132.5t-29 125t-10.5 105.5t-1 74z M250 1796l282 514l306 -168l-283 -514zM954 2144l312 156l280 -528l-311 -156z" />
<glyph unicode="&#xfc;" horiz-adv-x="1798" d="M141 748v835h348v-835q0 -233 97.5 -337t314.5 -104t314.5 103.5t97.5 337.5v835h348v-835q0 -27 -1 -74t-10.5 -105.5t-28.5 -125t-54 -132.5q-82 -158 -240 -250q-176 -102 -426 -102t-426 102q-158 92 -239 250q-35 66 -54.5 132.5t-29 125t-10.5 105.5t-1 74z M315 1894q0 53 20.5 99.5t54.5 81t80 55t99 20.5t99.5 -20.5t81 -55t55 -81t20.5 -99.5t-20.5 -99t-55 -80t-80.5 -54.5t-100 -20.5q-53 0 -99 20.5t-80 54.5t-54.5 80t-20.5 99zM1004 1894q0 53 20 99.5t54 81t80 55t99 20.5t99.5 -20.5t81.5 -55t55 -81t20 -99.5t-20 -99 t-55 -80t-81 -54.5t-100 -20.5q-53 0 -99 20.5t-80 54.5t-54 80t-20 99z" />
<glyph unicode="&#xfd;" horiz-adv-x="1816" d="M47 1583h424l440 -629l441 629h202h224l-693 -987v-596h-348v596zM615 1704l282 514l306 -168l-283 -514z" />
<glyph unicode="&#xff;" horiz-adv-x="1816" d="M47 1583l690 -987v-596h348v596l693 987h-224h-202l-441 -629l-440 629h-424zM305 1894q0 53 20.5 99.5t54.5 81t80 55t99 20.5t99.5 -20.5t81 -55t55 -81t20.5 -99.5t-20.5 -99t-55 -80t-81 -54.5t-99.5 -20.5t-99 20.5t-80 54.5t-54.5 80t-20.5 99zM993 1894 q0 53 20.5 99.5t54.5 81t80 55t99 20.5t99.5 -20.5t81 -55t55 -81t20.5 -99.5t-20.5 -99t-55 -80t-81 -54.5t-99.5 -20.5t-99 20.5t-80 54.5t-54.5 80t-20.5 99z" />
<glyph unicode="&#x178;" horiz-adv-x="1816" d="M47 1583l690 -987v-596h348v596l693 987h-224h-202l-441 -629l-440 629h-424zM307 1894q0 53 20.5 99.5t54.5 81t80 55t99 20.5t99.5 -20.5t81 -55t55 -81t20.5 -99.5t-20.5 -99t-55 -80t-81 -54.5t-99.5 -20.5t-99 20.5t-80 54.5t-54.5 80t-20.5 99zM995 1894 q0 53 20.5 99.5t54.5 81t80 55t99 20.5t99.5 -20.5t81 -55t55 -81t20.5 -99.5t-20.5 -99t-55 -80t-80.5 -54.5t-100 -20.5q-53 0 -99 20.5t-80 54.5t-54.5 80t-20.5 99z" />
<glyph unicode="&#x2c6;" horiz-adv-x="1058" d="M109 -133v348h251v1010h-251v348h251v139h349v-139h252v-348h-252v-1010h252v-348h-252v-158h-349v158h-251z" />
<glyph unicode="&#x2dc;" horiz-adv-x="1376" d="M135 1149q23 23 50.5 46.5t43.5 37.5q57 47 128 70.5t144.5 23.5t144.5 -23.5t130 -68.5l31 -25q23 -16 57.5 -16t57.5 16q14 10 33.5 27.5t37.5 36.5l242 -250q-10 -10 -38 -35.5t-60 -50.5q-115 -92 -273 -92q-76 0 -146.5 23.5t-125.5 68.5l-31 25q-20 16 -56 17 t-54 -15q-10 -8 -31 -27.5t-47 -44.5z" />
<glyph unicode="&#x2000;" horiz-adv-x="1178" />
<glyph unicode="&#x2001;" horiz-adv-x="2357" />
<glyph unicode="&#x2002;" horiz-adv-x="1178" />
<glyph unicode="&#x2003;" horiz-adv-x="2357" />
<glyph unicode="&#x2004;" horiz-adv-x="785" />
<glyph unicode="&#x2005;" horiz-adv-x="589" />
<glyph unicode="&#x2006;" horiz-adv-x="392" />
<glyph unicode="&#x2007;" horiz-adv-x="392" />
<glyph unicode="&#x2008;" horiz-adv-x="294" />
<glyph unicode="&#x2009;" horiz-adv-x="471" />
<glyph unicode="&#x200a;" horiz-adv-x="130" />
<glyph unicode="&#x2010;" horiz-adv-x="1380" d="M188 641v348h1016v-348h-1016z" />
<glyph unicode="&#x2011;" horiz-adv-x="1380" d="M188 641v348h1016v-348h-1016z" />
<glyph unicode="&#x2012;" horiz-adv-x="1380" d="M188 641v348h1016v-348h-1016z" />
<glyph unicode="&#x2013;" horiz-adv-x="1388" d="M188 641v348h1024v-348h-1024z" />
<glyph unicode="&#x2014;" horiz-adv-x="2412" d="M188 641v348h2048v-348h-2048z" />
<glyph unicode="&#x2018;" horiz-adv-x="665" d="M33 1079l282 514l306 -168l-283 -514z" />
<glyph unicode="&#x2019;" horiz-adv-x="655" d="M33 1237l282 514l306 -168l-283 -514z" />
<glyph unicode="&#x201a;" horiz-adv-x="661" d="M23 -242l282 514l305 -168l-282 -514z" />
<glyph unicode="&#x201c;" horiz-adv-x="1179" d="M33 1079l282 514l306 -168l-283 -514zM545 1079l282 514l306 -168l-283 -514z" />
<glyph unicode="&#x201d;" horiz-adv-x="1214" d="M33 1237l282 514l306 -168l-283 -514zM545 1237l282 514l306 -168l-283 -514z" />
<glyph unicode="&#x201e;" horiz-adv-x="1177" d="M23 -242l282 514l305 -168l-282 -514zM535 -242l282 514l305 -168l-282 -514z" />
<glyph unicode="&#x2022;" horiz-adv-x="755" d="M80 821q0 61 23.5 116.5t63.5 95.5t94 63.5t116 23.5q61 0 115.5 -23.5t95.5 -63.5t64.5 -95.5t23.5 -116.5t-23.5 -114.5t-64.5 -94.5t-95.5 -64.5t-115.5 -23.5t-115.5 23.5t-94.5 64.5t-63.5 94.5t-23.5 114.5z" />
<glyph unicode="&#x2026;" horiz-adv-x="2064" d="M92 221q0 53 20.5 99.5t54.5 81t80 55t99 20.5t99.5 -20.5t81 -55t55 -81t20.5 -99.5t-20.5 -99t-55 -80t-81 -54.5t-99.5 -20.5t-99 20.5t-80 54.5t-54.5 80t-20.5 99zM780 221q0 53 20.5 99.5t54.5 81t80 55t99 20.5t99.5 -20.5t81 -55t55 -81t20.5 -99.5t-20.5 -99 t-55 -80t-81 -54.5t-99.5 -20.5t-99 20.5t-80 54.5t-54.5 80t-20.5 99zM1468 221q0 53 20.5 99.5t54.5 81t80 55t99 20.5t99.5 -20.5t81 -55t55 -81t20.5 -99.5t-20.5 -99t-55 -80t-80.5 -54.5t-100 -20.5q-53 0 -99 20.5t-80 54.5t-54.5 80t-20.5 99z" />
<glyph unicode="&#x202f;" horiz-adv-x="471" />
<glyph unicode="&#x205f;" horiz-adv-x="589" />
<glyph unicode="&#x2122;" horiz-adv-x="1286" d="M29 1479v102h456v-102h-178v-500h-102v500h-176zM438 997l150 611l246 -459l245 461l152 -615l-98 -24l-89 354l-210 -393l-209 393l-88 -352z" />
<glyph unicode="&#x25fc;" horiz-adv-x="1587" d="M0 0v1587h1587v-1587h-1587z" />
</font>
</defs>
</svg>
