<?xml version="1.0" standalone="no"?>
<!DOCTYPE svg PUBLIC "-//W3C//DTD SVG 1.1//EN" "http://www.w3.org/Graphics/SVG/1.1/DTD/svg11.dtd" >
<svg xmlns="http://www.w3.org/2000/svg">
<metadata></metadata>
<defs>
<font id="typograph_proultraLtIt" horiz-adv-x="1249" >
<font-face units-per-em="2048" ascent="1536" descent="-512" />
<missing-glyph horiz-adv-x="714" />
<glyph horiz-adv-x="2048" />
<glyph horiz-adv-x="2048" />
<glyph unicode="&#xd;" horiz-adv-x="1024" />
<glyph unicode=" "  horiz-adv-x="714" />
<glyph unicode="&#x09;" horiz-adv-x="714" />
<glyph unicode="&#xa0;" horiz-adv-x="714" />
<glyph unicode="!" horiz-adv-x="532" d="M111 23q4 18 17 30.5t32 12.5q16 0 27.5 -12.5t7.5 -30.5q-4 -16 -18.5 -28.5t-31.5 -12.5q-18 0 -28.5 12t-5.5 29zM178 227l238 1358l20 -4l-239 -1358z" />
<glyph unicode="&#x22;" horiz-adv-x="634" d="M147 1081l89 504l20 -4l-90 -504zM375 1081l88 504l20 -4l-90 -504z" />
<glyph unicode="#" horiz-adv-x="1372" d="M117 547v20h284l80 449h-282v20h286l52 287l20 -2l-51 -285h450l50 287l20 -2l-49 -285h283v-20h-287l-80 -449h285v-20h-287l-51 -287l-21 2l49 285h-448l-51 -287l-21 2l51 285h-282zM424 567h448l80 449h-450z" />
<glyph unicode="$" horiz-adv-x="1374" d="M74 272l18 7q18 -55 63.5 -104.5t108 -85.5t137 -57.5t154.5 -21.5h25l2 4l20 -4q61 2 146.5 20.5t173.5 63.5q39 20 82 49t82.5 70t71.5 93t48 118q41 150 -39 250q-57 74 -168.5 112.5t-267.5 38.5q-31 0 -86 4.5t-117 20.5q-137 33 -204 117q-78 96 -43 243 q23 90 71 162q25 35 54.5 64.5t64.5 52.5q66 45 144.5 71.5t168.5 32.5q37 4 76 0l23 129l20 -4l-22 -125q57 -4 112.5 -15t102.5 -34q147 -61 192 -176l-18 -8q-20 51 -66.5 93t-111 70.5t-143.5 42t-163 7.5q-193 -14 -320.5 -111.5t-164.5 -257.5q-31 -135 37 -225 q37 -47 94 -72.5t114.5 -40t109 -17.5t75.5 -3q156 0 270 -39q123 -45 183 -121q84 -109 43 -266q-18 -70 -51 -124t-74 -96t-85 -73t-85 -51q-47 -25 -98.5 -42.5t-104.5 -29.5q-35 -6 -67.5 -10t-63.5 -4l-23 -131l-20 4l23 127h-23q-80 2 -159 22.5t-144 59.5 q-68 41 -114 91t-64 109z" />
<glyph unicode="%" horiz-adv-x="1937" d="M162 1176q16 88 62 166.5t118 140.5q72 61 157 94t173 33q86 0 158.5 -33t125.5 -92q53 -63 73 -143t3 -168q-16 -88 -63 -167t-119 -141q-72 -61 -157 -94t-171 -33q-88 0 -160.5 33t-123.5 92q-53 63 -73 143t-3 169zM182 1174q-31 -174 70 -295q100 -119 270 -119 q86 0 168 32.5t147.5 89t111.5 132.5t63 162q14 86 -4.5 160.5t-67.5 133.5q-47 57 -116.5 88t-151.5 31q-86 0 -168 -32.5t-148.5 -89t-112.5 -132t-61 -161.5zM195 10l1527 1577l15 -14l-1526 -1577zM897 414q16 88 63.5 166.5t118.5 140.5q72 61 157 94t171 33 q88 0 160.5 -33t124.5 -92q53 -63 72.5 -143t2.5 -168q-16 -88 -62 -167t-118 -141q-72 -61 -157 -94t-173 -33q-86 0 -159.5 33t-124.5 92q-53 63 -72.5 143.5t-3.5 168.5zM918 412q-16 -86 3 -161t68 -134q47 -59 117 -89t151 -30q86 0 168 32.5t147.5 89t112 132.5 t62.5 162t-2.5 160.5t-69.5 134.5q-47 57 -115.5 87.5t-152.5 30.5q-86 0 -168 -32.5t-147.5 -89t-112.5 -132t-61 -161.5z" />
<glyph unicode="&#x26;" horiz-adv-x="1329" d="M96 489q29 166 148 297q115 131 276 185l6 -19q-78 -27 -147.5 -74t-122.5 -108t-90 -134t-51 -151q-16 -98 5 -188t81 -160q57 -70 139 -105.5t180 -35.5q102 0 198.5 39t175.5 105.5t133 156.5t73 192l12 68l21 -4l-13 -68q-18 -102 -72.5 -195t-140.5 -165 t-185.5 -111t-201.5 -39q-104 0 -190 38t-146 110q-61 74 -83.5 168t-4.5 198zM406.5 1157q-7.5 51 1.5 100q14 72 51 135.5t96 114.5q59 49 128 76t140 27q115 0 196 -64.5t99 -173.5q10 -55 0 -119l-20 4q8 57 0 113q-16 98 -92 158.5t-183 60.5q-70 0 -135 -26.5 t-119.5 -71.5t-91.5 -106.5t-49 -131.5q-10 -53 -1 -99t26 -73q12 -23 31.5 -52.5t38 -58t32.5 -48.5l14 -21l625 -899l-16 -12l-625 899q-2 2 -16.5 22.5t-33 48t-38 58.5t-31.5 53q-20 35 -27.5 86z" />
<glyph unicode="'" horiz-adv-x="520" d="M203 1081l88 504l20 -4l-90 -504z" />
<glyph unicode="(" horiz-adv-x="1400" d="M133 721q35 203 146 389q53 90 121.5 169t148.5 148q162 137 356 215q203 78 404 78v-20q-203 0 -396.5 -77t-350 -211t-265.5 -313t-145 -382q-35 -199 9 -378t161 -321q115 -135 278.5 -207.5t357.5 -72.5v-21q-201 0 -372 78q-164 74 -281 211q-115 135 -162 322 q-47 188 -10 393z" />
<glyph unicode=")" horiz-adv-x="1343" d="M49 -262q203 0 396.5 76.5t350 211t265 313.5t145.5 382q35 199 -9 378t-161 320q-115 135 -278.5 208t-358.5 73v20q201 0 373 -78q164 -74 281 -210q115 -135 161 -322q47 -190 11 -393q-35 -203 -146 -389q-53 -90 -121.5 -169t-148.5 -149q-164 -139 -356 -215 q-203 -78 -404 -78v21z" />
<glyph unicode="*" horiz-adv-x="1236" d="M197 942l387 215l-310 215l13 19l309 -215l72 409l20 -4l-72 -405l383 215l11 -19l-387 -217l309 -215l-12 -16l-310 215l-73 -410l-19 4l70 404l-381 -213z" />
<glyph unicode="+" horiz-adv-x="1384" d="M178 864v21h502l88 499l20 -4l-88 -495h494v-21h-498l-88 -499l-20 2l88 497h-498z" />
<glyph unicode="," horiz-adv-x="471" d="M170 -137l90 184l19 -8l-91 -184z" />
<glyph unicode="-" d="M182 618v21h893v-21h-893z" />
<glyph unicode="." horiz-adv-x="462" d="M193 23q4 18 17 30.5t32 12.5q16 0 27.5 -12.5t6.5 -30.5q-4 -16 -18 -28.5t-31 -12.5q-18 0 -28.5 12t-5.5 29z" />
<glyph unicode="/" horiz-adv-x="1347" d="M76 6l1188 1583l16 -12l-1188 -1583z" />
<glyph unicode="0" horiz-adv-x="1536" d="M127 795q29 164 103.5 311t185.5 264q111 113 231 174q135 66 260 66q111 0 201 -45q90 -41 160 -125q96 -115 133 -283q37 -176 4 -366q-29 -162 -103.5 -309.5t-185.5 -264.5q-109 -115 -233 -176q-131 -66 -260 -66q-104 0 -201 45q-92 47 -158 125q-47 57 -82 129 t-51 154q-37 176 -4 367zM147 439.5q35 -165.5 132 -279.5q139 -164 344 -164q125 0 247.5 60.5t231.5 174.5q109 113 181.5 258.5t100.5 305.5q33 188 -0.5 352t-132.5 278q-66 80 -154 122t-190 42q-123 0 -245.5 -60.5t-231.5 -172.5q-111 -115 -182.5 -260.5 t-100.5 -304.5q-35 -186 0 -351.5z" />
<glyph unicode="1" horiz-adv-x="493" d="M104 2l275 1561h-211v20h235l-278 -1585z" />
<glyph unicode="2" horiz-adv-x="1280" d="M35 0l20 16q2 2 40 35t99.5 86t140.5 121t161 138.5t160.5 138t141 122t101.5 88t43 37.5l14 15q18 16 49 46.5t64 74t59.5 96.5t38.5 119q16 92 -4 175t-73 148q-53 63 -129 97t-166 34q-78 0 -154 -24.5t-142.5 -69.5t-120.5 -107.5t-87 -138.5q-27 -61 -35 -117l-20 3 q12 61 36 122q35 78 90.5 142.5t125 111.5t148.5 73t159 26q94 0 174 -36t137 -102q57 -68 77.5 -155.5t4.5 -184.5q-12 -68 -41 -124t-61.5 -101t-64.5 -75.5t-50 -49.5l-7 -7t-8 -5q-2 -2 -57 -50t-141 -122t-188.5 -162t-198 -171t-172 -148.5t-109.5 -94.5h885v-20h-940 z" />
<glyph unicode="3" horiz-adv-x="1269" d="M33 328l20 2q25 -156 148 -243t315 -87q100 0 196.5 39t175.5 104.5t132 154.5t72 191q16 98 -4.5 187.5t-79.5 159.5q-57 68 -138.5 103.5t-177.5 35.5q-82 0 -157 -25l-46 -14l35 31l643 596h-776v20h830l-654 -602q59 14 125 14q100 0 186.5 -37.5t145.5 -109.5 t82.5 -165t5.5 -198q-18 -102 -71.5 -194t-139.5 -164t-184.5 -109.5t-200.5 -37.5q-100 0 -185 24.5t-149 73.5q-61 45 -99 108.5t-50 141.5z" />
<glyph unicode="4" horiz-adv-x="1331" d="M47 317l1188 1285l-223 -1264h219v-21h-223l-58 -321l-18 4l55 317h-940zM94 338h897l211 1198z" />
<glyph unicode="5" horiz-adv-x="1353" d="M90 322l19 4q39 -150 156.5 -238t279.5 -88q113 0 218 42t192 115.5t146.5 172t80.5 211.5q18 111 -5.5 208t-86.5 175q-63 74 -153.5 113.5t-197.5 39.5q-92 0 -185 -30.5t-175 -90.5l-21 -14l113 641h733v-20h-717l-100 -576q76 51 158 78q92 33 194 33q111 0 205 -42 t160 -120q63 -76 92 -180q25 -104 6 -219q-20 -113 -80.5 -214.5t-152.5 -179.5q-92 -80 -201.5 -121.5t-222.5 -41.5q-170 0 -295 96q-121 90 -160 246z" />
<glyph unicode="6" horiz-adv-x="1314" d="M129 506q25 143 123 270l606 813l16 -12l-516 -692q86 72 185.5 108.5t204.5 36.5q104 0 192 -39t152 -112q61 -74 86 -170q25 -100 4 -207q-18 -106 -74.5 -201.5t-144.5 -169.5q-88 -76 -190.5 -115t-207.5 -39q-104 0 -193 39t-151 113q-61 74 -86 168q-25 100 -6 209 zM150 502q-18 -104 4 -196.5t82 -164.5q59 -70 144 -106.5t185 -36.5q104 0 203.5 40t180.5 108.5t137.5 162t74.5 197.5q18 102 -4 194.5t-82 163.5q-59 72 -143 109t-184 37q-104 0 -205 -40t-181.5 -108.5t-137 -162t-74.5 -197.5z" />
<glyph unicode="7" horiz-adv-x="1273" d="M33 6l1181 1557h-1064v20h1105l-1206 -1589z" />
<glyph unicode="8" horiz-adv-x="1189" d="M57 479q16 102 70.5 192.5t138.5 162.5q139 119 307 141q-80 20 -137 84q-78 94 -55 231q10 66 45 123t88 103q111 94 244 94t211 -94q80 -96 55 -230q-23 -133 -133 -225q-76 -63 -168 -86q156 -24 252 -139q59 -72 81.5 -164t6.5 -195q-18 -102 -71.5 -192t-137.5 -162 q-86 -72 -183.5 -110t-197.5 -38t-184 37t-144 109q-61 72 -83.5 164t-4.5 194zM78 477q-16 -98 4 -186t78 -158q57 -66 137 -101.5t176 -35.5q100 0 194.5 38t172.5 103.5t131 153.5t71 188q16 98 -4 186.5t-80 157.5q-55 66 -135 102t-176 36q-100 0 -195.5 -38 t-172 -103.5t-130 -153.5t-71.5 -189zM401 1286q-22 -127 52 -213t194 -86q63 0 122.5 23.5t108 64.5t82 96.5t44.5 118.5q23 123 -52 213q-74 86 -194 86q-63 0 -123 -23.5t-108 -64.5t-81.5 -96t-44.5 -119z" />
<glyph unicode="9" horiz-adv-x="1259" d="M104 1079q18 106 75 202.5t145 170.5q90 76 192 116t209 40q106 0 195.5 -40t150.5 -114q63 -72 88 -170q25 -102 4 -209q-25 -145 -123 -272l-604 -809l-16 12l512 686q-86 -72 -185.5 -108.5t-203.5 -36.5q-106 0 -195.5 40t-150.5 113q-63 72 -88 170q-25 100 -5 209z M123 1075q-16 -104 6.5 -197.5t81.5 -164.5q59 -72 144 -109t188 -37q104 0 204.5 40t182.5 109.5t139.5 163t75.5 199.5q16 104 -6.5 197.5t-81.5 165.5t-144.5 108.5t-187.5 36.5q-104 0 -204.5 -40t-182.5 -109.5t-139.5 -162.5t-75.5 -200z" />
<glyph unicode=":" horiz-adv-x="753" d="M281 424q4 23 20 37t39 14t35 -14.5t8 -36.5q-4 -23 -21.5 -37t-39.5 -14q-23 0 -34 14t-7 37zM389 1038q4 23 20.5 37.5t39.5 14.5t35 -14.5t8 -37.5t-21.5 -37t-40.5 -14t-34 14t-7 37z" />
<glyph unicode=";" horiz-adv-x="743" d="M252 293l90 184l18 -8l-90 -184zM365 1038q4 23 20 37.5t39 14.5t35 -14.5t8 -37.5t-21.5 -37t-39.5 -14q-23 0 -34.5 14.5t-6.5 36.5z" />
<glyph unicode="&#x3c;" horiz-adv-x="755" d="M61 664l566 481l14 -17l-551 -466l385 -465l-16 -15z" />
<glyph unicode="=" horiz-adv-x="1400" d="M152 500v20h1015v-20h-1015zM238 991v21h1017v-21h-1017z" />
<glyph unicode="&#x3e;" horiz-adv-x="751" d="M106 197l549 467l-383 466l17 13l395 -481l-565 -480z" />
<glyph unicode="?" horiz-adv-x="1316" d="M174 1292q45 68 104.5 125.5t131.5 98.5t151.5 63.5t157.5 22.5q109 0 200 -40t154 -118q61 -72 88 -174q29 -102 6 -213q-18 -111 -76.5 -209t-148.5 -176q-92 -78 -196.5 -118t-215.5 -40q-100 0 -180 33l-59 -340l-21 4l66 364l10 -6q88 -35 184 -34q109 0 211.5 40.5 t186.5 112.5t142 167t77 204q18 106 -4.5 202.5t-85.5 170.5q-59 72 -146.5 110.5t-191.5 38.5q-154 0 -296 -82t-233 -219zM203 29q4 23 20.5 37t38.5 14q23 0 35 -14.5t8 -36.5q-4 -23 -21.5 -37.5t-39.5 -14.5q-23 0 -34 14.5t-7 37.5z" />
<glyph unicode="@" horiz-adv-x="1859" d="M96 440q31 164 121 318q84 143 219 258q66 55 138.5 99t150.5 75q82 31 163 47t165 16q162 0 298 -60t232 -175q96 -111 133 -260q39 -158 8 -320q-16 -92 -55 -172t-92 -127q-57 -51 -119 -69q-61 -18 -115 -2q-80 27 -98 122v3v2v8q-84 -102 -203.5 -166t-250.5 -64 q-92 0 -171 35t-133 101q-55 66 -76.5 151.5t-4.5 179.5q16 94 65 178t127 150t168 100.5t184 34.5q98 0 181 -37t141 -106q16 -18 29.5 -39t23.5 -43l27 153l20 -4l-96 -542l-8 -52v-2q-4 -14 -3 -22t1 -12v-4q16 -82 84 -105q47 -16 104 2.5t109 65.5q51 45 88 121.5 t53 162.5q29 162 -6 307.5t-129 258.5q-92 111 -225.5 169t-290.5 58q-164 0 -319.5 -62.5t-283.5 -170t-216.5 -253t-116.5 -309.5q-29 -162 7 -307t130 -258q92 -111 224 -169t292 -58q68 0 136.5 11t133.5 34l9 -21q-70 -23 -139.5 -34t-139.5 -11q-164 0 -300 60.5 t-232 175.5q-92 109 -132 260q-39 150 -10 319zM426 438q-16 -92 4.5 -173t73.5 -144q51 -61 125 -94t162 -33q135 0 256.5 68.5t199.5 179.5l72 399q-23 59 -64 107q-53 66 -133 100.5t-172 34.5q-94 0 -181 -35t-157.5 -94.5t-120 -140.5t-65.5 -175z" />
<glyph unicode="A" horiz-adv-x="1476" d="M2 4l987 1618l420 -1620l-18 -6l-168 647h-807l-396 -649zM428 664h789l-234 907z" />
<glyph unicode="B" horiz-adv-x="1449" d="M76 0l2 12l276 1571h557h4h11q76 0 147 -16q119 -29 178 -103q61 -70 61 -182q0 -38 -7 -82q-20 -125 -101 -213q-61 -70 -155 -113q-27 -10 -52.5 -19t-48.5 -13q213 -25 309 -140q45 -53 60 -120q8 -37 7 -78q0 -36 -5 -76q-35 -193 -193 -311q-74 -57 -166 -87 t-190 -30h-694zM100 20h670q100 0 189.5 31t159 85t116.5 129t63 165q7 40 7 77q0 108 -64 183q-55 66 -155.5 101.5t-241.5 35.5h-602zM246 848h598q29 0 61 6q29 4 64 14.5t73 26.5q205 90 242 307q7 43 7 81q0 104 -54 169q-45 53 -125 82t-186 29h-11h-4h-540z" />
<glyph unicode="C" horiz-adv-x="1718" d="M122 631v25q0 68 13 139q27 166 121 317q88 147 219 260q135 113 291 174q158 63 328 64q84 0 160.5 -15.5t146.5 -48.5q137 -61 229 -176l-16 -12q-92 113 -226.5 172t-293.5 59q-166 0 -322 -62.5t-284 -171t-216 -254t-116 -310.5q-13 -73 -13 -143q0 -84 19 -164 q35 -146 131 -259q92 -111 225 -170t291 -59q160 0 315.5 60.5t290.5 172.5l12 -14q-135 -115 -288 -176q-168 -64 -330 -64t-299 60.5t-234 175.5q-96 115 -133 262q-18 78 -21 158z" />
<glyph unicode="D" horiz-adv-x="1538" d="M57 0l2 12l277 1571h450q176 0 318 -61q135 -59 229 -168q92 -112 125 -254q18 -76 17 -156q0 -71 -13 -147q-29 -164 -110.5 -307.5t-208.5 -253.5q-125 -113 -285 -173q-164 -63 -346 -63h-455zM82 20h430q172 0 327.5 58.5t280.5 162t209 247t115 313.5q12 71 12 139 q0 80 -17 156q-32 139 -122 245q-92 109 -228.5 165.5t-302.5 56.5h-434z" />
<glyph unicode="E" horiz-adv-x="1267" d="M55 0l279 1583h872v-20h-854l-127 -719h830v-21h-834l-141 -803h850v-20h-875z" />
<glyph unicode="F" horiz-adv-x="1253" d="M57 2l279 1581h872v-20h-856l-125 -719h828v-21h-832l-145 -825z" />
<glyph unicode="G" horiz-adv-x="1861" d="M115 795q14 84 43.5 162.5t74.5 154.5q45 72 100.5 137.5t121.5 120.5q133 115 290 176q80 31 162 47.5t166 16.5q113 0 215.5 -30t185 -86t145 -136t99.5 -180l4 -11l-18 -6l-4 10q-35 96 -96.5 174t-142.5 132.5t-179 83t-209 28.5q-166 0 -321.5 -62.5t-283.5 -171 t-216 -254t-117 -310.5q-13 -73 -13 -143q0 -85 19 -164q35 -146 131 -261q92 -111 225.5 -169t290.5 -58q145 0 284.5 48t259.5 135t213 207t145 261h-756v21h784l-6 -13q-47 -141 -140 -266t-218 -219q-123 -90 -269 -143q-145 -52 -297 -52q-162 0 -299 60.5t-233 175.5 t-133 262q-22 88 -22 178q0 71 14 144z" />
<glyph unicode="H" horiz-adv-x="1527" d="M47 2l279 1583l20 -4l-123 -700h1116l125 704l21 -4l-281 -1583l-18 4l149 858h-1116l-151 -862z" />
<glyph unicode="I" horiz-adv-x="389" d="M45 2l279 1583l20 -4l-278 -1583z" />
<glyph unicode="J" horiz-adv-x="1290" d="M57 174l19 10l4 -4q14 -23 38.5 -54.5t66.5 -60t102.5 -49t148.5 -20.5q86 0 181.5 20.5t179.5 77t150.5 155.5t96.5 257q4 12 5 18l188 1061l20 -4l-188 -1063q0 -4 -4 -16q-4 -20 -11 -54t-21.5 -74t-37 -85t-55.5 -90q-168 -224 -504 -224q-92 0 -155.5 21.5 t-106.5 52.5t-69.5 63.5t-43.5 55.5z" />
<glyph unicode="K" horiz-adv-x="1574" d="M76 2l278 1583l21 -4l-162 -922l1288 930l12 -16l-940 -678l764 -889l-14 -12l-766 889l-350 -252l-111 -633z" />
<glyph unicode="L" horiz-adv-x="1083" d="M135 0l2 12l277 1573l20 -4l-274 -1561h852v-20h-877z" />
<glyph unicode="M" horiz-adv-x="2023" d="M37 -4l608 1624l326 -1600l889 1604l36 -1632l-20 -2l-35 1558l-878 -1587l-322 1585l-584 -1556z" />
<glyph unicode="N" horiz-adv-x="1695" d="M41 2l287 1618l1024 -1602l276 1567l19 -4l-285 -1618l-1024 1602l-277 -1567z" />
<glyph unicode="O" horiz-adv-x="1822" d="M92 795q16 84 45 162.5t76 154.5q88 150 219 258q133 115 291 176q168 63 328 64q164 0 301 -60.5t233 -175.5q47 -57 80 -122.5t53 -139.5q21 -85 21 -176q0 -71 -13 -145q-16 -84 -44.5 -163t-75.5 -155q-88 -150 -220 -258q-133 -115 -290 -176q-160 -64 -328 -64 q-164 0 -301 60.5t-234 175.5q-96 115 -133 262q-22 88 -22 178q0 71 14 144zM113 791q-13 -73 -13 -143q0 -84 19 -164q35 -146 131 -261q92 -111 225 -169t293 -58q164 0 320.5 62.5t283.5 171t216 254t118 311.5q13 73 13 143q0 84 -19 164q-35 145 -131 258 q-92 111 -225 170t-293 59q-164 0 -321 -62.5t-284 -171t-216 -254t-117 -310.5z" />
<glyph unicode="P" horiz-adv-x="1204" d="M12 2l279 1581h403q135 0 238.5 -38t163.5 -109q74 -88 74 -215q0 -44 -9 -93q-18 -111 -78 -208q-55 -92 -141 -160q-43 -33 -90 -57.5t-100 -40.5q-107 -33 -214 -33h-12h-383l-110 -631zM147 649h379h13q109 0 207 32q104 34 186 98.5t137 154.5t74 199q8 45 8 85 q0 122 -70 203q-57 68 -156.5 105t-230.5 37h-387z" />
<glyph unicode="Q" horiz-adv-x="1886" d="M135 795q16 84 45 162.5t76 154.5q88 150 219 258q133 115 291 176q168 63 328 64q164 0 301 -60.5t233 -175.5q47 -57 80 -122.5t53 -139.5q21 -85 21 -176q0 -71 -13 -145q-16 -84 -44.5 -163t-75.5 -155q-88 -150 -219 -258l157 -209l-16 -12l-156 209 q-125 -104 -276 -164q-160 -63 -328 -64q-164 0 -301 60.5t-234 175.5q-96 115 -133 262q-22 88 -22 178q0 71 14 144zM156 791q-13 -73 -13 -143q0 -85 19 -164q35 -146 131 -261q92 -111 225 -169t293 -58t312.5 59.5t279.5 163.5l-291 387l16 12l289 -387 q129 111 216 254.5t116 309.5q13 73 13 143q0 85 -19 164q-35 145 -131 258q-92 111 -225.5 170t-292.5 59q-164 0 -321 -62.5t-284 -171t-216 -254t-117 -310.5z" />
<glyph unicode="R" horiz-adv-x="1294" d="M55 0l279 1583h403q135 0 238.5 -39t163.5 -110q51 -62 65 -134q10 -39 10 -85q0 -41 -8 -87q-41 -229 -219 -366q-86 -66 -192 -98q-39 -14 -81 -21.5t-85 -11.5l372 -625l-18 -12l-377 635h-35h-385l-110 -631zM190 649h381q119 0 222.5 35t184.5 98.5t135.5 152.5 t72.5 198q8 44 8 84q0 120 -70 202q-59 70 -158.5 107t-228.5 37h-387z" />
<glyph unicode="S" horiz-adv-x="1374" d="M39 262l18 8q20 -59 66.5 -108t109 -86t139.5 -58.5t158 -21.5q11 -1 24 -1q56 1 139 15q102 18 210 70q39 20 83 50t84 72t73 95t51 121q13 50 13 95q0 90 -52 159q-59 76 -173 115.5t-273 39.5q-31 0 -87.5 4.5t-117.5 20.5q-141 33 -211 119q-54 65 -54 157 q0 42 11 89q23 94 74 167q47 63 120 119q66 45 147 72t173 33q26 2 51 2q58 0 114 -10q81 -14 152 -41q152 -66 195 -181l-19 -8q-20 53 -67 96t-112.5 72t-145.5 42q-55 9 -112 9q-27 0 -54 -2q-197 -14 -327 -112.5t-169 -262.5q-10 -43 -10 -82q0 -86 49 -147 q37 -47 95.5 -73.5t117 -41t110.5 -17.5t77 -3q154 0 276 -41q121 -43 186 -123q56 -75 56 -173q0 -47 -13 -99q-18 -70 -52 -125.5t-76 -98.5t-87 -74.5t-86 -52.5q-96 -47 -206 -71q-37 -8 -73 -11.5t-71 -3.5h-35q-82 2 -160.5 22.5t-146.5 61.5q-141 82 -182 203z" />
<glyph unicode="T" horiz-adv-x="1294" d="M49 1563v20h1206v-20h-593l-277 -1565l-20 4l276 1561h-592z" />
<glyph unicode="U" horiz-adv-x="1552" d="M64 386q-1 22 -1 43q1 39 5 74q6 54 12 85l176 997l18 -4l-174 -995q-6 -31 -13 -83q-5 -36 -5 -77q0 -18 1 -36q3 -62 21.5 -126.5t65.5 -120.5q123 -147 416 -147q592 0 696 592l176 997l21 -4l-176 -995q-4 -25 -12.5 -64t-24 -87t-41 -100t-62.5 -104 q-188 -256 -577 -256q-303 0 -432 154q-47 57 -66.5 125t-23.5 132z" />
<glyph unicode="V" horiz-adv-x="1529" d="M78 1581l18 4l408 -1571l960 1575l19 -12l-987 -1616z" />
<glyph unicode="W" horiz-adv-x="2488" d="M35 1581l18 4l314 -1562l878 1599l316 -1599l864 1564l18 -10l-891 -1614l-315 1600l-881 -1600z" />
<glyph unicode="X" horiz-adv-x="1513" d="M23 6l739 815l-418 758l16 8l416 -749l680 751l17 -12l-687 -758l451 -815l-18 -8l-447 807l-735 -809z" />
<glyph unicode="Y" horiz-adv-x="1388" d="M33 1579l16 8l479 -917l805 919l15 -12l-811 -930l-115 -649l-21 4l115 647z" />
<glyph unicode="Z" horiz-adv-x="1417" d="M6 0l1358 1563h-1020v20h1065l-1358 -1563h1061v-20h-1106z" />
<glyph unicode="[" horiz-adv-x="778" d="M47 -283l2 13l350 1982h332v-20h-315l-344 -1954h313v-21h-338z" />
<glyph unicode="\" horiz-adv-x="796" d="M66 1579l18 8l631 -1583l-19 -8z" />
<glyph unicode="]" horiz-adv-x="778" d="M41 -262h317l344 1954h-311v20h336l-2 -12l-350 -1983h-334v21z" />
<glyph unicode="^" horiz-adv-x="1095" d="M61 1241l566 479l397 -481l-16 -12l-383 465l-549 -467z" />
<glyph unicode="_" horiz-adv-x="1306" d="M96 0v20h1118v-20h-1118z" />
<glyph unicode="`" horiz-adv-x="256" d="M109 1583l18 8l29 -205l-19 -8z" />
<glyph unicode="a" horiz-adv-x="1241" d="M88 492q18 104 72.5 197t140.5 167q86 72 186.5 111t204.5 39q102 0 189.5 -39t146.5 -111q33 -39 57 -88l31 176l19 -4l-166 -942l-19 4l35 207q-18 -23 -38.5 -43.5t-43.5 -40.5q-86 -72 -185.5 -111t-203.5 -39t-190 39t-148 111t-84 167q-12 53 -12 109q0 44 8 91z M109 489q-8 -46 -8 -90q0 -51 11 -100q21 -90 81 -162q57 -70 140 -105.5t181 -35.5q141 0 268 70.5t211 187.5l84 477q-20 57 -65 113q-57 68 -139 104.5t-181 36.5q-102 0 -199.5 -39t-177 -106.5t-134 -157.5t-72.5 -193z" />
<glyph unicode="b" horiz-adv-x="1239" d="M55 2l285 1622l20 -4l-149 -848q18 23 38.5 43.5t43.5 40.5q86 72 186.5 111t204.5 39q102 0 189.5 -39t146.5 -111q60 -74 84 -168q13 -53 14 -110q0 -43 -8 -89q-18 -104 -73.5 -197t-141.5 -167q-86 -72 -185.5 -111t-203.5 -39t-190.5 39t-147.5 111q-35 41 -55 88 l-39 -215zM119 250q12 -31 27.5 -59.5t37.5 -53.5q57 -70 140.5 -105.5t181.5 -35.5q102 0 199.5 39t176.5 106.5t134.5 158t73.5 192.5q7 43 7 84q-1 55 -13 106q-22 90 -80 162q-57 68 -139.5 104.5t-180.5 36.5q-72 0 -139.5 -18.5t-130 -52t-115.5 -82t-96 -105.5z" />
<glyph unicode="c" horiz-adv-x="1159" d="M90 494q16 104 71.5 197t141.5 165q86 74 186.5 113t204.5 39t191.5 -39t148.5 -113l-16 -12q-59 70 -142 106.5t-182 36.5q-102 0 -199.5 -39t-177 -106.5t-135 -158.5t-73.5 -194q-7 -43 -7 -85q0 -54 12 -105q21 -90 81 -162q57 -68 140 -104.5t181 -36.5 q100 0 196.5 37t180.5 108l12 -14q-86 -74 -185.5 -113t-203.5 -39t-190 39t-148 111q-62 74 -84 169q-12 53 -12 109q0 44 8 91z" />
<glyph unicode="d" horiz-adv-x="1284" d="M88 492q18 104 72.5 197t140.5 167q86 72 186.5 111t204.5 39q102 0 189.5 -39t146.5 -111q33 -39 57 -88l150 856l20 -4l-286 -1622l-19 4l35 207q-18 -23 -38.5 -43.5t-43.5 -40.5q-86 -72 -185.5 -111t-203.5 -39t-190 39t-148 111t-84 167q-12 53 -12 109q0 44 8 91z M109 489q-8 -46 -8 -90q0 -51 11 -100q21 -90 81 -162q57 -70 140 -105.5t181 -35.5q141 0 268 70.5t211 187.5l84 477q-20 57 -65 113q-57 68 -139 104.5t-181 36.5q-102 0 -199.5 -39t-177 -106.5t-134 -157.5t-72.5 -193z" />
<glyph unicode="e" horiz-adv-x="1245" d="M88 492q18 104 72.5 197t140.5 167q86 72 186.5 111t204.5 39q102 0 188.5 -39t147.5 -111q59 -72 84 -166q14 -55 14 -113q0 -44 -8 -90l-2 -8h-1010q-7 -41 -7 -80q-1 -55 13 -106q22 -88 81 -156q57 -70 140 -105.5t181 -35.5q133 0 259 65.5t214 182.5l17 -13 q-43 -57 -98.5 -104t-119.5 -80q-131 -72 -272 -72q-104 0 -190 39t-148 111t-84 167q-12 53 -12 109q0 44 8 91zM111 500h987q7 42 7 82q-1 54 -13 104q-22 88 -80 158q-57 68 -139 104.5t-181 36.5q-102 0 -197.5 -38t-174 -104.5t-134 -154.5t-75.5 -188z" />
<glyph unicode="f" horiz-adv-x="903" d="M25 963v20h196l33 193q2 4 2 8t2 10q4 20 12.5 54t21.5 74t35.5 85t55.5 88q168 223 506 223v-20q-88 0 -182.5 -20.5t-179.5 -76t-151 -154.5t-97 -257q-2 -6 -2.5 -10t-2.5 -9l-32 -188h250v-20h-254l-170 -963l-19 4l168 959h-192z" />
<glyph unicode="g" horiz-adv-x="1245" d="M74 -389l16 12q0 -2 4 -6q4 0 4 -2q74 -47 142 -59l34 -7q35 -4 65 -5t58 1q115 6 213 43q16 6 31.5 13.5t30.5 13.5q16 8 29.5 16.5t27.5 18.5q4 2 5 4t5 4q4 4 6.5 5t6.5 5q86 68 139 168q4 12 6 17q4 6 8 18q8 18 16.5 36.5t14.5 35.5q4 16 7 29.5t7 27.5 q10 53 20.5 106.5t20.5 106.5q-20 -23 -41.5 -45.5t-44.5 -42.5q-86 -72 -185 -111t-204 -39q-104 0 -190 39t-148 111q-61 72 -84 167q-12 53 -12 109q0 44 8 91q18 104 72.5 197t140.5 167q86 72 186.5 111t204.5 39q102 0 189.5 -39t146.5 -111q37 -43 57 -90 q10 55 19.5 109.5t19.5 109.5l21 -4q-10 -63 -22.5 -125.5t-22.5 -126.5l-84 -479q-10 -66 -22.5 -128.5t-24.5 -125.5q-4 -14 -8.5 -27.5t-8.5 -29.5v-2q-6 -18 -13 -37t-15 -37h-2l-6 -19q-4 -4 -5.5 -8t-5.5 -8q-51 -104 -143 -176q-4 -4 -6 -5t-4 -3q-8 -8 -15 -11 q-14 -10 -27.5 -18t-29.5 -18q-16 -6 -31.5 -14.5t-32.5 -14.5q-102 -37 -219 -43h-34h-43t-50 4l-36 6q-37 8 -72 22.5t-76 41.5q-2 0 -4 2q-4 4 -6 5t-4 5zM111 489q-8 -46 -8 -90q0 -52 11 -100q21 -90 81 -162q57 -70 140 -105.5t181 -35.5q70 0 139.5 19.5t132 53 t116.5 82t95 107.5l82 471q-25 63 -67 115q-57 68 -139 104.5t-181 36.5q-102 0 -199.5 -39t-177 -106.5t-134 -157.5t-72.5 -193z" />
<glyph unicode="h" horiz-adv-x="1132" d="M80 2l4 25h-2l283 1597l20 -4l-160 -901q31 63 79 115.5t107.5 91.5t126 60.5t136.5 21.5h2q84 0 154.5 -31t119.5 -90q81 -99 81 -225q0 -37 -7 -76l-104 -588l-19 4l103 588q6 34 6 68q0 44 -10 84q-18 72 -66 130q-47 55 -113.5 85t-144.5 30h-2q-84 0 -162 -31.5 t-142.5 -86t-108.5 -128t-58 -155.5l-105 -588z" />
<glyph unicode="i" horiz-adv-x="348" d="M47 2l172 983l21 -4l-174 -983zM262 1294q4 23 27 23q19 0 18 -16v-7q-4 -22 -24 -22h-2q-20 0 -20 16q0 3 1 6z" />
<glyph unicode="j" horiz-adv-x="854" d="M-29 -467l2 21q10 -2 18.5 -2.5t18.5 -0.5h70q82 0 160.5 32t143.5 86.5t109 127t58 156.5l182 1032l21 -4l-183 -1032q-16 -86 -62 -162t-112.5 -133t-148.5 -90t-168 -33h-70h-19t-20 2zM776 1294q4 23 27 23q19 0 19 -16q0 -3 -1 -7q-4 -22 -24 -22h-2q-20 0 -20 16 q0 3 1 6z" />
<glyph unicode="k" horiz-adv-x="1030" d="M55 2l287 1622l20 -4l-212 -1202l792 571l12 -16l-579 -418l471 -549l-15 -12l-473 549l-213 -154l-69 -391z" />
<glyph unicode="l" horiz-adv-x="348" d="M20 2l285 1622l21 -4l-287 -1622z" />
<glyph unicode="m" horiz-adv-x="1773" d="M76 2l108 627l64 356l20 -4l-41 -227q29 55 72 101t94 80t109.5 52.5t118.5 18.5q72 0 134 -28t105 -79q23 -29 38 -58.5t24 -64.5q4 -16 6 -30.5t4 -30.5q25 61 67.5 114.5t97 92.5t117 61.5t127.5 22.5q72 0 134.5 -28t105.5 -79q23 -29 38 -58.5t23 -64.5 q10 -44 11 -88q0 -32 -6 -63l-111 -627l-18 4l108 627q7 35 7 67q0 36 -9 72q-16 66 -59 117q-41 49 -98.5 74.5t-125.5 25.5q-74 0 -142.5 -28.5t-124.5 -78t-96 -115t-52 -138.5l-111 -627l-18 4l108 627q7 35 7 67q0 36 -9 72q-16 66 -59 117q-41 49 -98.5 74.5 t-124.5 25.5q-74 0 -142.5 -28.5t-125 -78t-96.5 -115t-52 -138.5l-111 -627z" />
<glyph unicode="n" horiz-adv-x="1150" d="M78 2l172 983l20 -4l-47 -262q31 63 79 115.5t107.5 91.5t126 60.5t136.5 21.5h2q84 0 154.5 -31t119.5 -90q81 -99 81 -225q0 -37 -7 -76l-104 -588l-19 4l102 588q6 35 6 69q0 43 -10 83q-18 72 -65 130q-47 55 -113.5 85t-144.5 30h-2q-84 0 -162 -31.5t-142.5 -86 t-108.5 -128t-58 -155.5l-105 -588z" />
<glyph unicode="o" d="M88 494q18 104 73.5 197t141.5 165q86 74 185.5 113t203.5 39t191.5 -39t146.5 -111q61 -74 85 -169q13 -53 14 -109q0 -44 -9 -91q-18 -104 -73.5 -197t-141.5 -167q-86 -72 -186.5 -111t-204.5 -39t-190 39t-146 111q-64 74 -86 169q-12 53 -12 109q0 44 8 91zM109 489 q-8 -46 -8 -90q0 -51 11 -100q21 -90 81 -162q59 -68 141 -104.5t180 -36.5q102 0 199.5 39t177.5 106.5t135 158.5t74 194q7 43 7 84q-1 55 -13 106q-22 90 -80 162q-57 68 -140.5 104.5t-181.5 36.5q-102 0 -199.5 -39t-177 -106.5t-134 -158.5t-72.5 -194z" />
<glyph unicode="p" horiz-adv-x="1282" d="M14 -463l256 1448l21 -4l-37 -209q18 23 38.5 43.5t43.5 40.5q86 72 186.5 111t204.5 39q102 0 189.5 -39t146.5 -111q61 -74 85 -168q13 -53 13 -110q0 -43 -8 -89q-18 -104 -73.5 -197t-141.5 -167q-86 -72 -185.5 -111t-203.5 -39t-190.5 39t-147.5 111q-35 41 -55 88 l-121 -680zM162 250q12 -31 27.5 -59.5t37.5 -53.5q57 -70 140.5 -105.5t181.5 -35.5q102 0 199.5 39t176.5 106.5t134 157.5t74 193q7 43 7 84q0 54 -12 106q-22 90 -81 162q-57 68 -139.5 104.5t-180.5 36.5q-72 0 -139.5 -18.5t-130 -52t-115.5 -82t-96 -105.5z" />
<glyph unicode="q" horiz-adv-x="1200" d="M90 492q18 104 72.5 197t140.5 167q86 72 186.5 111t204.5 39q102 0 189.5 -39t146.5 -111q33 -39 57 -88l37 217l21 -4l-256 -1448l-21 4l119 672q-18 -23 -38.5 -43.5t-43.5 -40.5q-86 -72 -185 -111t-204 -39q-104 0 -190 39t-148 111q-61 72 -84 167q-12 53 -12 109 q0 44 8 91zM111 489q-8 -46 -8 -90q0 -52 11 -100q21 -90 81 -162q57 -70 140 -105.5t181 -35.5q141 0 268 70.5t211 187.5l84 477q-20 57 -65 113q-57 68 -139 104.5t-181 36.5q-102 0 -199.5 -39t-177 -106.5t-134 -157.5t-72.5 -193z" />
<glyph unicode="r" horiz-adv-x="868" d="M61 2l172 983l21 -4l-53 -307q12 33 25.5 58.5t25.5 45.5q63 104 149 158q107 72 246 72q127 0 207 -62l-12 -16q-76 57 -195 57q-88 0 -155.5 -26.5t-118.5 -69.5t-87 -97.5t-59.5 -109.5t-38 -107.5t-20.5 -89.5l-86 -489h-2z" />
<glyph unicode="s" horiz-adv-x="978" d="M70 158l18 6q12 -35 41 -65.5t68 -53t86 -36t98 -13.5q10 -1 23 -1q34 0 80 8q64 11 128 46q51 25 104.5 74t76.5 133q8 31 8 59q0 56 -33 99q-35 45 -106.5 69.5t-167.5 24.5q-23 0 -57 3t-72.5 12t-74.5 27.5t-61 49.5q-34 44 -34 104q0 26 6 54q27 113 125 182 q41 29 92 45t108 21q17 1 34 1q36 1 70 -5q52 -8 97 -27q96 -41 125 -115l-18 -8q-27 66 -112 104q-70 31 -156 30q-18 0 -38 -1q-123 -8 -203.5 -69.5t-103.5 -161.5q-5 -25 -5 -48q0 -54 30 -94q23 -29 58.5 -46t72.5 -25.5t68.5 -10.5t48.5 -2q102 0 176.5 -26.5 t113.5 -75.5q38 -48 38 -110q0 -30 -9 -64q-12 -45 -33.5 -80t-47 -62.5t-54.5 -47t-55 -31.5q-61 -33 -121 -44.5t-101 -11.5h-22q-53 0 -103.5 14.5t-92.5 39t-71.5 57.5t-41.5 72z" />
<glyph unicode="t" horiz-adv-x="589" d="M68 963v20h196l113 641l20 -4l-112 -637h250v-20h-254l-168 -963l-21 4l168 959h-192z" />
<glyph unicode="u" horiz-adv-x="1146" d="M127 397l102 588l21 -4l-105 -588q-6 -34 -6 -68q1 -45 11 -85q18 -72 65 -129q96 -115 258 -115h2q82 0 161 31.5t143.5 86t108.5 127t60 156.5l103 588l20 -4l-104 -588l-66 -370l-18 4l41 237q-31 -63 -79 -116.5t-106.5 -91.5t-126 -59.5t-137.5 -21.5h-2 q-170 0 -274 121q-49 61 -69 138q-11 42 -10 87q0 37 7 76z" />
<glyph unicode="v" horiz-adv-x="1015" d="M78 981l20 4l252 -971l596 975l19 -12l-621 -1016z" />
<glyph unicode="w" horiz-adv-x="1603" d="M74 981l18 4l193 -962l549 997l196 -997l533 964l18 -10l-561 -1014l-197 998l-547 -998z" />
<glyph unicode="x" horiz-adv-x="1032" d="M35 6l477 506l-276 465l16 12l276 -463l439 463l16 -12l-444 -469l299 -502l-17 -12l-297 500l-475 -500z" />
<glyph unicode="y" horiz-adv-x="1181" d="M76 -459l334 461l-330 977l20 8l324 -964l700 966l17 -12l-1049 -1448z" />
<glyph unicode="z" horiz-adv-x="1124" d="M37 0l995 963h-770v20h821l-995 -963h801v-20h-852z" />
<glyph unicode="{" horiz-adv-x="837" d="M109 -115l116 664q12 63 -24 110q-35 41 -90 41v21q31 0 59.5 12t52 33.5t40 49.5t22.5 61l116 663q12 72 70.5 122t130.5 50h162v-20h-162q-66 0 -118 -45t-62 -111l-119 -664q-10 -57 -48 -101t-89 -60q33 -14 49 -37q43 -53 31 -129l-117 -664q-12 -63 27 -108 q33 -43 96 -43h162v-21h-162q-70 0 -113 49q-43 53 -30 127z" />
<glyph unicode="|" horiz-adv-x="636" d="M131 -289l354 2003l21 -4l-354 -2003z" />
<glyph unicode="}" horiz-adv-x="882" d="M92 -270h162q63 0 115.5 45t64.5 110l117 664q10 55 48 100t89 62q-29 12 -49 37q-23 25 -30 58.5t-1 70.5l117 663q12 63 -27 109q-35 43 -96 43h-162v20h162q72 0 113 -51q43 -49 30 -125l-116 -664q-12 -66 26 -110q31 -41 88 -41v-21q-31 0 -59.5 -12t-51 -33.5 t-38.5 -49t-23 -60.5l-116 -664q-6 -35 -25.5 -66.5t-47.5 -55t-60.5 -37t-67.5 -13.5h-162v21z" />
<glyph unicode="~" horiz-adv-x="909" d="M92 1030q12 12 39 37t43 39q72 66 160 55q74 -4 115 -57l20 -23q35 -45 96 -51q82 -6 150 51q18 16 40.5 37t39.5 37l14 -14q-16 -16 -38.5 -38t-43.5 -38q-67 -55 -145 -55h-19q-70 6 -110 57l-21 25q-35 45 -100 51q-39 4 -77 -10.5t-69 -40.5q-16 -14 -41.5 -39 t-38.5 -39z" />
<glyph unicode="&#xa1;" horiz-adv-x="532" d="M115 2l237 1358l21 -4l-240 -1358zM356 1559q4 18 18.5 30.5t31.5 12.5q18 0 28 -12.5t6 -30.5q-4 -16 -18 -28.5t-31 -12.5q-16 0 -27.5 12t-7.5 29z" />
<glyph unicode="&#xa2;" horiz-adv-x="1177" d="M123 795q18 104 73.5 197t141.5 165q80 70 175 109t194 43l49 276l18 -4l-47 -272q104 0 191.5 -40t148.5 -112l-16 -14q-57 72 -140.5 108.5t-183.5 36.5q-102 0 -199.5 -39t-177.5 -106.5t-134 -158.5t-73 -193q-18 -100 3.5 -190.5t80.5 -162.5q59 -68 141.5 -104.5 t180.5 -36.5q100 0 196.5 37t180.5 108l14 -16q-86 -72 -186.5 -111t-204.5 -39h-4l-49 -278l-21 4l49 274q-96 4 -176 43t-135 107q-63 74 -86 169t-4 200z" />
<glyph unicode="&#xa3;" horiz-adv-x="1316" d="M57 16q4 29 24.5 66t52.5 71.5t75 64.5t92 46q27 8 59.5 11.5t69.5 -5.5q92 117 106.5 209t-12.5 172h-276v21h270q-16 39 -34.5 74.5t-41.5 72.5q-23 41 -45 83t-37.5 86t-21.5 93t4 103v6q14 86 61.5 161.5t114 133t149.5 90.5t169 33h8q170 0 274 -121 q49 -61 68.5 -138t3.5 -163l-19 4q14 80 -4 152.5t-65 130.5q-96 115 -258 114h-8q-84 0 -162 -31.5t-142.5 -86t-109.5 -128t-60 -155.5v-6q-10 -51 -3.5 -98.5t21.5 -90.5t36.5 -83t44.5 -79t43 -77.5t35 -79.5h381v-21h-373q4 -18 8 -35.5t6 -37.5q8 -72 -16 -148 q-29 -82 -94 -166q31 -10 62.5 -28.5t61.5 -53.5l125 -133q31 -33 71 -49t83 -16t84 16t76 49l14 -16q-37 -35 -82 -51.5t-92 -16.5t-90 17.5t-78 54.5l-125 131q-117 119 -254 76q-84 -25 -155 -103q-29 -33 -49.5 -66.5t-24.5 -60.5z" />
<glyph unicode="&#xa4;" horiz-adv-x="1484" d="M170 252l192 164q-47 63 -65 142t-2 167t63.5 168t118.5 143l-135 164l16 12l134 -161q74 59 158.5 91t170.5 32q88 0 162 -32t127 -91l190 163l15 -16l-193 -164q51 -63 69.5 -143t2.5 -170q-16 -86 -61.5 -166t-114.5 -141l133 -164l-16 -12l-134 161 q-74 -61 -159.5 -94t-173.5 -33q-182 0 -291 127l-195 -163zM315 721q-16 -86 3.5 -165t70.5 -140q49 -59 121 -91t158 -32q88 0 173 33.5t153.5 93t116 137.5t63.5 168q16 86 -3.5 165t-70.5 140q-49 59 -121 91t-158 32q-90 0 -174 -34t-152.5 -93t-116.5 -138t-63 -167z " />
<glyph unicode="&#xa5;" horiz-adv-x="1513" d="M59 637v20h576l-127 244h-402v21h392l-342 657l18 8l479 -917l803 919l17 -12l-574 -655h395v-21h-407v4l-217 -248h577v-20h-590l-112 -639l-21 4l113 635h-578z" />
<glyph unicode="&#xa8;" horiz-adv-x="694" d="M125 1538q4 18 17.5 30.5t31.5 12.5q16 0 27.5 -12.5t7.5 -30.5q-4 -16 -18.5 -28.5t-30.5 -12.5q-18 0 -28.5 12.5t-6.5 28.5zM412 1538q4 18 17 30.5t32 12.5q16 0 27.5 -12.5t7.5 -30.5q-4 -16 -18.5 -28.5t-31.5 -12.5q-18 0 -28 12.5t-6 28.5z" />
<glyph unicode="&#xa9;" horiz-adv-x="864" d="M88 1257q12 70 49 132.5t94 111.5q119 100 263 101q68 0 126 -26t99 -75t56.5 -112.5t2.5 -133.5q-12 -70 -48 -132t-95 -111q-117 -101 -260 -101t-225 101q-86 102 -62 245zM109 1255q-23 -137 55 -231q80 -92 211 -92q68 0 131 25.5t115.5 69.5t88 103.5t48.5 126.5 q25 135 -56 232q-37 45 -91 68.5t-117 23.5q-68 0 -132.5 -25.5t-116.5 -70.5t-88 -103.5t-48 -126.5zM231 1257q8 43 31 81t55.5 66t73.5 44t84 16q86 0 137 -61l-14 -12q-47 53 -123 53q-39 0 -76 -14.5t-67.5 -40t-52 -60.5t-27.5 -74q-12 -82 33 -133q43 -53 121 -53 t143 55l14 -16q-71 -59 -157 -59q-88 0 -138 59q-49 61 -37 149z" />
<glyph unicode="&#xad;" d="M182 618v21h893v-21h-893z" />
<glyph unicode="&#xae;" horiz-adv-x="909" d="M111 1257q12 70 49 132.5t94 111.5q119 100 262 101q68 0 126 -26t99 -75t56.5 -112.5t3.5 -133.5t-48 -132t-96 -111q-117 -100 -260 -101q-143 0 -225 101q-86 102 -61 245zM131 1255q-23 -137 55 -231q80 -92 211 -92q68 0 131.5 25.5t115.5 69.5t88 103t48 127 q25 135 -55 232q-37 45 -91 68.5t-118 23.5q-68 0 -132.5 -25.5t-116.5 -70.5t-88 -103.5t-48 -126.5zM297 1047l78 436h114q78 0 117 -43q29 -35 19 -90q-10 -57 -51.5 -94t-100.5 -46l96 -161l-18 -11l-100 170h-7h-98l-29 -166zM350 1229h94q63 0 107.5 34t54.5 91 q6 45 -16 71q-31 37 -101 37h-98z" />
<glyph unicode="&#xb0;" horiz-adv-x="370" d="M63 1485q10 49 49.5 83t88.5 34t78 -35q31 -37 20 -84q-10 -49 -50 -83t-87 -34q-49 0 -78 35q-31 37 -21 84zM84 1483q-6 -43 16 -70q23 -27 62 -27q41 0 74.5 29t42.5 70q6 41 -17 69q-22 27 -61 27q-41 0 -75 -28.5t-42 -69.5z" />
<glyph unicode="&#xb4;" horiz-adv-x="382" d="M160 1399l18 198l21 -2l-19 -198z" />
<glyph unicode="&#xbf;" horiz-adv-x="1339" d="M111 401h20q6 -86 41 -158.5t93.5 -124.5t135 -81t166.5 -29q109 0 211.5 41t186.5 112.5t142 167t77 203.5q18 106 -4.5 202.5t-85.5 170.5q-59 72 -146.5 111t-191.5 39q-98 0 -197 -35l-16 -6l63 368l21 -4l-60 -334q94 31 189 31q109 0 200 -40t154 -117 q61 -72 88 -175q14 -51 15 -104t-9 -109q-18 -111 -76.5 -209t-148.5 -176q-92 -78 -196.5 -117.5t-215.5 -39.5q-96 0 -176 30q-80 31 -141 86q-127 117 -139 297zM602 1561q4 23 20.5 37t39.5 14t35 -14.5t8 -36.5q-4 -23 -21.5 -37.5t-40.5 -14.5q-20 0 -32.5 14.5 t-8.5 37.5z" />
<glyph unicode="&#xc0;" horiz-adv-x="1513" d="M39 4l18 -10l396 649h807l167 -647l19 6l-420 1620zM465 664l555 907l233 -907h-788zM854 2025l20 5l54 -199l-21 -4z" />
<glyph unicode="&#xc1;" horiz-adv-x="1513" d="M39 4l18 -10l396 649h807l167 -647l19 6l-420 1620zM465 664l555 907l233 -907h-788zM997 1833l93 199l18 -9l-92 -198z" />
<glyph unicode="&#xc2;" horiz-adv-x="1513" d="M39 4l18 -10l396 649h807l167 -647l19 6l-420 1620zM465 664l555 907l233 -907h-788zM854 2025l20 5l54 -199l-21 -4zM1100 1833l92 199l18 -9l-92 -198z" />
<glyph unicode="&#xc3;" horiz-adv-x="1513" d="M39 4l18 -10l396 649h807l167 -647l19 6l-420 1620zM465 664l555 907l233 -907h-788zM643 1829q12 12 39 36.5t43 39.5q72 66 160 55q74 -4 114 -57l21 -23q35 -45 96 -51q82 -6 150 51q18 16 40.5 36.5t39.5 37.5l14 -15q-16 -16 -39 -37.5t-43 -37.5q-67 -56 -145 -56 h-19q-70 6 -110 58l-21 24q-35 45 -100 52q-39 4 -77 -10.5t-69 -41.5q-16 -14 -41.5 -38.5t-38.5 -39.5z" />
<glyph unicode="&#xc4;" horiz-adv-x="1513" d="M39 4l987 1618l420 -1620l-18 -6l-168 647h-807l-396 -649zM465 664h789l-234 907zM848 1960q4 18 17.5 30.5t31.5 12.5q16 0 27.5 -12.5t7.5 -30.5q-4 -16 -18.5 -28.5t-30.5 -12.5q-18 0 -28.5 12.5t-6.5 28.5zM1135 1960q4 18 17 30.5t32 12.5q16 0 27.5 -12.5 t7.5 -30.5q-4 -16 -18.5 -28.5t-31.5 -12.5q-18 0 -28 12.5t-6 28.5z" />
<glyph unicode="&#xc5;" horiz-adv-x="1513" d="M39 4l18 -10l396 649h807l167 -647l19 6l-420 1620zM465 664l555 907l233 -907h-788zM950 1874q10 49 49 83t88 34t78 -35q31 -37 21 -84q-10 -49 -50 -83t-87 -34q-49 0 -78 35q-31 37 -21 84zM971 1872q-6 -43 16 -70q23 -27 62 -26q41 0 74.5 28.5t41.5 69.5 q6 41 -16 70q-23 26 -62 26q-41 0 -74.5 -28.5t-41.5 -69.5z" />
<glyph unicode="&#xc7;" horiz-adv-x="1718" d="M122 631q-3 80 13 164q27 166 121 317q88 147 219 260q135 113 291 174q158 63 328 64q84 0 160.5 -15.5t146.5 -48.5q137 -61 229 -176l-16 -12q-92 113 -226.5 172t-293.5 59q-166 0 -322 -62.5t-284 -171t-216 -254t-116 -310.5q-29 -162 6 -307.5t131 -258.5 q92 -111 225 -170t291 -59q160 0 315.5 60.5t290.5 172.5l12 -14q-135 -115 -288 -176q-168 -64 -330 -64t-299 60.5t-234 175.5q-96 115 -133 262q-18 78 -21 158zM641 -197l90 185l19 -8l-91 -185z" />
<glyph unicode="&#xc8;" horiz-adv-x="1267" d="M55 0h875v20h-850l141 803h834v21h-830l127 719h854v20h-872zM799 2025l20 5l53 -199l-20 -4z" />
<glyph unicode="&#xc9;" horiz-adv-x="1267" d="M55 0h875v20h-850l141 803h834v21h-830l127 719h854v20h-872zM793 1833l92 199l18 -9l-92 -198z" />
<glyph unicode="&#xca;" horiz-adv-x="1267" d="M55 0h875v20h-850l141 803h834v21h-830l127 719h854v20h-872zM696 2025l21 5l53 -199l-20 -4zM936 1833l92 199l19 -9l-93 -198z" />
<glyph unicode="&#xcb;" horiz-adv-x="1267" d="M55 0l279 1583h872v-20h-854l-127 -719h830v-21h-834l-141 -803h850v-20h-875zM633 1960q4 18 17.5 30.5t31.5 12.5q16 0 27.5 -12.5t7.5 -30.5q-4 -16 -18.5 -28.5t-30.5 -12.5q-18 0 -28.5 12.5t-6.5 28.5zM920 1960q4 18 17 30.5t32 12.5q16 0 27.5 -12.5t7.5 -30.5 q-4 -16 -18.5 -28.5t-31.5 -12.5q-18 0 -28 12.5t-6 28.5z" />
<glyph unicode="&#xcc;" horiz-adv-x="438" d="M45 2l279 1583l20 -4l-278 -1583zM328 2025l20 5l53 -199l-20 -4z" />
<glyph unicode="&#xcd;" horiz-adv-x="514" d="M45 2l279 1583l20 -4l-278 -1583zM403 1833l93 199l18 -9l-92 -198z" />
<glyph unicode="&#xce;" horiz-adv-x="389" d="M45 2l279 1583l20 -4l-278 -1583zM266 2025l21 5l53 -199l-21 -4zM424 1833l92 199l19 -9l-93 -198z" />
<glyph unicode="&#xcf;" horiz-adv-x="483" d="M45 2l279 1583l20 -4l-278 -1583zM195 1960q4 18 17.5 30.5t31.5 12.5q16 0 27.5 -12.5t7.5 -30.5q-4 -16 -18.5 -28.5t-30.5 -12.5q-18 0 -28.5 12.5t-6.5 28.5zM482 1960q4 18 17 30.5t32 12.5q16 0 27.5 -12.5t7.5 -30.5q-4 -16 -18.5 -28.5t-31.5 -12.5 q-18 0 -28 12.5t-6 28.5z" />
<glyph unicode="&#xd0;" horiz-adv-x="1658" d="M12 856v21h1016v-21h-1016zM178 0l2 12l277 1571h450q176 0 318 -61q135 -59 229 -168q92 -111 125 -253.5t4 -303.5q-29 -164 -110.5 -307.5t-208.5 -253.5q-125 -113 -285 -173q-164 -63 -346 -63h-455zM203 20h430q172 0 327.5 58.5t280.5 162t209 247t115 313.5 q27 156 -5 295t-122 245q-92 109 -228.5 165.5t-302.5 56.5h-434z" />
<glyph unicode="&#xd1;" horiz-adv-x="1695" d="M41 2l287 1618l1024 -1602l276 1567l19 -4l-285 -1618l-1024 1602l-277 -1567zM715 1892q12 12 38.5 37t43.5 39q72 66 160 56q74 -4 114 -58l21 -22q35 -45 96 -52q82 -6 149 52q18 16 41 36.5t39 36.5l15 -14q-16 -16 -39 -37.5t-43 -38.5q-68 -55 -146 -55h-18 q-70 6 -111 57l-20 25q-35 45 -100 51q-39 4 -77 -10t-69 -41q-16 -14 -41.5 -39t-38.5 -39z" />
<glyph unicode="&#xd2;" horiz-adv-x="1822" d="M92 795q16 84 45 162.5t76 154.5q88 150 219 258q133 115 291 176q168 63 328 64q164 0 301 -60.5t233 -175.5q47 -57 80 -122.5t53 -139.5q37 -152 8 -321q-16 -84 -44.5 -163t-75.5 -155q-88 -150 -220 -258q-133 -115 -290 -176q-160 -64 -328 -64q-164 0 -301 60.5 t-234 175.5q-96 115 -133 262q-39 158 -8 322zM113 791q-29 -162 6 -307.5t131 -260.5q92 -111 225 -169t293 -58q164 0 320.5 62.5t283.5 171t216 254t118 311.5q29 162 -6 307t-131 258q-92 111 -225 170t-293 59q-164 0 -321 -62.5t-284 -171t-216 -254t-117 -310.5z M983 2025l21 5l53 -199l-21 -4z" />
<glyph unicode="&#xd3;" horiz-adv-x="1822" d="M92 795q16 84 45 162.5t76 154.5q88 150 219 258q133 115 291 176q168 63 328 64q164 0 301 -60.5t233 -175.5q47 -57 80 -122.5t53 -139.5q37 -152 8 -321q-16 -84 -44.5 -163t-75.5 -155q-88 -150 -220 -258q-133 -115 -290 -176q-160 -64 -328 -64q-164 0 -301 60.5 t-234 175.5q-96 115 -133 262q-39 158 -8 322zM113 791q-29 -162 6 -307.5t131 -260.5q92 -111 225 -169t293 -58q164 0 320.5 62.5t283.5 171t216 254t118 311.5q29 162 -6 307t-131 258q-92 111 -225 170t-293 59q-164 0 -321 -62.5t-284 -171t-216 -254t-117 -310.5z M1100 1833l92 199l18 -9l-92 -198z" />
<glyph unicode="&#xd4;" horiz-adv-x="1822" d="M92 795q16 84 45 162.5t76 154.5q88 150 219 258q133 115 291 176q168 63 328 64q164 0 301 -60.5t233 -175.5q47 -57 80 -122.5t53 -139.5q37 -152 8 -321q-16 -84 -44.5 -163t-75.5 -155q-88 -150 -220 -258q-133 -115 -290 -176q-160 -64 -328 -64q-164 0 -301 60.5 t-234 175.5q-96 115 -133 262q-39 158 -8 322zM113 791q-29 -162 6 -307.5t131 -260.5q92 -111 225 -169t293 -58q164 0 320.5 62.5t283.5 171t216 254t118 311.5q29 162 -6 307t-131 258q-92 111 -225 170t-293 59q-164 0 -321 -62.5t-284 -171t-216 -254t-117 -310.5z M983 2025l21 5l53 -199l-21 -4zM1243 1833l92 199l19 -9l-92 -198z" />
<glyph unicode="&#xd5;" horiz-adv-x="1822" d="M92 795q16 84 45 162.5t76 154.5q88 150 219 258q133 115 291 176q168 63 328 64q164 0 301 -60.5t233 -175.5q47 -57 80 -122.5t53 -139.5q37 -152 8 -321q-16 -84 -44.5 -163t-75.5 -155q-88 -150 -220 -258q-133 -115 -290 -176q-160 -64 -328 -64q-164 0 -301 60.5 t-234 175.5q-96 115 -133 262q-39 158 -8 322zM113 791q-29 -162 6 -307.5t131 -260.5q92 -111 225 -169t293 -58q164 0 320.5 62.5t283.5 171t216 254t118 311.5q29 162 -6 307t-131 258q-92 111 -225 170t-293 59q-164 0 -321 -62.5t-284 -171t-216 -254t-117 -310.5z M778 1892q12 12 38.5 37t43.5 39q72 66 160 56q74 -4 114 -58l21 -22q35 -45 96 -52q82 -6 149 52q18 16 41 36.5t39 36.5l15 -14q-16 -16 -39 -37.5t-43 -38.5q-68 -55 -146 -55h-18q-70 6 -111 57l-20 25q-35 45 -100 51q-39 4 -77 -10t-69 -41q-16 -14 -41.5 -39 t-38.5 -39z" />
<glyph unicode="&#xd6;" horiz-adv-x="1822" d="M92 795q16 84 45 162.5t76 154.5q88 150 219 258q133 115 291 176q168 63 328 64q164 0 301 -60.5t233 -175.5q47 -57 80 -122.5t53 -139.5q37 -152 8 -321q-16 -84 -44.5 -163t-75.5 -155q-88 -150 -220 -258q-133 -115 -290 -176q-160 -64 -328 -64q-164 0 -301 60.5 t-234 175.5q-96 115 -133 262q-39 158 -8 322zM113 791q-29 -162 6 -307.5t131 -260.5q92 -111 225 -169t293 -58q164 0 320.5 62.5t283.5 171t216 254t118 311.5q29 162 -6 307t-131 258q-92 111 -225 170t-293 59q-164 0 -321 -62.5t-284 -171t-216 -254t-117 -310.5z M1012 1960q4 18 17.5 30.5t31.5 12.5q16 0 27.5 -12.5t7.5 -30.5q-4 -16 -18.5 -28.5t-30.5 -12.5q-18 0 -28.5 12.5t-6.5 28.5zM1299 1960q4 18 17 30.5t32 12.5q16 0 27.5 -12.5t7.5 -30.5q-4 -16 -18.5 -28.5t-31.5 -12.5q-18 0 -28 12.5t-6 28.5z" />
<glyph unicode="&#xd7;" horiz-adv-x="1253" d="M266 514l328 279l-229 276l16 14l229 -276l328 276l14 -14l-329 -278l229 -277l-14 -14l-230 276l-329 -276z" />
<glyph unicode="&#xd8;" horiz-adv-x="1822" d="M92 795q16 84 45 162.5t76 154.5q88 150 219 258q133 115 291 176q168 63 328 64q164 0 301 -60.5t233 -175.5q47 -57 80 -122.5t53 -139.5q37 -152 8 -321q-16 -84 -44.5 -163t-75.5 -155q-88 -150 -220 -258q-133 -115 -290 -176q-160 -64 -328 -64q-164 0 -301 60.5 t-234 175.5q-96 115 -133 262q-39 158 -8 322zM113 791q-29 -162 6 -307.5t131 -260.5q92 -111 225 -169t293 -58q164 0 320.5 62.5t283.5 171t216 254t118 311.5q29 162 -6 307t-131 258q-92 111 -225 170t-293 59q-164 0 -321 -62.5t-284 -171t-216 -254t-117 -310.5z M309 6l1188 1583l16 -12l-1188 -1583z" />
<glyph unicode="&#xd9;" horiz-adv-x="1552" d="M64.5 385.5q-3.5 63.5 3 117.5t12.5 85l176 997l18 -4l-174 -995q-6 -31 -13 -83t-4 -113.5t21.5 -126t65.5 -120.5q123 -147 416 -147q592 0 696 592l176 997l21 -4l-176 -995q-4 -25 -12.5 -64t-24 -87t-41 -100t-62.5 -104q-188 -256 -577 -256q-303 0 -432 154 q-47 57 -66.5 125t-23 131.5zM799 2025l20 5l53 -199l-20 -4z" />
<glyph unicode="&#xda;" horiz-adv-x="1552" d="M64.5 385.5q-3.5 63.5 3 117.5t12.5 85l176 997l18 -4l-174 -995q-6 -31 -13 -83t-4 -113.5t21.5 -126t65.5 -120.5q123 -147 416 -147q592 0 696 592l176 997l21 -4l-176 -995q-4 -25 -12.5 -64t-24 -87t-41 -100t-62.5 -104q-188 -256 -577 -256q-303 0 -432 154 q-47 57 -66.5 125t-23 131.5zM834 1833l92 199l18 -9l-92 -198z" />
<glyph unicode="&#xdb;" horiz-adv-x="1552" d="M64.5 385.5q-3.5 63.5 3 117.5t12.5 85l176 997l18 -4l-174 -995q-6 -31 -13 -83t-4 -113.5t21.5 -126t65.5 -120.5q123 -147 416 -147q592 0 696 592l176 997l21 -4l-176 -995q-4 -25 -12.5 -64t-24 -87t-41 -100t-62.5 -104q-188 -256 -577 -256q-303 0 -432 154 q-47 57 -66.5 125t-23 131.5zM758 2025l20 5l53 -199l-20 -4zM997 1833l93 199l18 -9l-92 -198z" />
<glyph unicode="&#xdc;" horiz-adv-x="1552" d="M64.5 385.5q-3.5 63.5 3 117.5t12.5 85l176 997l18 -4l-174 -995q-6 -31 -13 -83t-4 -113.5t21.5 -126t65.5 -120.5q123 -147 416 -147q592 0 696 592l176 997l21 -4l-176 -995q-4 -25 -12.5 -64t-24 -87t-41 -100t-62.5 -104q-188 -256 -577 -256q-303 0 -432 154 q-47 57 -66.5 125t-23 131.5zM733 1960q4 18 17.5 30.5t31.5 12.5q16 0 27.5 -12.5t7.5 -30.5q-4 -16 -18.5 -28.5t-30.5 -12.5q-18 0 -28.5 12.5t-6.5 28.5zM1020 1960q4 18 17 30.5t32 12.5q16 0 27.5 -12.5t7.5 -30.5q-4 -16 -18.5 -28.5t-31.5 -12.5q-18 0 -28 12.5 t-6 28.5z" />
<glyph unicode="&#xdd;" horiz-adv-x="1388" d="M33 1579l483 -930l-115 -647l21 -4l115 649l811 930l-15 12l-805 -919l-479 917zM752 1833l92 199l18 -9l-92 -198z" />
<glyph unicode="&#xdf;" horiz-adv-x="1333" d="M125 2l9 54q9 53 24.5 140t35 198.5t41 227t41 227.5t35 199t24.5 141l9 54q41 221 154 332q100 100 247 104h35q137 0 221 -96q82 -100 58 -242q-10 -66 -47 -127t-92 -108q-68 -57 -152 -84q80 -12 147.5 -49t116.5 -96q61 -74 86 -170q25 -98 6 -207 q-18 -104 -74.5 -200.5t-144.5 -170.5t-190.5 -114t-206.5 -40h-16v21h16q104 0 203.5 40t180.5 108.5t137 161.5t75 198q18 102 -4.5 194.5t-81.5 163.5q-59 72 -143 109t-187 37h-86v20h37h27q66 0 128 25.5t112 68.5t85 100.5t47 123.5q12 63 -2 120.5t-51 102.5 q-78 90 -205 90h-35q-150 -4 -248 -112.5t-132 -307.5l-11 -55q-10 -54 -25.5 -141t-35 -198.5t-40 -227t-39.5 -227t-34.5 -199t-25.5 -140.5l-9 -53z" />
<glyph unicode="&#xe0;" horiz-adv-x="1241" d="M88 492q-18 -104 4.5 -199.5t83.5 -167.5t147.5 -111t190.5 -39t203.5 39t185.5 111q23 20 43.5 40.5t38.5 43.5l-35 -207l19 -4l166 942l-19 4l-31 -176q-25 49 -57 88q-59 72 -146 111t-190 39q-104 0 -204.5 -39t-186.5 -111q-86 -74 -140.5 -167t-72.5 -197zM109 489 q18 102 72.5 192.5t134 158t177 106.5t199.5 39q98 0 180 -37t140 -104q45 -55 65 -113l-84 -477q-84 -117 -211 -187.5t-268 -70.5q-98 0 -181 36t-140 105q-59 72 -81 162t-3 190zM782 1501l21 4l53 -198l-20 -4z" />
<glyph unicode="&#xe1;" horiz-adv-x="1241" d="M88 492q-18 -104 4.5 -199.5t83.5 -167.5t147.5 -111t190.5 -39t203.5 39t185.5 111q23 20 43.5 40.5t38.5 43.5l-35 -207l19 -4l166 942l-19 4l-31 -176q-25 49 -57 88q-59 72 -146 111t-190 39q-104 0 -204.5 -39t-186.5 -111q-86 -74 -140.5 -167t-72.5 -197zM109 489 q18 102 72.5 192.5t134 158t177 106.5t199.5 39q98 0 180 -37t140 -104q45 -55 65 -113l-84 -477q-84 -117 -211 -187.5t-268 -70.5q-98 0 -181 36t-140 105q-59 72 -81 162t-3 190zM793 1313l92 198l18 -8l-92 -198z" />
<glyph unicode="&#xe2;" horiz-adv-x="1241" d="M88 492q-18 -104 4.5 -199.5t83.5 -167.5t147.5 -111t190.5 -39t203.5 39t185.5 111q23 20 43.5 40.5t38.5 43.5l-35 -207l19 -4l166 942l-19 4l-31 -176q-25 49 -57 88q-59 72 -146 111t-190 39q-104 0 -204.5 -39t-186.5 -111q-86 -74 -140.5 -167t-72.5 -197zM109 489 q18 102 72.5 192.5t134 158t177 106.5t199.5 39q98 0 180 -37t140 -104q45 -55 65 -113l-84 -477q-84 -117 -211 -187.5t-268 -70.5q-98 0 -181 36t-140 105q-59 72 -81 162t-3 190zM629 1313l92 198l18 -8l-92 -198zM881 1495l20 4l53 -199l-20 -4z" />
<glyph unicode="&#xe3;" horiz-adv-x="1241" d="M88 492q18 104 72.5 197t140.5 167q86 72 186.5 111t204.5 39q102 0 189.5 -39t146.5 -111q33 -39 57 -88l31 176l19 -4l-166 -942l-19 4l35 207q-18 -23 -38.5 -43.5t-43.5 -40.5q-86 -72 -185.5 -111t-203.5 -39t-190 39t-148 111q-61 72 -83.5 167t-4.5 200zM109 489 q-18 -100 3 -190t81 -162q57 -70 140 -105.5t181 -35.5q141 0 268 70.5t211 187.5l84 477q-20 57 -65 113q-57 68 -139 104.5t-181 36.5q-102 0 -199.5 -39t-177 -106.5t-134 -157.5t-72.5 -193zM406 1392q12 12 38.5 37t43.5 39q72 66 160 56q74 -4 114 -58l21 -22 q35 -45 96 -52q82 -6 149 52q18 16 41 36.5t39 36.5l15 -14q-16 -16 -39 -37.5t-43 -38.5q-68 -55 -146 -55h-18q-70 6 -111 57l-20 25q-35 45 -100 51q-39 4 -77 -10t-69 -41q-16 -14 -41.5 -39t-38.5 -39z" />
<glyph unicode="&#xe4;" horiz-adv-x="1241" d="M88 492q18 104 72.5 197t140.5 167q86 72 186.5 111t204.5 39q102 0 189.5 -39t146.5 -111q33 -39 57 -88l31 176l19 -4l-166 -942l-19 4l35 207q-18 -23 -38.5 -43.5t-43.5 -40.5q-86 -72 -185.5 -111t-203.5 -39t-190 39t-148 111q-61 72 -83.5 167t-4.5 200zM109 489 q-18 -100 3 -190t81 -162q57 -70 140 -105.5t181 -35.5q141 0 268 70.5t211 187.5l84 477q-20 57 -65 113q-57 68 -139 104.5t-181 36.5q-102 0 -199.5 -39t-177 -106.5t-134 -157.5t-72.5 -193zM598 1458q4 18 17.5 30.5t31.5 12.5q16 0 27.5 -12.5t7.5 -30.5 q-4 -16 -18.5 -28.5t-30.5 -12.5q-18 0 -28.5 12.5t-6.5 28.5zM885 1458q4 18 17 30.5t32 12.5q16 0 27.5 -12.5t7.5 -30.5q-4 -16 -18.5 -28.5t-31.5 -12.5q-18 0 -28 12.5t-6 28.5z" />
<glyph unicode="&#xe5;" horiz-adv-x="1241" d="M88 492q-18 -104 4.5 -199.5t83.5 -167.5t147.5 -111t190.5 -39t203.5 39t185.5 111q23 20 43.5 40.5t38.5 43.5l-35 -207l19 -4l166 942l-19 4l-31 -176q-25 49 -57 88q-59 72 -146 111t-190 39q-104 0 -204.5 -39t-186.5 -111q-86 -74 -140.5 -167t-72.5 -197zM109 489 q18 102 72.5 192.5t134 158t177 106.5t199.5 39q98 0 180 -37t140 -104q45 -55 65 -113l-84 -477q-84 -117 -211 -187.5t-268 -70.5q-98 0 -181 36t-140 105q-59 72 -81 162t-3 190zM709 1413q10 49 49 83t88 34t78 -35q31 -37 20 -84q-10 -49 -50 -83t-87 -34q-49 0 -78 35 q-31 37 -20 84zM729 1411q-6 -43 16 -70q23 -27 62 -26q41 0 74.5 28.5t42.5 69.5q6 41 -17 70q-22 26 -61 26q-41 0 -75 -28.5t-42 -69.5z" />
<glyph unicode="&#xe7;" horiz-adv-x="1159" d="M90 494q16 104 71.5 197t141.5 165q86 74 186.5 113t204.5 39t191.5 -39t148.5 -113l-16 -12q-59 70 -142 106.5t-182 36.5q-102 0 -199.5 -39t-177 -106.5t-135 -158.5t-73.5 -194q-16 -100 5 -190t81 -162q57 -68 140 -104.5t181 -36.5q100 0 196.5 37t180.5 108 l12 -14q-86 -74 -185.5 -113t-203.5 -39t-190 39t-148 111q-61 74 -83.5 169t-4.5 200zM381 -199l90 185l18 -9l-90 -184z" />
<glyph unicode="&#xe8;" horiz-adv-x="1245" d="M88 492q18 104 72.5 197t140.5 167q86 72 186.5 111t204.5 39q102 0 188.5 -39t147.5 -111q59 -72 84 -166q25 -96 6 -203l-2 -8h-1010q-16 -98 6.5 -186t80.5 -156q57 -70 140 -105.5t181 -35.5q133 0 259 65.5t214 182.5l17 -13q-43 -57 -98.5 -104t-119.5 -80 q-131 -72 -272 -72q-104 0 -190 39t-148 111q-61 72 -83.5 167t-4.5 200zM111 500h987q16 98 -5.5 186t-80.5 158q-57 68 -139 104.5t-181 36.5q-102 0 -197.5 -38t-174 -104.5t-134 -154.5t-75.5 -188zM782 1501l21 4l53 -198l-20 -4z" />
<glyph unicode="&#xe9;" horiz-adv-x="1245" d="M88 492q18 104 72.5 197t140.5 167q86 72 186.5 111t204.5 39q102 0 188.5 -39t147.5 -111q59 -72 84 -166q25 -96 6 -203l-2 -8h-1010q-16 -98 6.5 -186t80.5 -156q57 -70 140 -105.5t181 -35.5q133 0 259 65.5t214 182.5l17 -13q-43 -57 -98.5 -104t-119.5 -80 q-131 -72 -272 -72q-104 0 -190 39t-148 111q-61 72 -83.5 167t-4.5 200zM111 500h987q16 98 -5.5 186t-80.5 158q-57 68 -139 104.5t-181 36.5q-102 0 -197.5 -38t-174 -104.5t-134 -154.5t-75.5 -188zM793 1313l92 198l18 -8l-92 -198z" />
<glyph unicode="&#xea;" horiz-adv-x="1245" d="M88 492q18 104 72.5 197t140.5 167q86 72 186.5 111t204.5 39q102 0 188.5 -39t147.5 -111q59 -72 84 -166q25 -96 6 -203l-2 -8h-1010q-16 -98 6.5 -186t80.5 -156q57 -70 140 -105.5t181 -35.5q133 0 259 65.5t214 182.5l17 -13q-43 -57 -98.5 -104t-119.5 -80 q-131 -72 -272 -72q-104 0 -190 39t-148 111q-61 72 -83.5 167t-4.5 200zM111 500h987q16 98 -5.5 186t-80.5 158q-57 68 -139 104.5t-181 36.5q-102 0 -197.5 -38t-174 -104.5t-134 -154.5t-75.5 -188zM629 1313l92 198l18 -8l-92 -198zM881 1495l20 4l53 -199l-20 -4z" />
<glyph unicode="&#xeb;" horiz-adv-x="1245" d="M88 492q18 104 72.5 197t140.5 167q86 72 186.5 111t204.5 39q102 0 188.5 -39t147.5 -111q59 -72 84 -166q25 -96 6 -203l-2 -8h-1010q-16 -98 6.5 -186t80.5 -156q57 -70 140 -105.5t181 -35.5q133 0 259 65.5t214 182.5l17 -13q-43 -57 -98.5 -104t-119.5 -80 q-131 -72 -272 -72q-104 0 -190 39t-148 111q-61 72 -83.5 167t-4.5 200zM111 500h987q16 98 -5.5 186t-80.5 158q-57 68 -139 104.5t-181 36.5q-102 0 -197.5 -38t-174 -104.5t-134 -154.5t-75.5 -188zM703 1458q4 18 17.5 30.5t31.5 12.5q16 0 27.5 -12.5t7.5 -30.5 q-4 -16 -18.5 -28.5t-30.5 -12.5q-18 0 -28.5 12.5t-6.5 28.5zM990 1458q4 18 17 30.5t32 12.5q16 0 27.5 -12.5t7.5 -30.5q-4 -16 -18.5 -28.5t-31.5 -12.5q-18 0 -28 12.5t-6 28.5z" />
<glyph unicode="&#xec;" horiz-adv-x="348" d="M72 2l174 983l20 -4l-174 -983zM254 1501l20 4l54 -198l-21 -4z" />
<glyph unicode="&#xed;" horiz-adv-x="348" d="M72 2l174 983l20 -4l-174 -983zM260 1313l92 198l19 -8l-92 -198z" />
<glyph unicode="&#xee;" horiz-adv-x="1705" d="M72 2l174 983l20 -4l-174 -983zM229 1501l21 4l53 -198l-20 -4zM362 1313l93 198l18 -8l-92 -198z" />
<glyph unicode="&#xef;" horiz-adv-x="501" d="M72 2l174 983l20 -4l-174 -983zM174 1456q4 18 17.5 30.5t31.5 12.5q16 0 27.5 -12.5t7.5 -30.5q-4 -16 -18.5 -28.5t-30.5 -12.5q-18 0 -28.5 12.5t-6.5 28.5zM461 1456q4 18 17.5 30.5t31.5 12.5q16 0 27.5 -12.5t7.5 -30.5q-4 -16 -18.5 -28.5t-30.5 -12.5 q-18 0 -28.5 12.5t-6.5 28.5z" />
<glyph unicode="&#xf1;" horiz-adv-x="1150" d="M78 2l172 983l20 -4l-47 -262q31 63 79 115.5t107.5 91.5t126 60.5t136.5 21.5h2q84 0 154.5 -31t119.5 -90q104 -127 74 -301l-104 -588l-19 4l102 588q14 80 -4 152.5t-65 129.5q-47 55 -113.5 85t-144.5 30h-2q-84 0 -162 -31.5t-142.5 -86t-108.5 -128t-58 -155.5 l-105 -588zM340 1394q12 12 38.5 37t43.5 39q72 66 160 56q74 -4 114 -58l21 -22q35 -45 96 -52q82 -6 149 52q18 16 41 36.5t39 36.5l15 -14q-16 -16 -39 -37.5t-43 -38.5q-68 -55 -146 -55h-18q-70 6 -111 57l-20 25q-35 45 -100 51q-39 4 -77 -10t-69 -41 q-16 -14 -41.5 -39t-38.5 -39z" />
<glyph unicode="&#xf2;" d="M88 494q18 104 73.5 197t141.5 165q86 74 185.5 113t203.5 39t191.5 -39t146.5 -111q61 -74 85 -169t5 -200q-18 -104 -73.5 -197t-141.5 -167q-86 -72 -186.5 -111t-204.5 -39t-190 39t-146 111q-63 74 -85.5 169t-4.5 200zM109 489q-18 -100 3 -190t81 -162 q59 -68 141 -104.5t180 -36.5q102 0 199.5 39t177.5 106.5t135 158.5t74 194q16 100 -5.5 190t-80.5 162q-57 68 -140.5 104.5t-181.5 36.5q-102 0 -199.5 -39t-177 -106.5t-134 -158.5t-72.5 -194zM782 1501l21 4l53 -198l-20 -4z" />
<glyph unicode="&#xf3;" d="M88 494q18 104 73.5 197t141.5 165q86 74 185.5 113t203.5 39t191.5 -39t146.5 -111q61 -74 85 -169t5 -200q-18 -104 -73.5 -197t-141.5 -167q-86 -72 -186.5 -111t-204.5 -39t-190 39t-146 111q-63 74 -85.5 169t-4.5 200zM109 489q-18 -100 3 -190t81 -162 q59 -68 141 -104.5t180 -36.5q102 0 199.5 39t177.5 106.5t135 158.5t74 194q16 100 -5.5 190t-80.5 162q-57 68 -140.5 104.5t-181.5 36.5q-102 0 -199.5 -39t-177 -106.5t-134 -158.5t-72.5 -194zM793 1313l92 198l18 -8l-92 -198z" />
<glyph unicode="&#xf4;" d="M88 494q18 104 73.5 197t141.5 165q86 74 185.5 113t203.5 39t191.5 -39t146.5 -111q61 -74 85 -169t5 -200q-18 -104 -73.5 -197t-141.5 -167q-86 -72 -186.5 -111t-204.5 -39t-190 39t-146 111q-63 74 -85.5 169t-4.5 200zM109 489q-18 -100 3 -190t81 -162 q59 -68 141 -104.5t180 -36.5q102 0 199.5 39t177.5 106.5t135 158.5t74 194q16 100 -5.5 190t-80.5 162q-57 68 -140.5 104.5t-181.5 36.5q-102 0 -199.5 -39t-177 -106.5t-134 -158.5t-72.5 -194zM629 1313l92 198l18 -8l-92 -198zM881 1495l20 4l53 -199l-20 -4z" />
<glyph unicode="&#xf5;" d="M88 494q18 104 73.5 197t141.5 165q86 74 185.5 113t203.5 39t191.5 -39t146.5 -111q61 -74 85 -169t5 -200q-18 -104 -73.5 -197t-141.5 -167q-86 -72 -186.5 -111t-204.5 -39t-190 39t-146 111q-63 74 -85.5 169t-4.5 200zM109 489q-18 -100 3 -190t81 -162 q59 -68 141 -104.5t180 -36.5q102 0 199.5 39t177.5 106.5t135 158.5t74 194q16 100 -5.5 190t-80.5 162q-57 68 -140.5 104.5t-181.5 36.5q-102 0 -199.5 -39t-177 -106.5t-134 -158.5t-72.5 -194zM389 1394q12 12 38.5 37t43.5 39q72 66 160 56q74 -4 114 -58l21 -22 q35 -45 96 -52q82 -6 149 52q18 16 41 36.5t39 36.5l15 -14q-16 -16 -39 -37.5t-43 -38.5q-68 -55 -146 -55h-18q-70 6 -111 57l-20 25q-35 45 -100 51q-39 4 -77 -10t-69 -41q-16 -14 -41.5 -39t-38.5 -39z" />
<glyph unicode="&#xf6;" d="M88 494q18 104 73.5 197t141.5 165q86 74 185.5 113t203.5 39t191.5 -39t146.5 -111q61 -74 85 -169t5 -200q-18 -104 -73.5 -197t-141.5 -167q-86 -72 -186.5 -111t-204.5 -39t-190 39t-146 111q-63 74 -85.5 169t-4.5 200zM109 489q-18 -100 3 -190t81 -162 q59 -68 141 -104.5t180 -36.5q102 0 199.5 39t177.5 106.5t135 158.5t74 194q16 100 -5.5 190t-80.5 162q-57 68 -140.5 104.5t-181.5 36.5q-102 0 -199.5 -39t-177 -106.5t-134 -158.5t-72.5 -194zM623 1468q4 18 17.5 30.5t31.5 12.5q16 0 27.5 -12.5t7.5 -30.5 q-4 -16 -18.5 -28.5t-30.5 -12.5q-18 0 -28.5 12.5t-6.5 28.5zM910 1468q4 18 17 30.5t32 12.5q16 0 27.5 -12.5t7.5 -30.5q-4 -16 -18.5 -28.5t-31.5 -12.5q-18 0 -28 12.5t-6 28.5z" />
<glyph unicode="&#xf7;" horiz-adv-x="1280" d="M127 850v20h1016v-20h-1016zM524 520q4 23 21.5 37t38.5 14q23 0 35 -14t8 -37t-21.5 -37t-38.5 -14q-23 0 -35 14t-8 37zM645 1200q4 23 20.5 37t39.5 14t35 -14t8 -37t-21.5 -37t-40.5 -14t-34 14t-7 37z" />
<glyph unicode="&#xf8;" d="M86 8l125 117q-61 74 -85 169t-5 200q18 104 73.5 197t141.5 165q86 74 186.5 113t204.5 39q86 0 162 -28t135 -81l121 119l14 -17l-121 -114q6 -8 12.5 -14.5t12.5 -14.5q61 -74 84.5 -169t5.5 -200q-18 -104 -73.5 -197t-141.5 -167q-86 -72 -186.5 -111t-204.5 -39 q-98 0 -181 34t-143 100l-123 -117zM141 489q-18 -100 3.5 -190t80.5 -160l783 746q-113 102 -281 102q-102 0 -200.5 -39t-178.5 -106.5t-134.5 -159t-72.5 -193.5zM240 123q57 -61 136 -94t171 -33q102 0 199.5 39t177.5 106.5t135.5 159t73.5 193.5q18 100 -4.5 190 t-81.5 162q-12 16 -23 26z" />
<glyph unicode="&#xf9;" horiz-adv-x="1146" d="M127 397q-16 -86 3.5 -162.5t68.5 -138.5q104 -121 274 -121h2q70 0 137.5 21.5t126 59.5t106.5 91.5t79 116.5l-41 -237l18 -4l66 370l104 588l-20 4l-103 -588q-16 -84 -60 -156.5t-108.5 -127t-143.5 -86t-161 -31.5h-2q-162 0 -258 115q-47 57 -65.5 129.5 t-4.5 152.5l105 588l-21 4zM741 1501l21 4l53 -198l-20 -4z" />
<glyph unicode="&#xfa;" horiz-adv-x="1146" d="M127 397q-16 -86 3.5 -162.5t68.5 -138.5q104 -121 274 -121h2q70 0 137.5 21.5t126 59.5t106.5 91.5t79 116.5l-41 -237l18 -4l66 370l104 588l-20 4l-103 -588q-16 -84 -60 -156.5t-108.5 -127t-143.5 -86t-161 -31.5h-2q-162 0 -258 115q-47 57 -65.5 129.5 t-4.5 152.5l105 588l-21 4zM793 1313l92 198l18 -8l-92 -198z" />
<glyph unicode="&#xfb;" horiz-adv-x="1146" d="M127 397q-16 -86 3.5 -162.5t68.5 -138.5q104 -121 274 -121h2q70 0 137.5 21.5t126 59.5t106.5 91.5t79 116.5l-41 -237l18 -4l66 370l104 588l-20 4l-103 -588q-16 -84 -60 -156.5t-108.5 -127t-143.5 -86t-161 -31.5h-2q-162 0 -258 115q-47 57 -65.5 129.5 t-4.5 152.5l105 588l-21 4zM567 1313l92 198l19 -8l-92 -198zM819 1495l21 4l53 -199l-21 -4z" />
<glyph unicode="&#xfc;" horiz-adv-x="1146" d="M127 397l102 588l21 -4l-105 -588q-14 -80 4.5 -152.5t65.5 -129.5q96 -115 258 -115h2q82 0 161 31.5t143.5 86t108.5 127t60 156.5l103 588l20 -4l-104 -588l-66 -370l-18 4l41 237q-31 -63 -79 -116.5t-106.5 -91.5t-126 -59.5t-137.5 -21.5h-2q-170 0 -274 121 q-49 61 -68.5 138t-3.5 163zM531 1479q4 18 17.5 30.5t31.5 12.5q16 0 27.5 -12.5t7.5 -30.5q-4 -16 -18.5 -28.5t-30.5 -12.5q-18 0 -28.5 12.5t-6.5 28.5zM818 1479q4 18 17 30.5t32 12.5q16 0 27.5 -12.5t7.5 -30.5q-4 -16 -18.5 -28.5t-31.5 -12.5q-18 0 -28 12.5 t-6 28.5z" />
<glyph unicode="&#xfd;" horiz-adv-x="1181" d="M76 -459l16 -12l1049 1448l-17 12l-700 -966l-324 964l-20 -8l330 -977zM793 1313l92 198l18 -8l-92 -198z" />
<glyph unicode="&#xff;" horiz-adv-x="1181" d="M76 -459l334 461l-330 977l20 8l324 -964l700 966l17 -12l-1049 -1448zM569 1468q4 18 17.5 30.5t31.5 12.5q16 0 27.5 -12.5t7.5 -30.5q-4 -16 -18.5 -28.5t-30.5 -12.5q-18 0 -28.5 12.5t-6.5 28.5zM856 1468q4 18 17 30.5t32 12.5q16 0 27.5 -12.5t7.5 -30.5 q-4 -16 -18.5 -28.5t-31.5 -12.5q-18 0 -28 12.5t-6 28.5z" />
<glyph unicode="&#x178;" horiz-adv-x="1388" d="M33 1579l16 8l479 -917l805 919l15 -12l-811 -930l-115 -649l-21 4l115 647zM508 1960q4 18 17.5 30.5t31.5 12.5q16 0 27.5 -12.5t7.5 -30.5q-4 -16 -18.5 -28.5t-30.5 -12.5q-18 0 -28.5 12.5t-6.5 28.5zM795 1960q4 18 17 30.5t32 12.5q16 0 27.5 -12.5t7.5 -30.5 q-4 -16 -18.5 -28.5t-31.5 -12.5q-18 0 -28 12.5t-6 28.5z" />
<glyph unicode="&#x2dc;" horiz-adv-x="1026" d="M166 1470q12 12 38.5 37t43.5 39q72 66 160 56q74 -4 114 -58l21 -22q35 -45 96 -52q82 -6 149 52q18 16 41 36.5t39 36.5l15 -14q-16 -16 -39 -37.5t-43 -38.5q-68 -55 -146 -55h-18q-70 6 -111 57l-20 25q-35 45 -100 51q-39 4 -77 -10t-69 -41q-16 -14 -41.5 -39 t-38.5 -39z" />
<glyph unicode="&#x2000;" horiz-adv-x="1016" />
<glyph unicode="&#x2001;" horiz-adv-x="2032" />
<glyph unicode="&#x2002;" horiz-adv-x="1016" />
<glyph unicode="&#x2003;" horiz-adv-x="2032" />
<glyph unicode="&#x2004;" horiz-adv-x="677" />
<glyph unicode="&#x2005;" horiz-adv-x="508" />
<glyph unicode="&#x2006;" horiz-adv-x="338" />
<glyph unicode="&#x2007;" horiz-adv-x="338" />
<glyph unicode="&#x2008;" horiz-adv-x="254" />
<glyph unicode="&#x2009;" horiz-adv-x="406" />
<glyph unicode="&#x200a;" horiz-adv-x="112" />
<glyph unicode="&#x2010;" d="M182 618v21h893v-21h-893z" />
<glyph unicode="&#x2011;" d="M182 618v21h893v-21h-893z" />
<glyph unicode="&#x2012;" d="M182 618v21h893v-21h-893z" />
<glyph unicode="&#x2013;" horiz-adv-x="1380" d="M182 618v21h1024v-21h-1024z" />
<glyph unicode="&#x2014;" horiz-adv-x="2404" d="M182 618v21h2048v-21h-2048z" />
<glyph unicode="&#x2018;" horiz-adv-x="446" d="M180 1343l90 185l19 -8l-90 -185z" />
<glyph unicode="&#x2019;" horiz-adv-x="370" d="M147 1405l91 184l18 -8l-90 -184z" />
<glyph unicode="&#x201a;" horiz-adv-x="448" d="M176 -152l66 138q-6 -2 -19 -2q-23 0 -34 14t-7 37t20.5 37t39.5 14t35 -14.5t8 -36.5q-4 -12 -6 -17l-84 -178z" />
<glyph unicode="&#x201c;" horiz-adv-x="649" d="M156 1343l90 185l18 -8l-90 -185zM381 1343l90 185l18 -8l-90 -185z" />
<glyph unicode="&#x201d;" horiz-adv-x="604" d="M135 1407l90 184l19 -8l-90 -184zM360 1407l91 184l18 -8l-90 -184z" />
<glyph unicode="&#x201e;" horiz-adv-x="653" d="M129 -137l90 184l19 -8l-91 -184zM354 -137l90 184l19 -8l-90 -184z" />
<glyph unicode="&#x2022;" horiz-adv-x="651" d="M279 803q0 25 16 41t39 16q25 0 41 -16t16 -41q0 -23 -16.5 -39t-40.5 -16q-23 0 -39 16t-16 39z" />
<glyph unicode="&#x2026;" horiz-adv-x="1388" d="M193 23q4 18 17 30.5t32 12.5q16 0 27.5 -12.5t6.5 -30.5q-4 -16 -18 -28.5t-31 -12.5q-18 0 -28.5 12t-5.5 29zM655 23q4 18 17.5 30.5t32.5 12.5q16 0 27 -12.5t7 -30.5q-4 -16 -18 -28.5t-31 -12.5q-18 0 -28.5 12t-6.5 29zM1118 23q4 18 17.5 30.5t31.5 12.5 q16 0 27.5 -12.5t7.5 -30.5q-4 -16 -18.5 -28.5t-30.5 -12.5q-18 0 -28.5 12t-6.5 29z" />
<glyph unicode="&#x202f;" horiz-adv-x="406" />
<glyph unicode="&#x205f;" horiz-adv-x="508" />
<glyph unicode="&#x20ac;" horiz-adv-x="1937" d="M57 641v21h248q0 66 12 133q6 33 14.5 64.5t18.5 62.5h-244v20h250q16 43 37 86t45 84q86 143 221 260q66 55 138.5 99.5t150.5 74.5q160 63 330 64q168 -1 307 -64q133 -59 230 -176l-17 -12q-92 113 -226 172t-294 59q-145 0 -285.5 -49t-259.5 -136t-211 -206 t-143 -256h1012v-20h-1018q-10 -33 -19.5 -65t-15.5 -66q-12 -66 -12 -129h1015v-21h-1015q4 -242 149 -416q92 -111 225.5 -170t292.5 -59q160 0 315.5 60.5t288.5 172.5l15 -14q-133 -115 -291 -176q-80 -31 -162 -47.5t-166 -16.5q-164 0 -300 60.5t-234 175.5 q-94 117 -131 262q-23 86 -23 168h-248z" />
<glyph unicode="&#x2122;" horiz-adv-x="1212" d="M53 1563v20h455v-20h-219l-103 -586l-20 4l102 582h-215zM395 979l238 635l125 -610l338 612l14 -641h-20l-13 563l-329 -592l-119 594l-213 -567z" />
<glyph unicode="&#x25fc;" horiz-adv-x="993" d="M0 0v993h993v-993h-993z" />
</font>
</defs>
</svg>
